<svg version="1.1" xmlns="http://www.w3.org/2000/svg" xmlns:xlink="http://www.w3.org/1999/xlink" width="400" height="400" viewBox="0 0 400 400"><defs/><g><rect fill="rgb(255,255,255)" stroke="none" x="0" y="0" width="400" height="400" transform="matrix(1 0 0 1 0 0)" fill-opacity="1"/><path fill="none" stroke="rgb(200,100,100)" paint-order="fill stroke markers" d=" M -80 0 C -80 -44.182779984 -44.182779984 -80 0 -80 C 44.182779984 -80 80 -44.182779984 80 0 C 80 44.182779984 44.182779984 80 0 80 C -44.182779984 80 -80 44.182779984 -80 0 Z" stroke-opacity="1" stroke-linecap="round" stroke-miterlimit="10" stroke-dasharray=""/><path fill="none" stroke="rgb(200,100,100)" paint-order="fill stroke markers" d=" M -80 80 C -80 35.817220016 -44.182779984 0 0 0 C 44.182779984 0 80 35.817220016 80 80 C 80 124.182779984 44.182779984 160 0 160 C -44.182779984 160 -80 124.182779984 -80 80 Z" stroke-opacity="1" stroke-linecap="round" stroke-miterlimit="10" stroke-dasharray=""/><path fill="none" stroke="rgb(200,100,100)" paint-order="fill stroke markers" d=" M -80 160 C -80 115.817220016 -44.182779984 80 0 80 C 44.182779984 80 80 115.817220016 80 160 C 80 204.182779984 44.182779984 240 0 240 C -44.182779984 240 -80 204.182779984 -80 160 Z" stroke-opacity="1" stroke-linecap="round" stroke-miterlimit="10" stroke-dasharray=""/><path fill="none" stroke="rgb(200,100,100)" paint-order="fill stroke markers" d=" M -80 240 C -80 195.817220016 -44.182779984 160 0 160 C 44.182779984 160 80 195.817220016 80 240 C 80 284.182779984 44.182779984 320 0 320 C -44.182779984 320 -80 284.182779984 -80 240 Z" stroke-opacity="1" stroke-linecap="round" stroke-miterlimit="10" stroke-dasharray=""/><path fill="none" stroke="rgb(200,100,100)" paint-order="fill stroke markers" d=" M -80 320 C -80 275.817220016 -44.182779984 240 0 240 C 44.182779984 240 80 275.817220016 80 320 C 80 364.182779984 44.182779984 400 0 400 C -44.182779984 400 -80 364.182779984 -80 320 Z" stroke-opacity="1" stroke-linecap="round" stroke-miterlimit="10" stroke-dasharray=""/><path fill="none" stroke="rgb(200,100,100)" paint-order="fill stroke markers" d=" M -80 400 C -80 355.817220016 -44.182779984 320 0 320 C 44.182779984 320 80 355.817220016 80 400 C 80 444.182779984 44.182779984 480 0 480 C -44.182779984 480 -80 444.182779984 -80 400 Z" stroke-opacity="1" stroke-linecap="round" stroke-miterlimit="10" stroke-dasharray=""/><path fill="none" stroke="rgb(200,100,100)" paint-order="fill stroke markers" d=" M 0 0 C 0 -44.182779984 35.817220016 -80 80 -80 C 124.182779984 -80 160 -44.182779984 160 0 C 160 44.182779984 124.182779984 80 80 80 C 35.817220016 80 0 44.182779984 0 0 Z" stroke-opacity="1" stroke-linecap="round" stroke-miterlimit="10" stroke-dasharray=""/><path fill="none" stroke="rgb(200,100,100)" paint-order="fill stroke markers" d=" M 0 80 C 0 35.817220016 35.817220016 0 80 0 C 124.182779984 0 160 35.817220016 160 80 C 160 124.182779984 124.182779984 160 80 160 C 35.817220016 160 0 124.182779984 0 80 Z" stroke-opacity="1" stroke-linecap="round" stroke-miterlimit="10" stroke-dasharray=""/><path fill="none" stroke="rgb(200,100,100)" paint-order="fill stroke markers" d=" M 0 160 C 0 115.817220016 35.817220016 80 80 80 C 124.182779984 80 160 115.817220016 160 160 C 160 204.182779984 124.182779984 240 80 240 C 35.817220016 240 0 204.182779984 0 160 Z" stroke-opacity="1" stroke-linecap="round" stroke-miterlimit="10" stroke-dasharray=""/><path fill="none" stroke="rgb(200,100,100)" paint-order="fill stroke markers" d=" M 0 240 C 0 195.817220016 35.817220016 160 80 160 C 124.182779984 160 160 195.817220016 160 240 C 160 284.182779984 124.182779984 320 80 320 C 35.817220016 320 0 284.182779984 0 240 Z" stroke-opacity="1" stroke-linecap="round" stroke-miterlimit="10" stroke-dasharray=""/><path fill="none" stroke="rgb(200,100,100)" paint-order="fill stroke markers" d=" M 0 320 C 0 275.817220016 35.817220016 240 80 240 C 124.182779984 240 160 275.817220016 160 320 C 160 364.182779984 124.182779984 400 80 400 C 35.817220016 400 0 364.182779984 0 320 Z" stroke-opacity="1" stroke-linecap="round" stroke-miterlimit="10" stroke-dasharray=""/><path fill="none" stroke="rgb(200,100,100)" paint-order="fill stroke markers" d=" M 0 400 C 0 355.817220016 35.817220016 320 80 320 C 124.182779984 320 160 355.817220016 160 400 C 160 444.182779984 124.182779984 480 80 480 C 35.817220016 480 0 444.182779984 0 400 Z" stroke-opacity="1" stroke-linecap="round" stroke-miterlimit="10" stroke-dasharray=""/><path fill="none" stroke="rgb(200,100,100)" paint-order="fill stroke markers" d=" M 80 0 C 80 -44.182779984 115.817220016 -80 160 -80 C 204.182779984 -80 240 -44.182779984 240 0 C 240 44.182779984 204.182779984 80 160 80 C 115.817220016 80 80 44.182779984 80 0 Z" stroke-opacity="1" stroke-linecap="round" stroke-miterlimit="10" stroke-dasharray=""/><path fill="none" stroke="rgb(200,100,100)" paint-order="fill stroke markers" d=" M 80 80 C 80 35.817220016 115.817220016 0 160 0 C 204.182779984 0 240 35.817220016 240 80 C 240 124.182779984 204.182779984 160 160 160 C 115.817220016 160 80 124.182779984 80 80 Z" stroke-opacity="1" stroke-linecap="round" stroke-miterlimit="10" stroke-dasharray=""/><path fill="none" stroke="rgb(200,100,100)" paint-order="fill stroke markers" d=" M 80 160 C 80 115.817220016 115.817220016 80 160 80 C 204.182779984 80 240 115.817220016 240 160 C 240 204.182779984 204.182779984 240 160 240 C 115.817220016 240 80 204.182779984 80 160 Z" stroke-opacity="1" stroke-linecap="round" stroke-miterlimit="10" stroke-dasharray=""/><path fill="none" stroke="rgb(200,100,100)" paint-order="fill stroke markers" d=" M 80 240 C 80 195.817220016 115.817220016 160 160 160 C 204.182779984 160 240 195.817220016 240 240 C 240 284.182779984 204.182779984 320 160 320 C 115.817220016 320 80 284.182779984 80 240 Z" stroke-opacity="1" stroke-linecap="round" stroke-miterlimit="10" stroke-dasharray=""/><path fill="none" stroke="rgb(200,100,100)" paint-order="fill stroke markers" d=" M 80 320 C 80 275.817220016 115.817220016 240 160 240 C 204.182779984 240 240 275.817220016 240 320 C 240 364.182779984 204.182779984 400 160 400 C 115.817220016 400 80 364.182779984 80 320 Z" stroke-opacity="1" stroke-linecap="round" stroke-miterlimit="10" stroke-dasharray=""/><path fill="none" stroke="rgb(200,100,100)" paint-order="fill stroke markers" d=" M 80 400 C 80 355.817220016 115.817220016 320 160 320 C 204.182779984 320 240 355.817220016 240 400 C 240 444.182779984 204.182779984 480 160 480 C 115.817220016 480 80 444.182779984 80 400 Z" stroke-opacity="1" stroke-linecap="round" stroke-miterlimit="10" stroke-dasharray=""/><path fill="none" stroke="rgb(200,100,100)" paint-order="fill stroke markers" d=" M 160 0 C 160 -44.182779984 195.817220016 -80 240 -80 C 284.182779984 -80 320 -44.182779984 320 0 C 320 44.182779984 284.182779984 80 240 80 C 195.817220016 80 160 44.182779984 160 0 Z" stroke-opacity="1" stroke-linecap="round" stroke-miterlimit="10" stroke-dasharray=""/><path fill="none" stroke="rgb(200,100,100)" paint-order="fill stroke markers" d=" M 160 80 C 160 35.817220016 195.817220016 0 240 0 C 284.182779984 0 320 35.817220016 320 80 C 320 124.182779984 284.182779984 160 240 160 C 195.817220016 160 160 124.182779984 160 80 Z" stroke-opacity="1" stroke-linecap="round" stroke-miterlimit="10" stroke-dasharray=""/><path fill="none" stroke="rgb(200,100,100)" paint-order="fill stroke markers" d=" M 160 160 C 160 115.817220016 195.817220016 80 240 80 C 284.182779984 80 320 115.817220016 320 160 C 320 204.182779984 284.182779984 240 240 240 C 195.817220016 240 160 204.182779984 160 160 Z" stroke-opacity="1" stroke-linecap="round" stroke-miterlimit="10" stroke-dasharray=""/><path fill="none" stroke="rgb(200,100,100)" paint-order="fill stroke markers" d=" M 160 240 C 160 195.817220016 195.817220016 160 240 160 C 284.182779984 160 320 195.817220016 320 240 C 320 284.182779984 284.182779984 320 240 320 C 195.817220016 320 160 284.182779984 160 240 Z" stroke-opacity="1" stroke-linecap="round" stroke-miterlimit="10" stroke-dasharray=""/><path fill="none" stroke="rgb(200,100,100)" paint-order="fill stroke markers" d=" M 160 320 C 160 275.817220016 195.817220016 240 240 240 C 284.182779984 240 320 275.817220016 320 320 C 320 364.182779984 284.182779984 400 240 400 C 195.817220016 400 160 364.182779984 160 320 Z" stroke-opacity="1" stroke-linecap="round" stroke-miterlimit="10" stroke-dasharray=""/><path fill="none" stroke="rgb(200,100,100)" paint-order="fill stroke markers" d=" M 160 400 C 160 355.817220016 195.817220016 320 240 320 C 284.182779984 320 320 355.817220016 320 400 C 320 444.182779984 284.182779984 480 240 480 C 195.817220016 480 160 444.182779984 160 400 Z" stroke-opacity="1" stroke-linecap="round" stroke-miterlimit="10" stroke-dasharray=""/><path fill="none" stroke="rgb(200,100,100)" paint-order="fill stroke markers" d=" M 240 0 C 240 -44.182779984 275.817220016 -80 320 -80 C 364.182779984 -80 400 -44.182779984 400 0 C 400 44.182779984 364.182779984 80 320 80 C 275.817220016 80 240 44.182779984 240 0 Z" stroke-opacity="1" stroke-linecap="round" stroke-miterlimit="10" stroke-dasharray=""/><path fill="none" stroke="rgb(200,100,100)" paint-order="fill stroke markers" d=" M 240 80 C 240 35.817220016 275.817220016 0 320 0 C 364.182779984 0 400 35.817220016 400 80 C 400 124.182779984 364.182779984 160 320 160 C 275.817220016 160 240 124.182779984 240 80 Z" stroke-opacity="1" stroke-linecap="round" stroke-miterlimit="10" stroke-dasharray=""/><path fill="none" stroke="rgb(200,100,100)" paint-order="fill stroke markers" d=" M 240 160 C 240 115.817220016 275.817220016 80 320 80 C 364.182779984 80 400 115.817220016 400 160 C 400 204.182779984 364.182779984 240 320 240 C 275.817220016 240 240 204.182779984 240 160 Z" stroke-opacity="1" stroke-linecap="round" stroke-miterlimit="10" stroke-dasharray=""/><path fill="none" stroke="rgb(200,100,100)" paint-order="fill stroke markers" d=" M 240 240 C 240 195.817220016 275.817220016 160 320 160 C 364.182779984 160 400 195.817220016 400 240 C 400 284.182779984 364.182779984 320 320 320 C 275.817220016 320 240 284.182779984 240 240 Z" stroke-opacity="1" stroke-linecap="round" stroke-miterlimit="10" stroke-dasharray=""/><path fill="none" stroke="rgb(200,100,100)" paint-order="fill stroke markers" d=" M 240 320 C 240 275.817220016 275.817220016 240 320 240 C 364.182779984 240 400 275.817220016 400 320 C 400 364.182779984 364.182779984 400 320 400 C 275.817220016 400 240 364.182779984 240 320 Z" stroke-opacity="1" stroke-linecap="round" stroke-miterlimit="10" stroke-dasharray=""/><path fill="none" stroke="rgb(200,100,100)" paint-order="fill stroke markers" d=" M 240 400 C 240 355.817220016 275.817220016 320 320 320 C 364.182779984 320 400 355.817220016 400 400 C 400 444.182779984 364.182779984 480 320 480 C 275.817220016 480 240 444.182779984 240 400 Z" stroke-opacity="1" stroke-linecap="round" stroke-miterlimit="10" stroke-dasharray=""/><path fill="none" stroke="rgb(200,100,100)" paint-order="fill stroke markers" d=" M 320 0 C 320 -44.182779984 355.817220016 -80 400 -80 C 444.182779984 -80 480 -44.182779984 480 0 C 480 44.182779984 444.182779984 80 400 80 C 355.817220016 80 320 44.182779984 320 0 Z" stroke-opacity="1" stroke-linecap="round" stroke-miterlimit="10" stroke-dasharray=""/><path fill="none" stroke="rgb(200,100,100)" paint-order="fill stroke markers" d=" M 320 80 C 320 35.817220016 355.817220016 0 400 0 C 444.182779984 0 480 35.817220016 480 80 C 480 124.182779984 444.182779984 160 400 160 C 355.817220016 160 320 124.182779984 320 80 Z" stroke-opacity="1" stroke-linecap="round" stroke-miterlimit="10" stroke-dasharray=""/><path fill="none" stroke="rgb(200,100,100)" paint-order="fill stroke markers" d=" M 320 160 C 320 115.817220016 355.817220016 80 400 80 C 444.182779984 80 480 115.817220016 480 160 C 480 204.182779984 444.182779984 240 400 240 C 355.817220016 240 320 204.182779984 320 160 Z" stroke-opacity="1" stroke-linecap="round" stroke-miterlimit="10" stroke-dasharray=""/><path fill="none" stroke="rgb(200,100,100)" paint-order="fill stroke markers" d=" M 320 240 C 320 195.817220016 355.817220016 160 400 160 C 444.182779984 160 480 195.817220016 480 240 C 480 284.182779984 444.182779984 320 400 320 C 355.817220016 320 320 284.182779984 320 240 Z" stroke-opacity="1" stroke-linecap="round" stroke-miterlimit="10" stroke-dasharray=""/><path fill="none" stroke="rgb(200,100,100)" paint-order="fill stroke markers" d=" M 320 320 C 320 275.817220016 355.817220016 240 400 240 C 444.182779984 240 480 275.817220016 480 320 C 480 364.182779984 444.182779984 400 400 400 C 355.817220016 400 320 364.182779984 320 320 Z" stroke-opacity="1" stroke-linecap="round" stroke-miterlimit="10" stroke-dasharray=""/><path fill="none" stroke="rgb(200,100,100)" paint-order="fill stroke markers" d=" M 320 400 C 320 355.817220016 355.817220016 320 400 320 C 444.182779984 320 480 355.817220016 480 400 C 480 444.182779984 444.182779984 480 400 480 C 355.817220016 480 320 444.182779984 320 400 Z" stroke-opacity="1" stroke-linecap="round" stroke-miterlimit="10" stroke-dasharray=""/><g><path fill="none" stroke="rgb(200,100,100)" paint-order="fill stroke markers" d=" M 15.5 15.5 L 65.5 15.5 L 65.5 65.5 L 15.5 65.5 L 15.5 15.5 Z" stroke-opacity="1" stroke-linecap="round" stroke-miterlimit="10" stroke-dasharray=""/><path fill="none" stroke="rgb(200,100,100)" paint-order="fill stroke markers" d=" M 95.5 15.5 L 145.5 15.5 L 145.5 65.5 L 95.5 65.5 L 95.5 15.5 Z" stroke-opacity="1" stroke-linecap="round" stroke-miterlimit="10" stroke-dasharray=""/><path fill="none" stroke="rgb(200,100,100)" paint-order="fill stroke markers" d=" M 175.5 15.5 L 225.5 15.5 L 225.5 65.5 L 175.5 65.5 L 175.5 15.5 Z" stroke-opacity="1" stroke-linecap="round" stroke-miterlimit="10" stroke-dasharray=""/><path fill="none" stroke="rgb(200,100,100)" paint-order="fill stroke markers" d=" M 255.5 15.5 L 305.5 15.5 L 305.5 65.5 L 255.5 65.5 L 255.5 15.5 Z" stroke-opacity="1" stroke-linecap="round" stroke-miterlimit="10" stroke-dasharray=""/><path fill="none" stroke="rgb(200,100,100)" paint-order="fill stroke markers" d=" M 335.5 15.5 L 385.5 15.5 L 385.5 65.5 L 335.5 65.5 L 335.5 15.5 Z" stroke-opacity="1" stroke-linecap="round" stroke-miterlimit="10" stroke-dasharray=""/><path fill="none" stroke="rgb(200,100,100)" paint-order="fill stroke markers" d=" M 415.5 15.5 L 465.5 15.5 L 465.5 65.5 L 415.5 65.5 L 415.5 15.5 Z" stroke-opacity="1" stroke-linecap="round" stroke-miterlimit="10" stroke-dasharray=""/><path fill="none" stroke="rgb(200,100,100)" paint-order="fill stroke markers" d=" M 15.5 95.5 L 65.5 95.5 L 65.5 145.5 L 15.5 145.5 L 15.5 95.5 Z" stroke-opacity="1" stroke-linecap="round" stroke-miterlimit="10" stroke-dasharray=""/><path fill="none" stroke="rgb(200,100,100)" paint-order="fill stroke markers" d=" M 95.5 95.5 L 145.5 95.5 L 145.5 145.5 L 95.5 145.5 L 95.5 95.5 Z" stroke-opacity="1" stroke-linecap="round" stroke-miterlimit="10" stroke-dasharray=""/><path fill="none" stroke="rgb(200,100,100)" paint-order="fill stroke markers" d=" M 175.5 95.5 L 225.5 95.5 L 225.5 145.5 L 175.5 145.5 L 175.5 95.5 Z" stroke-opacity="1" stroke-linecap="round" stroke-miterlimit="10" stroke-dasharray=""/><path fill="none" stroke="rgb(200,100,100)" paint-order="fill stroke markers" d=" M 255.5 95.5 L 305.5 95.5 L 305.5 145.5 L 255.5 145.5 L 255.5 95.5 Z" stroke-opacity="1" stroke-linecap="round" stroke-miterlimit="10" stroke-dasharray=""/><path fill="none" stroke="rgb(200,100,100)" paint-order="fill stroke markers" d=" M 335.5 95.5 L 385.5 95.5 L 385.5 145.5 L 335.5 145.5 L 335.5 95.5 Z" stroke-opacity="1" stroke-linecap="round" stroke-miterlimit="10" stroke-dasharray=""/><path fill="none" stroke="rgb(200,100,100)" paint-order="fill stroke markers" d=" M 415.5 95.5 L 465.5 95.5 L 465.5 145.5 L 415.5 145.5 L 415.5 95.5 Z" stroke-opacity="1" stroke-linecap="round" stroke-miterlimit="10" stroke-dasharray=""/><path fill="none" stroke="rgb(200,100,100)" paint-order="fill stroke markers" d=" M 15.5 175.5 L 65.5 175.5 L 65.5 225.5 L 15.5 225.5 L 15.5 175.5 Z" stroke-opacity="1" stroke-linecap="round" stroke-miterlimit="10" stroke-dasharray=""/><path fill="none" stroke="rgb(200,100,100)" paint-order="fill stroke markers" d=" M 95.5 175.5 L 145.5 175.5 L 145.5 225.5 L 95.5 225.5 L 95.5 175.5 Z" stroke-opacity="1" stroke-linecap="round" stroke-miterlimit="10" stroke-dasharray=""/><path fill="none" stroke="rgb(200,100,100)" paint-order="fill stroke markers" d=" M 175.5 175.5 L 225.5 175.5 L 225.5 225.5 L 175.5 225.5 L 175.5 175.5 Z" stroke-opacity="1" stroke-linecap="round" stroke-miterlimit="10" stroke-dasharray=""/><path fill="none" stroke="rgb(200,100,100)" paint-order="fill stroke markers" d=" M 255.5 175.5 L 305.5 175.5 L 305.5 225.5 L 255.5 225.5 L 255.5 175.5 Z" stroke-opacity="1" stroke-linecap="round" stroke-miterlimit="10" stroke-dasharray=""/><path fill="none" stroke="rgb(200,100,100)" paint-order="fill stroke markers" d=" M 335.5 175.5 L 385.5 175.5 L 385.5 225.5 L 335.5 225.5 L 335.5 175.5 Z" stroke-opacity="1" stroke-linecap="round" stroke-miterlimit="10" stroke-dasharray=""/><path fill="none" stroke="rgb(200,100,100)" paint-order="fill stroke markers" d=" M 415.5 175.5 L 465.5 175.5 L 465.5 225.5 L 415.5 225.5 L 415.5 175.5 Z" stroke-opacity="1" stroke-linecap="round" stroke-miterlimit="10" stroke-dasharray=""/><path fill="none" stroke="rgb(200,100,100)" paint-order="fill stroke markers" d=" M 15.5 255.5 L 65.5 255.5 L 65.5 305.5 L 15.5 305.5 L 15.5 255.5 Z" stroke-opacity="1" stroke-linecap="round" stroke-miterlimit="10" stroke-dasharray=""/><path fill="none" stroke="rgb(200,100,100)" paint-order="fill stroke markers" d=" M 95.5 255.5 L 145.5 255.5 L 145.5 305.5 L 95.5 305.5 L 95.5 255.5 Z" stroke-opacity="1" stroke-linecap="round" stroke-miterlimit="10" stroke-dasharray=""/><path fill="none" stroke="rgb(200,100,100)" paint-order="fill stroke markers" d=" M 175.5 255.5 L 225.5 255.5 L 225.5 305.5 L 175.5 305.5 L 175.5 255.5 Z" stroke-opacity="1" stroke-linecap="round" stroke-miterlimit="10" stroke-dasharray=""/><path fill="none" stroke="rgb(200,100,100)" paint-order="fill stroke markers" d=" M 255.5 255.5 L 305.5 255.5 L 305.5 305.5 L 255.5 305.5 L 255.5 255.5 Z" stroke-opacity="1" stroke-linecap="round" stroke-miterlimit="10" stroke-dasharray=""/><path fill="none" stroke="rgb(200,100,100)" paint-order="fill stroke markers" d=" M 335.5 255.5 L 385.5 255.5 L 385.5 305.5 L 335.5 305.5 L 335.5 255.5 Z" stroke-opacity="1" stroke-linecap="round" stroke-miterlimit="10" stroke-dasharray=""/><path fill="none" stroke="rgb(200,100,100)" paint-order="fill stroke markers" d=" M 415.5 255.5 L 465.5 255.5 L 465.5 305.5 L 415.5 305.5 L 415.5 255.5 Z" stroke-opacity="1" stroke-linecap="round" stroke-miterlimit="10" stroke-dasharray=""/><path fill="none" stroke="rgb(200,100,100)" paint-order="fill stroke markers" d=" M 15.5 335.5 L 65.5 335.5 L 65.5 385.5 L 15.5 385.5 L 15.5 335.5 Z" stroke-opacity="1" stroke-linecap="round" stroke-miterlimit="10" stroke-dasharray=""/><path fill="none" stroke="rgb(200,100,100)" paint-order="fill stroke markers" d=" M 95.5 335.5 L 145.5 335.5 L 145.5 385.5 L 95.5 385.5 L 95.5 335.5 Z" stroke-opacity="1" stroke-linecap="round" stroke-miterlimit="10" stroke-dasharray=""/><path fill="none" stroke="rgb(200,100,100)" paint-order="fill stroke markers" d=" M 175.5 335.5 L 225.5 335.5 L 225.5 385.5 L 175.5 385.5 L 175.5 335.5 Z" stroke-opacity="1" stroke-linecap="round" stroke-miterlimit="10" stroke-dasharray=""/><path fill="none" stroke="rgb(200,100,100)" paint-order="fill stroke markers" d=" M 255.5 335.5 L 305.5 335.5 L 305.5 385.5 L 255.5 385.5 L 255.5 335.5 Z" stroke-opacity="1" stroke-linecap="round" stroke-miterlimit="10" stroke-dasharray=""/><path fill="none" stroke="rgb(200,100,100)" paint-order="fill stroke markers" d=" M 335.5 335.5 L 385.5 335.5 L 385.5 385.5 L 335.5 385.5 L 335.5 335.5 Z" stroke-opacity="1" stroke-linecap="round" stroke-miterlimit="10" stroke-dasharray=""/><path fill="none" stroke="rgb(200,100,100)" paint-order="fill stroke markers" d=" M 415.5 335.5 L 465.5 335.5 L 465.5 385.5 L 415.5 385.5 L 415.5 335.5 Z" stroke-opacity="1" stroke-linecap="round" stroke-miterlimit="10" stroke-dasharray=""/><path fill="none" stroke="rgb(200,100,100)" paint-order="fill stroke markers" d=" M 15.5 415.5 L 65.5 415.5 L 65.5 465.5 L 15.5 465.5 L 15.5 415.5 Z" stroke-opacity="1" stroke-linecap="round" stroke-miterlimit="10" stroke-dasharray=""/><path fill="none" stroke="rgb(200,100,100)" paint-order="fill stroke markers" d=" M 95.5 415.5 L 145.5 415.5 L 145.5 465.5 L 95.5 465.5 L 95.5 415.5 Z" stroke-opacity="1" stroke-linecap="round" stroke-miterlimit="10" stroke-dasharray=""/><path fill="none" stroke="rgb(200,100,100)" paint-order="fill stroke markers" d=" M 175.5 415.5 L 225.5 415.5 L 225.5 465.5 L 175.5 465.5 L 175.5 415.5 Z" stroke-opacity="1" stroke-linecap="round" stroke-miterlimit="10" stroke-dasharray=""/><path fill="none" stroke="rgb(200,100,100)" paint-order="fill stroke markers" d=" M 255.5 415.5 L 305.5 415.5 L 305.5 465.5 L 255.5 465.5 L 255.5 415.5 Z" stroke-opacity="1" stroke-linecap="round" stroke-miterlimit="10" stroke-dasharray=""/><path fill="none" stroke="rgb(200,100,100)" paint-order="fill stroke markers" d=" M 335.5 415.5 L 385.5 415.5 L 385.5 465.5 L 335.5 465.5 L 335.5 415.5 Z" stroke-opacity="1" stroke-linecap="round" stroke-miterlimit="10" stroke-dasharray=""/><path fill="none" stroke="rgb(200,100,100)" paint-order="fill stroke markers" d=" M 415.5 415.5 L 465.5 415.5 L 465.5 465.5 L 415.5 465.5 L 415.5 415.5 Z" stroke-opacity="1" stroke-linecap="round" stroke-miterlimit="10" stroke-dasharray=""/></g><path fill="none" stroke="rgb(200,100,100)" paint-order="fill stroke markers" d=" M -20 0 C -20 -11.045694996 -11.045694996 -20 0 -20 C 11.045694996 -20 20 -11.045694996 20 0 C 20 11.045694996 11.045694996 20 0 20 C -11.045694996 20 -20 11.045694996 -20 0 Z" stroke-opacity="1" stroke-linecap="round" stroke-miterlimit="10" stroke-dasharray=""/><path fill="none" stroke="rgb(200,100,100)" paint-order="fill stroke markers" d=" M 60 0 C 60 -11.045694996 68.954305004 -20 80 -20 C 91.045694996 -20 100 -11.045694996 100 0 C 100 11.045694996 91.045694996 20 80 20 C 68.954305004 20 60 11.045694996 60 0 Z" stroke-opacity="1" stroke-linecap="round" stroke-miterlimit="10" stroke-dasharray=""/><path fill="none" stroke="rgb(200,100,100)" paint-order="fill stroke markers" d=" M 140 0 C 140 -11.045694996 148.954305004 -20 160 -20 C 171.045694996 -20 180 -11.045694996 180 0 C 180 11.045694996 171.045694996 20 160 20 C 148.954305004 20 140 11.045694996 140 0 Z" stroke-opacity="1" stroke-linecap="round" stroke-miterlimit="10" stroke-dasharray=""/><path fill="none" stroke="rgb(200,100,100)" paint-order="fill stroke markers" d=" M 220 0 C 220 -11.045694996 228.954305004 -20 240 -20 C 251.045694996 -20 260 -11.045694996 260 0 C 260 11.045694996 251.045694996 20 240 20 C 228.954305004 20 220 11.045694996 220 0 Z" stroke-opacity="1" stroke-linecap="round" stroke-miterlimit="10" stroke-dasharray=""/><path fill="none" stroke="rgb(200,100,100)" paint-order="fill stroke markers" d=" M 300 0 C 300 -11.045694996 308.954305004 -20 320 -20 C 331.045694996 -20 340 -11.045694996 340 0 C 340 11.045694996 331.045694996 20 320 20 C 308.954305004 20 300 11.045694996 300 0 Z" stroke-opacity="1" stroke-linecap="round" stroke-miterlimit="10" stroke-dasharray=""/><path fill="none" stroke="rgb(200,100,100)" paint-order="fill stroke markers" d=" M 380 0 C 380 -11.045694996 388.954305004 -20 400 -20 C 411.045694996 -20 420 -11.045694996 420 0 C 420 11.045694996 411.045694996 20 400 20 C 388.954305004 20 380 11.045694996 380 0 Z" stroke-opacity="1" stroke-linecap="round" stroke-miterlimit="10" stroke-dasharray=""/><path fill="none" stroke="rgb(200,100,100)" paint-order="fill stroke markers" d=" M -20 80 C -20 68.954305004 -11.045694996 60 0 60 C 11.045694996 60 20 68.954305004 20 80 C 20 91.045694996 11.045694996 100 0 100 C -11.045694996 100 -20 91.045694996 -20 80 Z" stroke-opacity="1" stroke-linecap="round" stroke-miterlimit="10" stroke-dasharray=""/><path fill="none" stroke="rgb(200,100,100)" paint-order="fill stroke markers" d=" M 60 80 C 60 68.954305004 68.954305004 60 80 60 C 91.045694996 60 100 68.954305004 100 80 C 100 91.045694996 91.045694996 100 80 100 C 68.954305004 100 60 91.045694996 60 80 Z" stroke-opacity="1" stroke-linecap="round" stroke-miterlimit="10" stroke-dasharray=""/><path fill="none" stroke="rgb(200,100,100)" paint-order="fill stroke markers" d=" M 140 80 C 140 68.954305004 148.954305004 60 160 60 C 171.045694996 60 180 68.954305004 180 80 C 180 91.045694996 171.045694996 100 160 100 C 148.954305004 100 140 91.045694996 140 80 Z" stroke-opacity="1" stroke-linecap="round" stroke-miterlimit="10" stroke-dasharray=""/><path fill="none" stroke="rgb(200,100,100)" paint-order="fill stroke markers" d=" M 220 80 C 220 68.954305004 228.954305004 60 240 60 C 251.045694996 60 260 68.954305004 260 80 C 260 91.045694996 251.045694996 100 240 100 C 228.954305004 100 220 91.045694996 220 80 Z" stroke-opacity="1" stroke-linecap="round" stroke-miterlimit="10" stroke-dasharray=""/><path fill="none" stroke="rgb(200,100,100)" paint-order="fill stroke markers" d=" M 300 80 C 300 68.954305004 308.954305004 60 320 60 C 331.045694996 60 340 68.954305004 340 80 C 340 91.045694996 331.045694996 100 320 100 C 308.954305004 100 300 91.045694996 300 80 Z" stroke-opacity="1" stroke-linecap="round" stroke-miterlimit="10" stroke-dasharray=""/><path fill="none" stroke="rgb(200,100,100)" paint-order="fill stroke markers" d=" M 380 80 C 380 68.954305004 388.954305004 60 400 60 C 411.045694996 60 420 68.954305004 420 80 C 420 91.045694996 411.045694996 100 400 100 C 388.954305004 100 380 91.045694996 380 80 Z" stroke-opacity="1" stroke-linecap="round" stroke-miterlimit="10" stroke-dasharray=""/><path fill="none" stroke="rgb(200,100,100)" paint-order="fill stroke markers" d=" M -20 160 C -20 148.954305004 -11.045694996 140 0 140 C 11.045694996 140 20 148.954305004 20 160 C 20 171.045694996 11.045694996 180 0 180 C -11.045694996 180 -20 171.045694996 -20 160 Z" stroke-opacity="1" stroke-linecap="round" stroke-miterlimit="10" stroke-dasharray=""/><path fill="none" stroke="rgb(200,100,100)" paint-order="fill stroke markers" d=" M 60 160 C 60 148.954305004 68.954305004 140 80 140 C 91.045694996 140 100 148.954305004 100 160 C 100 171.045694996 91.045694996 180 80 180 C 68.954305004 180 60 171.045694996 60 160 Z" stroke-opacity="1" stroke-linecap="round" stroke-miterlimit="10" stroke-dasharray=""/><path fill="none" stroke="rgb(200,100,100)" paint-order="fill stroke markers" d=" M 140 160 C 140 148.954305004 148.954305004 140 160 140 C 171.045694996 140 180 148.954305004 180 160 C 180 171.045694996 171.045694996 180 160 180 C 148.954305004 180 140 171.045694996 140 160 Z" stroke-opacity="1" stroke-linecap="round" stroke-miterlimit="10" stroke-dasharray=""/><path fill="none" stroke="rgb(200,100,100)" paint-order="fill stroke markers" d=" M 220 160 C 220 148.954305004 228.954305004 140 240 140 C 251.045694996 140 260 148.954305004 260 160 C 260 171.045694996 251.045694996 180 240 180 C 228.954305004 180 220 171.045694996 220 160 Z" stroke-opacity="1" stroke-linecap="round" stroke-miterlimit="10" stroke-dasharray=""/><path fill="none" stroke="rgb(200,100,100)" paint-order="fill stroke markers" d=" M 300 160 C 300 148.954305004 308.954305004 140 320 140 C 331.045694996 140 340 148.954305004 340 160 C 340 171.045694996 331.045694996 180 320 180 C 308.954305004 180 300 171.045694996 300 160 Z" stroke-opacity="1" stroke-linecap="round" stroke-miterlimit="10" stroke-dasharray=""/><path fill="none" stroke="rgb(200,100,100)" paint-order="fill stroke markers" d=" M 380 160 C 380 148.954305004 388.954305004 140 400 140 C 411.045694996 140 420 148.954305004 420 160 C 420 171.045694996 411.045694996 180 400 180 C 388.954305004 180 380 171.045694996 380 160 Z" stroke-opacity="1" stroke-linecap="round" stroke-miterlimit="10" stroke-dasharray=""/><path fill="none" stroke="rgb(200,100,100)" paint-order="fill stroke markers" d=" M -20 240 C -20 228.954305004 -11.045694996 220 0 220 C 11.045694996 220 20 228.954305004 20 240 C 20 251.045694996 11.045694996 260 0 260 C -11.045694996 260 -20 251.045694996 -20 240 Z" stroke-opacity="1" stroke-linecap="round" stroke-miterlimit="10" stroke-dasharray=""/><path fill="none" stroke="rgb(200,100,100)" paint-order="fill stroke markers" d=" M 60 240 C 60 228.954305004 68.954305004 220 80 220 C 91.045694996 220 100 228.954305004 100 240 C 100 251.045694996 91.045694996 260 80 260 C 68.954305004 260 60 251.045694996 60 240 Z" stroke-opacity="1" stroke-linecap="round" stroke-miterlimit="10" stroke-dasharray=""/><path fill="none" stroke="rgb(200,100,100)" paint-order="fill stroke markers" d=" M 140 240 C 140 228.954305004 148.954305004 220 160 220 C 171.045694996 220 180 228.954305004 180 240 C 180 251.045694996 171.045694996 260 160 260 C 148.954305004 260 140 251.045694996 140 240 Z" stroke-opacity="1" stroke-linecap="round" stroke-miterlimit="10" stroke-dasharray=""/><path fill="none" stroke="rgb(200,100,100)" paint-order="fill stroke markers" d=" M 220 240 C 220 228.954305004 228.954305004 220 240 220 C 251.045694996 220 260 228.954305004 260 240 C 260 251.045694996 251.045694996 260 240 260 C 228.954305004 260 220 251.045694996 220 240 Z" stroke-opacity="1" stroke-linecap="round" stroke-miterlimit="10" stroke-dasharray=""/><path fill="none" stroke="rgb(200,100,100)" paint-order="fill stroke markers" d=" M 300 240 C 300 228.954305004 308.954305004 220 320 220 C 331.045694996 220 340 228.954305004 340 240 C 340 251.045694996 331.045694996 260 320 260 C 308.954305004 260 300 251.045694996 300 240 Z" stroke-opacity="1" stroke-linecap="round" stroke-miterlimit="10" stroke-dasharray=""/><path fill="none" stroke="rgb(200,100,100)" paint-order="fill stroke markers" d=" M 380 240 C 380 228.954305004 388.954305004 220 400 220 C 411.045694996 220 420 228.954305004 420 240 C 420 251.045694996 411.045694996 260 400 260 C 388.954305004 260 380 251.045694996 380 240 Z" stroke-opacity="1" stroke-linecap="round" stroke-miterlimit="10" stroke-dasharray=""/><path fill="none" stroke="rgb(200,100,100)" paint-order="fill stroke markers" d=" M -20 320 C -20 308.954305004 -11.045694996 300 0 300 C 11.045694996 300 20 308.954305004 20 320 C 20 331.045694996 11.045694996 340 0 340 C -11.045694996 340 -20 331.045694996 -20 320 Z" stroke-opacity="1" stroke-linecap="round" stroke-miterlimit="10" stroke-dasharray=""/><path fill="none" stroke="rgb(200,100,100)" paint-order="fill stroke markers" d=" M 60 320 C 60 308.954305004 68.954305004 300 80 300 C 91.045694996 300 100 308.954305004 100 320 C 100 331.045694996 91.045694996 340 80 340 C 68.954305004 340 60 331.045694996 60 320 Z" stroke-opacity="1" stroke-linecap="round" stroke-miterlimit="10" stroke-dasharray=""/><path fill="none" stroke="rgb(200,100,100)" paint-order="fill stroke markers" d=" M 140 320 C 140 308.954305004 148.954305004 300 160 300 C 171.045694996 300 180 308.954305004 180 320 C 180 331.045694996 171.045694996 340 160 340 C 148.954305004 340 140 331.045694996 140 320 Z" stroke-opacity="1" stroke-linecap="round" stroke-miterlimit="10" stroke-dasharray=""/><path fill="none" stroke="rgb(200,100,100)" paint-order="fill stroke markers" d=" M 220 320 C 220 308.954305004 228.954305004 300 240 300 C 251.045694996 300 260 308.954305004 260 320 C 260 331.045694996 251.045694996 340 240 340 C 228.954305004 340 220 331.045694996 220 320 Z" stroke-opacity="1" stroke-linecap="round" stroke-miterlimit="10" stroke-dasharray=""/><path fill="none" stroke="rgb(200,100,100)" paint-order="fill stroke markers" d=" M 300 320 C 300 308.954305004 308.954305004 300 320 300 C 331.045694996 300 340 308.954305004 340 320 C 340 331.045694996 331.045694996 340 320 340 C 308.954305004 340 300 331.045694996 300 320 Z" stroke-opacity="1" stroke-linecap="round" stroke-miterlimit="10" stroke-dasharray=""/><path fill="none" stroke="rgb(200,100,100)" paint-order="fill stroke markers" d=" M 380 320 C 380 308.954305004 388.954305004 300 400 300 C 411.045694996 300 420 308.954305004 420 320 C 420 331.045694996 411.045694996 340 400 340 C 388.954305004 340 380 331.045694996 380 320 Z" stroke-opacity="1" stroke-linecap="round" stroke-miterlimit="10" stroke-dasharray=""/><path fill="none" stroke="rgb(200,100,100)" paint-order="fill stroke markers" d=" M -20 400 C -20 388.954305004 -11.045694996 380 0 380 C 11.045694996 380 20 388.954305004 20 400 C 20 411.045694996 11.045694996 420 0 420 C -11.045694996 420 -20 411.045694996 -20 400 Z" stroke-opacity="1" stroke-linecap="round" stroke-miterlimit="10" stroke-dasharray=""/><path fill="none" stroke="rgb(200,100,100)" paint-order="fill stroke markers" d=" M 60 400 C 60 388.954305004 68.954305004 380 80 380 C 91.045694996 380 100 388.954305004 100 400 C 100 411.045694996 91.045694996 420 80 420 C 68.954305004 420 60 411.045694996 60 400 Z" stroke-opacity="1" stroke-linecap="round" stroke-miterlimit="10" stroke-dasharray=""/><path fill="none" stroke="rgb(200,100,100)" paint-order="fill stroke markers" d=" M 140 400 C 140 388.954305004 148.954305004 380 160 380 C 171.045694996 380 180 388.954305004 180 400 C 180 411.045694996 171.045694996 420 160 420 C 148.954305004 420 140 411.045694996 140 400 Z" stroke-opacity="1" stroke-linecap="round" stroke-miterlimit="10" stroke-dasharray=""/><path fill="none" stroke="rgb(200,100,100)" paint-order="fill stroke markers" d=" M 220 400 C 220 388.954305004 228.954305004 380 240 380 C 251.045694996 380 260 388.954305004 260 400 C 260 411.045694996 251.045694996 420 240 420 C 228.954305004 420 220 411.045694996 220 400 Z" stroke-opacity="1" stroke-linecap="round" stroke-miterlimit="10" stroke-dasharray=""/><path fill="none" stroke="rgb(200,100,100)" paint-order="fill stroke markers" d=" M 300 400 C 300 388.954305004 308.954305004 380 320 380 C 331.045694996 380 340 388.954305004 340 400 C 340 411.045694996 331.045694996 420 320 420 C 308.954305004 420 300 411.045694996 300 400 Z" stroke-opacity="1" stroke-linecap="round" stroke-miterlimit="10" stroke-dasharray=""/><path fill="none" stroke="rgb(200,100,100)" paint-order="fill stroke markers" d=" M 380 400 C 380 388.954305004 388.954305004 380 400 380 C 411.045694996 380 420 388.954305004 420 400 C 420 411.045694996 411.045694996 420 400 420 C 388.954305004 420 380 411.045694996 380 400 Z" stroke-opacity="1" stroke-linecap="round" stroke-miterlimit="10" stroke-dasharray=""/></g></svg>