<?xml version="1.0" encoding="utf-8"?>
<!-- Generator: Adobe Illustrator 24.2.0, SVG Export Plug-In . SVG Version: 6.00 Build 0)  -->
<svg version="1.1" id="Layer_1" xmlns="http://www.w3.org/2000/svg" xmlns:xlink="http://www.w3.org/1999/xlink" x="0px" y="0px"
	 viewBox="0 0 612 792" style="enable-background:new 0 0 612 792;" xml:space="preserve">
<g>
	<path d="M264.3,391.2c2.7-4.1,5.4-8,8-12c0.3-0.5,0.4-1.6,0.1-2.2c-0.9-2.2-1.8-4.3-3-6.3c-0.4-0.6-1.5-1.3-2.2-1.2
		c-2.2,0.3-3.6-0.6-4.8-2.3c-1.2-1.8-2.7-3.4-3.8-5.2c-0.5-0.9-0.7-2.4-0.3-3.2c0.4-0.8,1.9-1.4,2.9-1.3c7.9,0.7,15.7,1.6,23.6,2.5
		c2,0.2,2.7,1.5,2.8,3.5c0,2.1-0.6,3.6-2.8,4c-2.3,0.4-4.6,0.6-7.3,1c3.8,8.3,7.5,16.5,11.3,24.8c11.2-5.7,22.3-11.2,33.4-16.8
		c-0.8-2.2-1.6-4.3-2.3-6.4c-1.1-3.2,0.4-5.5,3.8-5.7c3.9-0.1,7.8,0.1,11.7-0.1c1.1,0,2.4-0.7,3.1-1.4c2.9-3,5.5-6.3,8.3-9.4
		c2-2.2,4.2-2.5,6.1-0.9c1.8,1.5,1.8,3.9-0.1,6.2c-3.4,4-6.7,8.1-10.3,11.9c-1.1,1.1-3,1.6-4.6,1.8c-2.5,0.3-5.1,0.1-8,0.1
		c0.2,0.8,0.3,1.4,0.5,2c1.6,4.4,3.3,8.7,4.9,13.1c0.6,1.6,1.3,2.1,3.1,1.8c18.6-3.1,35.5,14.4,31.9,33c-2.5,13.1-14,22.6-27.3,22.7
		c-13.3,0-24.9-9.4-27.3-22.6c-2.2-11.9,2.1-21.2,11.6-28.4c0.5-0.4,1.1-0.8,1.7-1.2c-0.8-2.2-1.6-4.4-2.5-6.9
		c-1.2,1.4-2.3,2.6-3.4,3.8c-5.6,6.5-11.3,13-16.8,19.5c-0.6,0.7-0.9,2-0.6,2.7c1.8,5,0,10.3-4.5,13c-4.5,2.6-10.5,1.9-13.4-2.5
		c-1.9-2.8-4-2.6-6.7-2.4c-1.5,9.9-6.4,17.4-15.4,21.9c-6.7,3.3-13.7,3.9-20.9,1.6c-14.5-4.6-22.5-20.1-18-34.8
		C230.5,395.3,245.9,384.4,264.3,391.2z M339,397.7c0.7,1.7,1.3,3.4,2,5.1c1.6,4.1,3.2,8.2,4.7,12.4c0.9,2.5-0.1,4.7-2.3,5.6
		c-2,0.8-4-0.2-5.1-2.7c-0.3-0.6-0.5-1.2-0.7-1.9c-2-5.2-4.1-10.4-6.1-15.6c-8.4,5.2-11.2,16.2-6.6,25.2c4.6,9,15.7,13.1,25,9.2
		c9.7-4.1,14.1-14.5,10.7-24.9C357.6,401.4,347.7,395.6,339,397.7z M271.9,419.9c-6.2,0-12.2,0-18.2,0c-2,0-3.6-0.7-4.6-2.4
		c-1-1.7-0.3-3.2,0.7-4.7c2.7-4,5.3-8.1,8-12.1c0.5-0.7,0.9-1.5,1.4-2.3c-10.3-4.1-21.7,1.9-25.3,13c-3.3,10.4,3.7,22.1,14.6,24.5
		C259.5,438.5,270.1,431.3,271.9,419.9z M270.6,395.8c4.1,3.4,6.8,7.4,8.3,12.2c1.2,3.7,1.1,3.8,5.1,3.5c1.9-0.1,3.1-1.9,2.4-3.6
		c-3.1-6.9-6.3-13.7-9.6-20.8C274.7,390,272.7,392.8,270.6,395.8z M295.1,420.6c2.9,0,5-2.2,5-5.1c0-2.7-2.5-5.1-5.1-5.1
		c-2.7,0-5,2.4-5,5.2C290,418.5,292.2,420.7,295.1,420.6z M292.1,400.6c0.6,1.2,1,2.3,1.5,3.3c0.7,1.4,3.9,2,4.9,0.8
		c3.6-4,7-8.1,10.5-12.2c-0.1-0.1-0.2-0.2-0.3-0.4C303.2,395,297.6,397.8,292.1,400.6z M272.1,411.4c-2-3.3-3.7-6-5.6-9.1
		c-2.2,3.2-4,6-6.1,9.1C264.2,411.4,267.7,411.4,272.1,411.4z"/>
</g>
</svg>
