<?xml version="1.0" encoding="utf-8"?>
<!-- Generator: Adobe Illustrator 24.2.0, SVG Export Plug-In . SVG Version: 6.00 Build 0)  -->
<svg version="1.1" xmlns="http://www.w3.org/2000/svg" xmlns:xlink="http://www.w3.org/1999/xlink" x="0px" y="0px"
	 viewBox="0 0 792 612" style="enable-background:new 0 0 792 612;" xml:space="preserve">
<style type="text/css">
	.st0{fill:none;stroke:#EC1E24;stroke-width:1.000000e-03;stroke-miterlimit:10;}
	.st1{fill:none;stroke:#231F20;stroke-miterlimit:10;}
	.st2{fill:none;stroke:#231F20;stroke-miterlimit:10;stroke-dasharray:6.1092,6.1092;}
	.st3{fill:none;stroke:#000000;stroke-width:0.5;stroke-miterlimit:10;}
	.st4{fill:none;stroke:#000000;stroke-width:0.5;stroke-linecap:round;stroke-linejoin:round;stroke-miterlimit:10;}
</style>
<g id="svg15158" inkscape:version="0.91 r13725" sodipodi:docname="AxiDraw_First.svg" xmlns:cc="http://creativecommons.org/ns#" xmlns:dc="http://purl.org/dc/elements/1.1/" xmlns:inkscape="http://www.inkscape.org/namespaces/inkscape" xmlns:rdf="http://www.w3.org/1999/02/22-rdf-syntax-ns#" xmlns:sodipodi="http://sodipodi.sourceforge.net/DTD/sodipodi-0.dtd" xmlns:svg="http://www.w3.org/2000/svg">
</g>
<g id="Layer_2">
</g>
<g id="Layer_3">
	<g>
		<path class="st0" d="M57.9,272v21.2c-0.1,0-0.1,0-0.2,0c-7.1,0-12.9,5.8-12.9,12.9c0,7.1,5.8,12.9,12.9,12.9c0.1,0,0.1,0,0.2,0
			v21.2c0,3.7,3,6.7,6.7,6.7h2.5c3.7,0,6.7-3,6.7-6.7V272c0-3.7-3-6.7-6.7-6.7h-2.5C60.9,265.3,57.9,268.3,57.9,272z"/>
		<path class="st0" d="M734.1,340.2V319c0.1,0,0.1,0,0.2,0c7.1,0,12.9-5.8,12.9-12.9c0-7.1-5.8-12.9-12.9-12.9c-0.1,0-0.1,0-0.2,0
			V272c0-3.7-3-6.7-6.7-6.7h-2.5c-3.7,0-6.7,3-6.7,6.7v68.2c0,3.7,3,6.7,6.7,6.7h2.5C731.1,346.9,734.1,343.9,734.1,340.2z"/>
		<path class="st0" d="M75.5,194.7v16.8H59.6c-22.9,0-41.6,18.7-41.6,41.6V359c0,22.9,18.7,41.6,41.6,41.6h15.9v16.8
			c0,22.9,18.7,41.6,41.6,41.6h174.4h16.1h367.2c22.9,0,41.6-18.7,41.6-41.6v-16.8h15.9c22.9,0,41.6-18.7,41.6-41.6V253.2
			c0-22.9-18.7-41.6-41.6-41.6h-15.9v-16.8c0-22.9-18.7-41.6-41.6-41.6H307.6h-16.1H117.2C94.3,153.1,75.5,171.8,75.5,194.7z"/>
		<g>
			<g>
				<line class="st1" x1="396" y1="458.3" x2="396" y2="455.3"/>
				<line class="st2" x1="396" y1="449.1" x2="396" y2="159"/>
				<line class="st1" x1="396" y1="155.9" x2="396" y2="152.9"/>
			</g>
		</g>
		<g>
			<g>
				<path class="st3" d="M88.9,289c0-34.6,0-69.3,0-103.9c0.5,0,1,0,1.4,0c0.3,0.2,0.6,0.3,1,0.5c10.6,3.9,21.1,7.7,31.7,11.6
					c0.4,0.1,0.9,0,1.3-0.2c3-1.3,5.9-3,8.9-4c9.8-3.4,19.3-2.5,28.1,3.3c3.1,2,5.4,4.7,6.8,8.2c1.2,3,1.3,6.1,0,9.2
					c3.6,1.3,7,2.6,10.5,3.9c1.6,0.6,2,1.1,2,2.8c0,8.2,0,16.5,0,24.7c0,23.6,0,47.3-0.1,70.9c0,6.6-0.2,13.3-1.9,19.8
					c-1.1,4.2-1.9,8.5-2.9,12.7c-0.2,0.8-0.3,1.7-1.4,1.8c-1,0.1-1.2-0.7-1.6-1.4c-2-3.2-3.4-6.6-4.6-10.1c-0.8-2.6-1.7-5.2-2.6-7.7
					c-0.8-2.2-1.7-4.4-2.6-6.7c-2,2.4-2.9,5.4-2.3,8.1c1.2,5,2.6,9.9,4,14.8c1.5,5.2,1.2,10.2-1.3,15.1c-1.8,3.5-3.4,7-5.3,10.5
					c-2.9,5.4-3.7,11.1-2.5,17.1c0.6,3.3,1.4,6.5,1.2,9.8c0,0.5-0.3,1.3-0.7,1.4c-0.4,0.1-1.2-0.2-1.5-0.6c-1.4-1.9-2.9-3.8-4.1-5.9
					c-5.6-9-9.8-18.5-9.7-29.4c0-2.4-1-4.4-2.9-5.9c-0.8-0.6-1.6-0.6-2.4,0.1c-1.6,1.4-2.2,3-1.7,5.1c2.6,10.7,5.1,21.4,7.7,32
					c1.1,4.4,1.7,8.7,0.3,13.2c-1.9,6-5.1,11.2-8.9,16c-0.3,0-0.6,0-1,0c-0.2-0.4-0.5-0.7-0.6-1.1c-0.2-1.9-0.4-3.8-0.3-5.7
					c0.3-5.4-0.3-10.8-1.9-16c-3-9.5-7.6-18.2-13.1-26.4c-8.1-12.1-10.3-25.3-8.1-39.5c0.8-5.4,2-10.8,3.1-16.2
					c0.3-1.4,0.2-2.8-0.9-3.9c-1-1-2.2-1.9-3.2-2.8c-2.2,2.2-3.3,5.2-3.1,8.1c0.5,5.7-2.6,11.3-7.7,13.8c-1.4,0.7-2,0.3-2-1.3
					c0-2.5,0.1-5,0-7.6c-0.1-6.5-1.5-12.8-2.5-19.1c-1-6.3-2.7-12.5-2.6-19C89.1,289.2,89,289.1,88.9,289z M133.4,421.7
					c2.6-3.1,4.5-6.6,5.9-10.3c1.6-4.1,1.8-8.2,0.7-12.6c-2.8-11.1-5.3-22.2-8.1-33.3c-0.7-3-0.1-5.3,2.2-7.4
					c1.7-1.5,3.4-1.6,5.2-0.2c2.7,2,3.6,4.9,3.7,8.1c0.1,4.1,0.6,8.2,1.9,12.1c2.2,6.8,5.8,13,9.6,18.9c0,0.1,0.2,0.1,0.3,0.1
					c0-0.4,0-0.9,0-1.2c-0.2-1.1-0.3-2.2-0.6-3.3c-1.7-7.2-1.4-14.2,2.2-20.8c2-3.8,3.8-7.6,5.7-11.5c1.8-3.8,2.1-7.7,0.9-11.8
					c-1.3-4.6-2.6-9.2-3.9-13.8c-1.4-4.9-0.1-9.1,3-12.8c0.9-1,1.7-0.9,2.2,0.3c1,2.2,1.9,4.5,2.8,6.8c1.6,4.5,3.1,9.1,4.8,13.6
					c0.5,1.4,1.3,2.6,1.9,4c0.1,0,0.3-0.1,0.4-0.1c1.2-6,2.7-11.9,3.6-17.9c0.7-4.6,0.6-9.4,0.7-14.1c0.1-7.4,0.1-14.8,0.1-22.2
					c0-0.4,0-0.8,0-1.4c-0.5,0.2-0.9,0.3-1.3,0.4c-5.9,2-11.9,3.9-17.8,6.1c-8.3,3-16.9,4.9-25.7,5.2c-7,0.2-13.9,0.3-20.9,0.4
					c-2,0-3.6,0.7-4.7,2.6c-0.8,1.4-2.1,2-3.6,2c-2.6,0.1-4.5-1.2-5.5-3.8c-1.8-4.4-3.6-8.8-5.3-13.2c-1-2.6-2-5.3-2.8-7.3
					c0,2.4-0.3,5.5,0.1,8.5c0.8,6.5,2,13,3.1,19.5c1.2,7.1,2.4,14.1,1.9,21.3c0,0.4,0,0.8,0,1.4c0.5-0.4,0.9-0.6,1.2-0.8
					c3.3-2.7,4.8-6.2,4.5-10.5c-0.3-4,1.3-7.2,3.9-10.1c0.6-0.6,1.2-0.8,1.9-0.2c1.3,1.1,2.7,2.2,3.9,3.3c1.4,1.3,2,3.1,1.7,5
					c-0.2,1.5-0.5,3-0.8,4.5c-1,6-2.4,11.9-3,17.9c-1,11,1.2,21.3,7.2,30.7c4.1,6.3,7.6,12.8,10.9,19.6c3.4,7,5.5,14.2,5.7,22
					C133.4,417.4,133.4,419.5,133.4,421.7z M91.1,187.6c0,31.1,0,62,0,93c0.6-2.6,2-3.7,4.8-3.4c0.9,0.1,1.8,0.4,2.7,0.6
					c14.1,4.1,28.5,6.7,43.2,6.3c1.9,0,3.8-0.1,5.7-0.2c-1.4-1-2.9-1.8-4.3-2.7c-11.6-6.6-21.5-15.1-28.4-26.7
					c-6.4-10.6-9.3-21.9-6.8-34.3c1.7-8.4,5.2-15.7,12-21.3c0.2-0.2,0.3-0.4,0.6-0.7C110.6,194.8,100.9,191.2,91.1,187.6z
					 M165.6,251.8c2.5,2.9,4,6.1,4.9,9.6c1,4.1,0.6,8-2.6,11.1c-3.1,3-6.9,3.5-10.9,2.8c-1.9-0.3-3.8-0.8-5.7-1.2
					c8.5,5.7,17.6,9.8,27.5,12.6c0-0.5,0-0.9,0-1.3c0-9.4-0.1-18.9-0.1-28.3c0-11.8,0-23.7,0-35.5c0-2,0-2-1.9-2.7
					c-2.9-1.1-5.8-2.1-8.5-3.1c-1.3,1.1-2.4,2.3-3.6,3.1c-1.3,0.8-2.8,1.3-4.2,1.9c0.2,0.1,0.5,0.2,0.7,0.2c1.7,0.5,3.5,0.9,5.2,1.5
					c1.6,0.5,2.5,1.5,2.4,2.9c-0.3,2.9-0.4,6-3.2,8c0.2,0.3,0.4,0.5,0.5,0.7c1.4,2,3,3.9,4.3,5.9c2.5,4.1,1.2,8.6-3,10.9
					C166.7,251.3,166.2,251.5,165.6,251.8z M104.3,302.4c0.5-0.4,0.7-0.6,0.9-0.8c1.8-2.1,4-3.2,6.8-3.3c4.7-0.1,9.3-0.2,14-0.4
					c5.8-0.3,11.7-0.6,17.5-1.1c6.5-0.6,12.7-2.8,18.8-5c2.5-0.9,4.9-1.8,7.5-2.8c-3.3-1.5-6.3-2.9-9.5-4.4c1.1,2,1,2.3-1.1,2.9
					c-0.8,0.2-1.7,0.5-2.6,0.6c-6.6,1.2-13.3,1.5-20.1,1.2c-12.9-0.6-25.6-2.7-38-6.1c-0.6-0.2-1.2-0.2-2.1-0.4
					C99,289.4,101.6,295.8,104.3,302.4z M135.9,250.8c0,0.9-0.1,1.5,0,2.1c0.3,2.8,1.9,5,3.6,7.1c5.3,6.7,12.1,10.4,20.7,10.5
					c3.5,0.1,5.8-2.3,5.8-5.7c0.1-2.6-1.1-4.6-2.6-6.5c-2-2.5-4.1-5-6.1-7.6c-0.8-1-0.6-1.7,0.7-2c1.9-0.4,3.9-0.7,5.7-1.2
					c2.5-0.8,3.3-2.8,2.2-5.2c-1.3-2.8-3.9-4.4-6.1-6.4c-0.6,3.4-1.6,4.5-4.2,4.9c-4.9,0.7-9.9,0.6-14.8-0.5c-1.5-0.3-3-0.6-4.4-1
					c0.3,0.4,0.7,0.6,1.1,0.7c4.7,2.1,9.4,4.1,14,6.2c4,1.9,6.1,5,6,9.5c-0.1,3.5-2.1,5.4-5.6,5.3c-6.9-0.2-12-3.3-15.5-9.2
					C136.3,251.6,136.2,251.3,135.9,250.8z M140,195.3c-0.3,0-0.6,0-0.9,0.1c-10.9,2.3-19.3,8.2-24,18.4
					c-4.7,10.4-4.1,20.9,0.4,31.2c6.9,15.6,18.8,26.3,33.6,34c0.1,0,0.2,0,0.4,0c-0.1-0.1-0.2-0.2-0.2-0.2c-0.3-0.2-0.7-0.4-1-0.6
					c-10.3-6.2-18.4-14.5-24.3-25c-6-10.8-8-22.3-5.1-34.5c1.5-6.4,4.3-12,9.3-16.4C131.7,199.2,135.6,196.9,140,195.3z M129.9,208
					c-0.1,0.1-0.1,0.3-0.2,0.4c-5.9,7-8,15.1-7.2,24.1c0.5,5.6,2.4,10.9,4.6,16.1c1.6,3.8,3.6,7.5,6.2,10.7c0-0.3-0.1-0.5-0.2-0.8
					c-0.6-1.8-1.4-3.6-1.7-5.5c-0.7-4,0.1-6.9,4.2-8.4c0,0,0.1-0.1,0.1-0.3c-1.7-0.6-3.5-1.1-5.2-1.7c-1.9-0.7-2.5-1.6-2.4-3.5
					c0.1-1.4,0.2-2.7,0.4-4.1c0.4-2.9,0.4-2.9,3.4-2.1c6.5,1.8,13.1,3.1,19.8,3.4c0.7,0,1.3-0.1,2-0.2c0-0.1,0-0.3,0-0.4
					c-0.4-0.3-0.8-0.6-1.3-0.8c-2.2-0.9-4.4-1.8-6.6-2.6c-4.7-1.8-9.4-3.5-14.2-5.2c-1.5-0.5-2.4-1.4-2.5-3.1
					c-0.2-3-0.1-5.8,2.6-7.9C130.1,213.6,129.4,211,129.9,208z M163,204.1c-0.1,2.3-0.8,4.1-2.4,5.4c-2.1,1.7-4.5,2-7.1,1.4
					c-3.6-1-7.2-2-10.9-2.9c-1.5-0.4-3.1-0.7-4.7-0.8c-2.4-0.1-3.8,1.9-3,4.2c0.3,0.9,0.7,1.7,1.2,2.4c1.1,1.4,2.3,2.7,3.4,4.1
					c0.3,0.4,0.6,1,0.4,1.3c-0.1,0.4-0.8,0.6-1.2,0.7c-1.3,0.2-2.5,0.3-3.8,0.6c-0.4,0.1-0.9,0.6-0.9,0.9c0,0.4,0.3,0.9,0.6,1.2
					c0.1,0.2,0.5,0.2,0.8,0.3c6.7,2.3,13.7,3.8,19.8,7.7c0.4-1.3,1.4-1.6,2.6-1.5c1.2,0,2.3,0,3.5-0.1c0.6,0,1.2,0,1.3-0.9
					c0.1-0.9-0.5-0.9-1.1-1.1c-2.8-1-5.7-1.9-8.5-2.9c-3-1.1-5.8-2.7-8.2-4.9c-0.8-0.7-1-1.6-0.6-2.6c0.4-1,1.2-1.3,2.2-1.1
					c1.7,0.2,3.3,0.5,5,0.6c3.8,0.4,7.5-0.2,10.5-2.8C164.8,211,165.3,207.1,163,204.1z M135.6,201.4c1.1,0.8,1.8,1.6,2.6,1.8
					c2.6,0.7,5.2,1.2,7.8,1.9c2.9,0.7,5.9,1.5,8.8,2.2c2.1,0.5,3.3-0.2,3.8-2c0.3-1.2-0.1-2.3-1.3-3.2c-4.7-3.4-10-4-15.5-2.7
					C139.8,199.9,137.8,200.7,135.6,201.4z M139.7,245.7c1.6,6.1,5.7,9.4,10.3,10.2c0.6,0.1,1.3-0.1,2-0.1c-0.1-0.8-0.1-1.6-0.3-2.3
					c-0.1-0.3-0.5-0.6-0.8-0.9c-1.8-1.3-3.5-2.6-5.4-3.7C143.8,247.8,141.9,246.9,139.7,245.7z"/>
				<path class="st3" d="M117.8,392.8c0,3-0.4,5.3-1.7,7.4c-0.3,0.4-0.9,0.8-1.4,0.8c-0.3,0-0.7-0.7-0.8-1.2
					c-1.3-6.8-2.5-13.6-3.7-20.4c-0.1-0.4,0.2-1.2,0.5-1.4c0.3-0.2,1.1,0.1,1.4,0.4c3,3.3,4.7,7.2,5.4,11.5
					C117.7,391.1,117.7,392.2,117.8,392.8z M115.2,395.9c0.1,0,0.2,0,0.3-0.1c0.6-4.3-0.3-8.2-2.2-12c-0.1,0-0.2,0-0.3,0.1
					C113.8,387.9,114.5,391.9,115.2,395.9z"/>
			</g>
		</g>
		<g>
			<path class="st4" d="M464.5,340.1c-3.9,0-7,3.2-7,7s3.2,7,7,7s7-3.2,7-7S468.4,340.1,464.5,340.1"/>
			<path class="st4" d="M467.1,230.5c-5.1,0-9.2,4.1-9.2,9.2c0,5.1,4.1,9.2,9.2,9.2c5.1,0,9.2-4.1,9.2-9.2
				C476.3,234.6,472.2,230.5,467.1,230.5"/>
			<path class="st4" d="M464.5,336.7c-5.8,0-10.5,4.7-10.5,10.5c0,5.8,4.7,10.5,10.5,10.5S475,353,475,347.2
				C475,341.4,470.3,336.7,464.5,336.7"/>
			<path class="st4" d="M464.5,356.3c-5,0-9.1-4.1-9.1-9.1s4.1-9.1,9.1-9.1s9.1,4.1,9.1,9.1S469.6,356.3,464.5,356.3"/>
			<path class="st4" d="M467.1,226.8c-7.1,0-12.9,5.8-12.9,12.9s5.8,12.9,12.9,12.9s12.9-5.8,12.9-12.9S474.2,226.8,467.1,226.8"/>
			<path class="st4" d="M467.1,251.1c-6.3,0-11.5-5.1-11.5-11.5c0-6.3,5.1-11.5,11.5-11.5c6.3,0,11.5,5.1,11.5,11.5
				C478.6,246,473.4,251.1,467.1,251.1"/>
			<line class="st4" x1="469.6" y1="376" x2="473.2" y2="376"/>
			<line class="st4" x1="530.3" y1="218.1" x2="530.3" y2="331.9"/>
			<line class="st4" x1="527.4" y1="330.5" x2="527.4" y2="309"/>
			<line class="st4" x1="473.2" y1="376.7" x2="473.2" y2="375.2"/>
			<line class="st4" x1="526.7" y1="330.5" x2="526.7" y2="309"/>
			<line class="st4" x1="513.4" y1="309" x2="513.4" y2="343.2"/>
			<line class="st4" x1="451" y1="240.4" x2="451" y2="238.8"/>
			<line class="st4" x1="513.4" y1="343.2" x2="513.7" y2="342.9"/>
			<line class="st4" x1="513.7" y1="207.5" x2="513.7" y2="309"/>
			<line class="st4" x1="480.2" y1="376.7" x2="480.2" y2="372.2"/>
			<line class="st4" x1="527.4" y1="337.1" x2="513.7" y2="349.8"/>
			<line class="st4" x1="527.4" y1="337.1" x2="527.4" y2="330.5"/>
			<line class="st4" x1="484.7" y1="365.1" x2="480.4" y2="371.8"/>
			<line class="st4" x1="469.6" y1="376" x2="469.6" y2="375.2"/>
			<line class="st4" x1="512.3" y1="308.9" x2="513.7" y2="309"/>
			<line class="st4" x1="513.7" y1="343.5" x2="513.7" y2="349.8"/>
			<line class="st4" x1="504" y1="344.5" x2="512.3" y2="344.5"/>
			<line class="st4" x1="527.4" y1="309" x2="527.4" y2="213.2"/>
			<line class="st4" x1="487.3" y1="208.3" x2="487.3" y2="208.3"/>
			<line class="st4" x1="487.1" y1="207" x2="487.3" y2="208.3"/>
			<line class="st4" x1="487.3" y1="376.7" x2="487.3" y2="208.3"/>
			<line class="st4" x1="513.7" y1="309" x2="527.4" y2="309"/>
			<line class="st4" x1="487.1" y1="207" x2="484.5" y2="207.4"/>
			<line class="st4" x1="480.2" y1="376.7" x2="487.3" y2="376.7"/>
			<line class="st4" x1="527.4" y1="330.5" x2="513.7" y2="343.5"/>
			<line class="st4" x1="492.5" y1="375.2" x2="487.3" y2="375.2"/>
			<line class="st4" x1="484.8" y1="365.1" x2="484.8" y2="208.8"/>
			<line class="st4" x1="466.8" y1="376" x2="466.8" y2="375.2"/>
			<line class="st4" x1="461.4" y1="225" x2="464.1" y2="215.4"/>
			<line class="st4" x1="484.5" y1="207.4" x2="484.8" y2="208.8"/>
			<line class="st4" x1="501.9" y1="311" x2="501.9" y2="342.4"/>
			<line class="st4" x1="513.7" y1="343.5" x2="512.3" y2="344.5"/>
			<line class="st4" x1="504.6" y1="358.3" x2="497.6" y2="372.1"/>
			<line class="st4" x1="513.7" y1="349.8" x2="504.6" y2="358.3"/>
			<line class="st4" x1="513.7" y1="207.5" x2="526.8" y2="212.9"/>
			<line class="st4" x1="480.2" y1="375.2" x2="464.7" y2="375.2"/>
			<line class="st4" x1="513.7" y1="309" x2="513.4" y2="309"/>
			<line class="st4" x1="468.7" y1="211.3" x2="484.8" y2="208.8"/>
			<line class="st4" x1="512.3" y1="308.9" x2="504" y2="308.9"/>
			<line class="st4" x1="464.7" y1="375.2" x2="462.3" y2="377.7"/>
			<line class="st4" x1="509.5" y1="205.7" x2="513.7" y2="207.5"/>
			<line class="st4" x1="487.3" y1="208.4" x2="506.4" y2="205.4"/>
			<line class="st4" x1="526.7" y1="330.5" x2="513.4" y2="343.2"/>
			<line class="st4" x1="460.2" y1="376.8" x2="460.2" y2="359.8"/>
			<line class="st4" x1="460.2" y1="334.6" x2="460.2" y2="253.8"/>
			<line class="st4" x1="526.7" y1="330.5" x2="527.4" y2="330.5"/>
			<line class="st4" x1="513.7" y1="342.9" x2="513.7" y2="343.5"/>
			<path class="st4" d="M484.7,365.1C484.7,365.1,484.7,365.1,484.7,365.1"/>
			<path class="st4" d="M504,308.9c-1.2,0-2.1,1-2.1,2.1"/>
			<path class="st4" d="M480.2,372.2c0-0.1,0-0.3,0.1-0.4"/>
			<line class="st4" x1="466.8" y1="376" x2="469.6" y2="376"/>
			<path class="st4" d="M460.2,253.8c7.8,3.8,17.2,0.6,21-7.2c3.8-7.8,0.6-17.2-7.2-21c-3.9-1.9-8.5-2.1-12.6-0.6"/>
			<path class="st4" d="M460.2,334.6c-7,2.4-10.7,10-8.3,17c1.3,3.9,4.4,6.9,8.3,8.3"/>
			<path class="st4" d="M460.2,359.8c7,2.4,14.6-1.3,17-8.3c2.4-7-1.3-14.6-8.3-17c-2.8-1-5.9-1-8.7,0"/>
			<path class="st4" d="M509.5,205.7c-1-0.4-2-0.5-3-0.4"/>
			<path class="st4" d="M492.5,375.2c2.1,0,4.1-1.2,5.1-3.1"/>
			<path class="st4" d="M460.2,376.8c0,0.7,0.5,1.2,1.2,1.2c0.3,0,0.6-0.1,0.9-0.4"/>
			<path class="st4" d="M461.4,225c-8.1,3.1-12.1,12.2-9,20.3c1.4,3.7,4.2,6.7,7.8,8.5"/>
			<path class="st4" d="M468.7,211.3c-2.2,0.3-4,1.9-4.6,4.1"/>
			<path class="st4" d="M451,240.4c0.3,5.8,3.9,11,9.2,13.4"/>
			<line class="st4" x1="473.2" y1="376.7" x2="480.2" y2="376.7"/>
			<path class="st4" d="M501.9,342.4c0,1.2,1,2.1,2.1,2.1"/>
			<path class="st4" d="M460.2,334.6c-7,2.2-10.8,9.7-8.5,16.7c1.3,4.1,4.5,7.2,8.5,8.5"/>
			<path class="st4" d="M461.4,225c-6,2-10.2,7.5-10.5,13.9"/>
			<path class="st4" d="M527.4,213.2c1.8,1,2.9,2.9,2.9,5"/>
			<line class="st4" x1="528.5" y1="336.1" x2="527.4" y2="337.1"/>
			<path class="st4" d="M527.4,213.2c-0.2-0.1-0.4-0.2-0.6-0.3"/>
			<path class="st4" d="M528.5,336.1c1.2-1.1,1.8-2.6,1.8-4.2"/>
			<line class="st4" x1="552.6" y1="376.7" x2="552.6" y2="377.7"/>
			<line class="st4" x1="551.2" y1="207" x2="551.2" y2="208.3"/>
			<line class="st4" x1="639" y1="207" x2="637.6" y2="207"/>
			<line class="st4" x1="552.6" y1="207" x2="551.2" y2="207"/>
			<line class="st4" x1="551.2" y1="208.3" x2="552.6" y2="208.3"/>
			<line class="st4" x1="637.6" y1="208.3" x2="639" y2="208.3"/>
			<line class="st4" x1="637.6" y1="375.2" x2="552.6" y2="375.2"/>
			<line class="st4" x1="552.6" y1="311" x2="552.6" y2="342.4"/>
			<line class="st4" x1="637.4" y1="342.5" x2="637.6" y2="342.5"/>
			<line class="st4" x1="552.6" y1="358.3" x2="552.6" y2="372.1"/>
			<line class="st4" x1="553.2" y1="342.4" x2="552.6" y2="342.4"/>
			<line class="st4" x1="637.6" y1="205.3" x2="552.6" y2="205.3"/>
			<line class="st4" x1="634.8" y1="351.2" x2="634.8" y2="352.2"/>
			<line class="st4" x1="555.4" y1="351.2" x2="555.4" y2="352.2"/>
			<line class="st4" x1="555.4" y1="355.3" x2="634.8" y2="355.3"/>
			<line class="st4" x1="554" y1="311" x2="552.6" y2="311"/>
			<line class="st4" x1="554" y1="309" x2="554" y2="341"/>
			<line class="st4" x1="636.2" y1="309" x2="636.2" y2="340.5"/>
			<line class="st4" x1="551.2" y1="376.7" x2="551.2" y2="208.3"/>
			<line class="st4" x1="552.6" y1="378" x2="637.6" y2="378"/>
			<line class="st4" x1="551.2" y1="376.7" x2="639" y2="376.7"/>
			<line class="st4" x1="637.6" y1="372.1" x2="637.6" y2="358.3"/>
			<line class="st4" x1="637.6" y1="358.3" x2="637.6" y2="349.8"/>
			<line class="st4" x1="637.6" y1="342.9" x2="637.6" y2="343.3"/>
			<line class="st4" x1="637.6" y1="205.7" x2="552.6" y2="205.7"/>
			<line class="st4" x1="637.6" y1="342.9" x2="630.1" y2="330.2"/>
			<line class="st4" x1="560.1" y1="309" x2="560.1" y2="213.2"/>
			<line class="st4" x1="565" y1="218.1" x2="565" y2="331.9"/>
			<line class="st4" x1="552.6" y1="343.5" x2="552.6" y2="349.8"/>
			<line class="st4" x1="637.6" y1="207.5" x2="637.6" y2="205.7"/>
			<line class="st4" x1="560.1" y1="330.5" x2="560.1" y2="309"/>
			<line class="st4" x1="552.6" y1="349.8" x2="552.6" y2="358.3"/>
			<line class="st4" x1="552.6" y1="207.5" x2="559.8" y2="212.9"/>
			<line class="st4" x1="560.1" y1="337.1" x2="560.1" y2="330.5"/>
			<line class="st4" x1="552.6" y1="377.7" x2="637.6" y2="377.7"/>
			<line class="st4" x1="639" y1="376.7" x2="639" y2="208.3"/>
			<line class="st4" x1="629.3" y1="336.1" x2="560.9" y2="336.1"/>
			<line class="st4" x1="636.2" y1="311" x2="637.6" y2="311"/>
			<line class="st4" x1="552.6" y1="358.3" x2="637.6" y2="358.3"/>
			<line class="st4" x1="630.1" y1="213.2" x2="630.1" y2="309"/>
			<line class="st4" x1="555.4" y1="352.2" x2="555.4" y2="356.3"/>
			<line class="st4" x1="639" y1="207" x2="639" y2="208.3"/>
			<line class="st4" x1="565" y1="331.9" x2="625.2" y2="331.9"/>
			<line class="st4" x1="634.8" y1="350.3" x2="627.6" y2="338"/>
			<line class="st4" x1="637.6" y1="311" x2="637.6" y2="342.5"/>
			<line class="st4" x1="630.1" y1="330.2" x2="630.1" y2="337.1"/>
			<line class="st4" x1="630.1" y1="309" x2="630.1" y2="330.2"/>
			<line class="st4" x1="637.6" y1="207.5" x2="637.6" y2="308.9"/>
			<line class="st4" x1="625.2" y1="331.9" x2="625.2" y2="218.1"/>
			<line class="st4" x1="560.1" y1="337.1" x2="552.6" y2="349.8"/>
			<line class="st4" x1="627.6" y1="338" x2="562.6" y2="338"/>
			<line class="st4" x1="560.1" y1="330.5" x2="552.6" y2="343.5"/>
			<line class="st4" x1="637.6" y1="377.7" x2="637.6" y2="376.7"/>
			<line class="st4" x1="634.8" y1="356.3" x2="634.8" y2="352.2"/>
			<line class="st4" x1="552.6" y1="372.1" x2="637.6" y2="372.1"/>
			<line class="st4" x1="625.2" y1="218.1" x2="565" y2="218.1"/>
			<line class="st4" x1="562.6" y1="338" x2="555.4" y2="350.2"/>
			<line class="st4" x1="552.6" y1="309" x2="560.1" y2="309"/>
			<line class="st4" x1="552.6" y1="207.5" x2="552.6" y2="309"/>
			<line class="st4" x1="559.8" y1="212.9" x2="630.4" y2="212.9"/>
			<line class="st4" x1="630.4" y1="212.9" x2="637.6" y2="207.5"/>
			<line class="st4" x1="637.6" y1="308.9" x2="637.6" y2="309"/>
			<line class="st4" x1="630.1" y1="309" x2="637.6" y2="309"/>
			<line class="st4" x1="637.6" y1="343.3" x2="637.6" y2="349.8"/>
			<line class="st4" x1="637.6" y1="349.8" x2="630.1" y2="337.1"/>
			<line class="st4" x1="555.4" y1="356.3" x2="634.8" y2="356.3"/>
			<line class="st4" x1="552.6" y1="205.7" x2="552.6" y2="207.5"/>
			<path class="st4" d="M555.3,350.6c0,0.2,0.1,0.4,0.1,0.6"/>
			<path class="st4" d="M634.8,352.2c0.1-0.3,0.1-0.7,0.2-1"/>
			<path class="st4" d="M634.9,351.2C634.9,351.2,634.9,351.2,634.9,351.2"/>
			<path class="st4" d="M634.9,351.1c0-0.2,0-0.3,0-0.5"/>
			<path class="st4" d="M634.9,350.7c0-0.1,0-0.3-0.1-0.4"/>
			<path class="st4" d="M634.8,351.2c0-0.2,0.1-0.3,0.1-0.5"/>
			<path class="st4" d="M555.4,350.2c0,0.1-0.1,0.2-0.1,0.3"/>
			<path class="st4" d="M555.3,350.6c0,0.2,0,0.4,0,0.6"/>
			<path class="st4" d="M555.3,351.1C555.3,351.2,555.3,351.2,555.3,351.1"/>
			<path class="st4" d="M555.3,351.2c0,0.3,0.1,0.7,0.1,1"/>
			<path class="st4" d="M640.8,347.2c-0.1-0.6-0.2-1.2-0.3-1.7"/>
			<path class="st4" d="M640.4,348.9c0.1-0.6,0.2-1.1,0.3-1.7"/>
			<line class="st4" x1="552.6" y1="377.7" x2="552.6" y2="378"/>
			<path class="st4" d="M549.4,347.2c0.1,0.6,0.2,1.2,0.3,1.7"/>
			<path class="st4" d="M549.7,345.5c-0.1,0.6-0.2,1.1-0.3,1.7"/>
			<path class="st4" d="M549.4,239.6c0.1,0.7,0.2,1.3,0.3,2"/>
			<path class="st4" d="M549.7,237.6c-0.1,0.7-0.2,1.3-0.3,2"/>
			<path class="st4" d="M640.8,239.6c-0.1-0.7-0.2-1.3-0.3-2"/>
			<path class="st4" d="M640.4,241.7c0.1-0.7,0.2-1.3,0.3-2"/>
			<polyline class="st4" points="637.6,377.7 637.6,377.9 637.6,378 			"/>
			<line class="st4" x1="640.4" y1="336.7" x2="640.4" y2="357.7"/>
			<line class="st4" x1="637.6" y1="342.9" x2="637.6" y2="342.5"/>
			<line class="st4" x1="552.6" y1="342.4" x2="552.6" y2="343.5"/>
			<line class="st4" x1="637.6" y1="205.3" x2="637.6" y2="205.7"/>
			<line class="st4" x1="637.6" y1="309" x2="637.6" y2="311"/>
			<line class="st4" x1="552.6" y1="372.1" x2="552.6" y2="375.2"/>
			<line class="st4" x1="549.7" y1="226.8" x2="549.7" y2="252.5"/>
			<polyline class="st4" points="552.6,309 552.6,309.4 552.6,310.1 552.6,311 			"/>
			<path class="st4" d="M640.4,226.8c0-1-0.5-1.9-1.4-2.5"/>
			<path class="st4" d="M639,255c0.9-0.5,1.4-1.4,1.4-2.5"/>
			<line class="st4" x1="549.7" y1="336.7" x2="549.7" y2="357.7"/>
			<polyline class="st4" points="637.6,372.1 637.6,373.4 637.6,374.4 637.6,375 637.6,375.2 			"/>
			<path class="st4" d="M551.2,334.2c-0.9,0.5-1.4,1.4-1.4,2.5"/>
			<polyline class="st4" points="552.6,205.7 552.6,205.4 552.6,205.3 			"/>
			<path class="st4" d="M549.7,357.7c0,1,0.5,1.9,1.4,2.5"/>
			<line class="st4" x1="640.4" y1="226.8" x2="640.4" y2="252.5"/>
			<path class="st4" d="M551.2,224.3c-0.9,0.5-1.4,1.4-1.4,2.5"/>
			<path class="st4" d="M549.7,252.5c0,1,0.5,1.9,1.4,2.5"/>
			<path class="st4" d="M640.4,336.7c0-1-0.5-1.9-1.4-2.5"/>
			<path class="st4" d="M639,360.1c0.9-0.5,1.4-1.4,1.4-2.5"/>
			<path class="st4" d="M560.9,336.1c-0.3,0.3-0.6,0.7-0.8,1.1"/>
			<line class="st4" x1="565" y1="331.9" x2="560.9" y2="336.1"/>
			<line class="st4" x1="630.1" y1="213.2" x2="625.2" y2="218.1"/>
			<path class="st4" d="M560.1,213.2c-0.1-0.1-0.2-0.2-0.3-0.3"/>
			<path class="st4" d="M630.1,337.1c-0.2-0.4-0.5-0.7-0.8-1.1"/>
			<path class="st4" d="M630.4,212.9c-0.1,0.1-0.2,0.2-0.3,0.3"/>
			<line class="st4" x1="625.2" y1="331.9" x2="629.3" y2="336.1"/>
			<line class="st4" x1="560.1" y1="213.2" x2="565" y2="218.1"/>
			<line class="st4" x1="642.1" y1="205.3" x2="667.5" y2="205.3"/>
			<line class="st4" x1="642.1" y1="378" x2="667.5" y2="378"/>
			<line class="st4" x1="661.7" y1="218.3" x2="661.7" y2="270.2"/>
			<line class="st4" x1="661.7" y1="365.1" x2="661.7" y2="313.1"/>
			<polygon points="663.9,218.3 661.7,205.3 659.5,218.3 			"/>
			<polygon class="st4" points="663.9,218.3 661.7,205.3 659.5,218.3 			"/>
			<polygon points="659.5,365.1 661.7,378 663.9,365.1 			"/>
			<polygon class="st4" points="659.5,365.1 661.7,378 663.9,365.1 			"/>
			<g>
				<path d="M664.6,281c0-0.2,0-0.5,0-0.8c-0.3-1.7-1.5-2.5-2.8-2.7v0c0.5,0.4,0.9,1,0.9,1.9c0,1.4-1,2.4-2.5,2.4
					c-1.4,0-2.8-1-2.8-2.6c0-1.7,1.3-2.8,3.3-2.8c1.5,0,2.8,0.6,3.5,1.3c0.6,0.7,1,1.5,1.2,2.5c0,0.3,0.1,0.6,0.1,0.8H664.6z
					 M660,280.7c1.1,0,1.8-0.6,1.8-1.6c0-0.6-0.4-1.2-1-1.5c-0.1-0.1-0.3-0.1-0.5-0.1c-1.3,0-2.2,0.6-2.2,1.7
					C658.2,280.1,658.9,280.7,660,280.7z"/>
				<path d="M661.5,287.9c-2.7,0-4.1-1-4.1-2.7c0-1.5,1.4-2.6,4-2.6c2.6,0,4.1,1.1,4.1,2.7C665.4,287,664,287.9,661.5,287.9z
					 M661.4,283.7c-2,0-3.2,0.6-3.2,1.6c0,1.1,1.3,1.6,3.3,1.6c1.9,0,3.2-0.5,3.2-1.6C664.6,284.4,663.5,283.7,661.4,283.7z"/>
				<path d="M658.1,289c0.4,0,0.8,0.3,0.8,0.7s-0.3,0.7-0.8,0.7c-0.4,0-0.8-0.3-0.8-0.7C657.3,289.3,657.7,289,658.1,289z"/>
				<path d="M658.2,292c0,0.2,0,0.5,0,0.9c0.1,0.6,0.3,1.2,0.8,1.6c0.5,0.5,1.2,0.9,2.1,1v0c-0.5-0.4-0.8-1.1-0.8-1.8
					c0-1.4,1.1-2.3,2.4-2.3c1.5,0,2.8,1.1,2.8,2.7c0,1.6-1.3,2.6-3.3,2.6c-1.7,0-2.9-0.6-3.7-1.4c-0.6-0.6-1-1.4-1-2.3
					c-0.1-0.4-0.1-0.7-0.1-1H658.2z M662.7,292.4c-1,0-1.7,0.6-1.7,1.5c0,0.7,0.3,1.3,0.8,1.5c0.1,0.1,0.2,0.1,0.4,0.1
					c1.3,0,2.4-0.5,2.4-1.6C664.6,293,663.8,292.4,662.7,292.4z"/>
				<path d="M657.5,300.9h2.1v-3.6h0.7l5,3.5v1.1h-4.9v1.1h-0.8v-1.1h-2.1V300.9z M660.4,300.9h2.6c0.4,0,0.8,0,1.2,0v0
					c-0.5-0.2-0.8-0.4-1.2-0.7l-2.7-1.9h0V300.9z"/>
			</g>
			<line class="st4" x1="530.3" y1="336.4" x2="530.3" y2="404.8"/>
			<line class="st4" x1="451" y1="244.9" x2="451" y2="404.8"/>
			<line class="st4" x1="517.4" y1="399.1" x2="501.6" y2="399.1"/>
			<line class="st4" x1="463.9" y1="399.1" x2="479.8" y2="399.1"/>
			<polygon points="517.4,401.2 530.3,399.1 517.4,396.9 			"/>
			<polygon class="st4" points="517.4,401.2 530.3,399.1 517.4,396.9 			"/>
			<polygon points="463.9,396.9 451,399.1 463.9,401.2 			"/>
			<polygon class="st4" points="463.9,396.9 451,399.1 463.9,401.2 			"/>
			<g>
				<path d="M486.4,392.7h0.7l0.8,0.8c1.9,2,2.9,2.9,4.1,2.9c0.8,0,1.5-0.4,1.5-1.6c0-0.7-0.4-1.3-0.7-1.7l0.7-0.3
					c0.5,0.5,0.8,1.3,0.8,2.2c0,1.7-1.2,2.4-2.3,2.4c-1.4,0-2.6-1-4.2-2.7l-0.6-0.6h0v3.5h-0.9V392.7z"/>
				<path d="M488.4,398.8c1,0,1.7,0.6,2.1,1.6l0,0c0.4-0.9,1.1-1.2,1.8-1.2c1.2,0,2.1,1,2.1,2.4c0,1.5-1,2.3-1.9,2.3
					c-0.7,0-1.4-0.3-1.8-1.3h0c-0.4,1-1.1,1.6-2,1.6c-1.4,0-2.3-1.2-2.3-2.7C486.3,399.8,487.2,398.8,488.4,398.8z M488.4,403
					c1,0,1.4-0.7,1.7-1.7c-0.3-0.9-0.9-1.4-1.6-1.4c-0.8,0-1.5,0.6-1.5,1.6C487,402.4,487.6,403,488.4,403z M492.4,400.1
					c-0.8,0-1.2,0.6-1.4,1.5c0.2,0.7,0.7,1.2,1.4,1.2c0.6,0,1.3-0.4,1.3-1.3C493.6,400.6,493,400.1,492.4,400.1z"/>
			</g>
		</g>
	</g>
</g>
</svg>
