<?xml version="1.0" encoding="UTF-8" standalone="no"?>
<!-- Generator: Adobe Illustrator 24.2.0, SVG Export Plug-In . SVG Version: 6.00 Build 0)  -->

<svg
   xmlns:dc="http://purl.org/dc/elements/1.1/"
   xmlns:cc="http://creativecommons.org/ns#"
   xmlns:rdf="http://www.w3.org/1999/02/22-rdf-syntax-ns#"
   xmlns:svg="http://www.w3.org/2000/svg"
   xmlns="http://www.w3.org/2000/svg"
   xmlns:sodipodi="http://sodipodi.sourceforge.net/DTD/sodipodi-0.dtd"
   xmlns:inkscape="http://www.inkscape.org/namespaces/inkscape"
   version="1.1"
   x="0px"
   y="0px"
   viewBox="0 0 1056 816"
   xml:space="preserve"
   id="svg949"
   sodipodi:docname="Bubble Pack templatev2.svg"
   width="11in"
   height="8.5in"
   inkscape:version="0.92.4 (5da689c313, 2019-01-14)"><metadata
   id="metadata955"><rdf:RDF><cc:Work
       rdf:about=""><dc:format>image/svg+xml</dc:format><dc:type
         rdf:resource="http://purl.org/dc/dcmitype/StillImage" /><dc:title></dc:title></cc:Work></rdf:RDF></metadata><defs
   id="defs953" /><sodipodi:namedview
   pagecolor="#ffffff"
   bordercolor="#666666"
   borderopacity="1"
   objecttolerance="10"
   gridtolerance="10"
   guidetolerance="10"
   inkscape:pageopacity="0"
   inkscape:pageshadow="2"
   inkscape:window-width="1920"
   inkscape:window-height="974"
   id="namedview951"
   showgrid="false"
   units="in"
   inkscape:document-units="in"
   inkscape:zoom="0.43385392"
   inkscape:cx="330.80692"
   inkscape:cy="103.19313"
   inkscape:window-x="-11"
   inkscape:window-y="-11"
   inkscape:window-maximized="1"
   inkscape:current-layer="layer1" />
<style
   type="text/css"
   id="style815">
	.st0{fill:#FFFFFF;}
	.st1{fill:#FFFFFF;stroke:#FF0000;stroke-width:1.3333;stroke-miterlimit:13.3333;}
	.st2{fill:#FFFFFF;stroke:#FF0000;stroke-width:1.3333;stroke-miterlimit:5.3333;}
	.st3{fill:#FFFFFF;stroke:#FF0000;stroke-width:1.000000e-03;stroke-miterlimit:10;}
	.st4{fill:#FFFFFF;stroke:#000000;stroke-width:0.5;stroke-miterlimit:13.3333;}
	.st5{fill:#FFFFFF;stroke:#000000;stroke-width:0.5;stroke-miterlimit:10;}
</style>


<g
   inkscape:groupmode="layer"
   id="layer2"
   inkscape:label="cut"
   transform="translate(0,204)"
   style="display:none"><g
     id="Layer_1"
     inkscape:version="0.92.4 (5da689c313, 2019-01-14)"
     sodipodi:docname="Bubble Pack templatev2.svg"
     transform="matrix(1.3333334,0,0,1.3333334,0,-204.00002)"><g
       id="Layer_2_1_"
       transform="scale(1.3333333)"><rect
         x="0"
         id="rect4"
         y="0"
         class="st0"
         width="594"
         height="459"
         style="fill:#ffffff" /></g><g
       id="svg15158"
       transform="scale(1.3333333)"
       inkscape:version="0.91 r13725"
       sodipodi:docname="AxiDraw_First.svg"><path
         id="path11"
         inkscape:connector-curvature="0"
         class="st1"
         d="m 56.6,146 v 12.6 H 44.7 c -17.2,0 -31.2,14.1 -31.2,31.3 v 79.4 c 0,17.2 14,31.2 31.2,31.2 h 11.9 v 12.7 c 0,17.2 14,31.2 31.2,31.2 h 130.8 12.1 275.4 c 17.2,0 31.2,-14 31.2,-31.2 v -12.6 h 11.9 c 17.2,0 31.2,-14 31.2,-31.2 V 190 c 0,-17.2 -14,-31.2 -31.2,-31.2 H 537.3 V 146.2 C 537.3,129 523.3,115 506.1,115 H 230.7 218.6 87.9 c -17.2,-0.2 -31.3,13.9 -31.3,31 z"
         style="fill:#ffffff;stroke:#ff0000;stroke-width:1.33329999;stroke-miterlimit:13.33329964" /><path
         id="path7"
         inkscape:connector-curvature="0"
         class="st1"
         d="m 43.4,204 v 15.9 c -0.1,0 -0.1,0 -0.1,0 -5.3,0 -9.7,4.3 -9.7,9.7 0,5.3 4.4,9.7 9.7,9.7 0.1,0 0.1,0 0.2,0 v 15.9 c 0,2.8 2.3,5 5,5 h 1.9 c 2.8,0 5,-2.3 5,-5 V 204 c 0,-2.8 -2.3,-5 -5,-5 h -1.9 c -2.8,0 -5.1,2.2 -5.1,5 z"
         style="fill:#ffffff;stroke:#ff0000;stroke-width:1.33329999;stroke-miterlimit:13.33329964" /><path
         id="path9"
         inkscape:connector-curvature="0"
         class="st1"
         d="m 550.6,255.2 v -15.9 c 0.1,0 0.1,0 0.2,0 5.3,0 9.7,-4.3 9.7,-9.7 0,-5.3 -4.3,-9.7 -9.7,-9.7 -0.1,0 -0.1,0 -0.2,0 V 204 c 0,-2.8 -2.3,-5 -5,-5 h -1.9 c -2.8,0 -5,2.3 -5,5 v 51.2 c 0,2.8 2.3,5 5,5 h 1.9 c 2.7,0 5,-2.3 5,-5 z"
         style="fill:#ffffff;stroke:#ff0000;stroke-width:1.33329999;stroke-miterlimit:13.33329964" /><g
         id="g19"><line
           id="line13"
           class="st2"
           x1="297"
           y1="343.70001"
           x2="297"
           y2="341.5"
           style="fill:#ffffff;stroke:#ff0000;stroke-width:1.33329999;stroke-miterlimit:5.33330011" /><line
           id="line15"
           class="st2"
           x1="297"
           y1="336.79999"
           x2="297"
           y2="119.3"
           style="fill:#ffffff;stroke:#ff0000;stroke-width:1.33329999;stroke-miterlimit:5.33330011" /><line
           id="line17"
           class="st2"
           x1="297"
           y1="116.9"
           x2="297"
           y2="114.7"
           style="fill:#ffffff;stroke:#ff0000;stroke-width:1.33329999;stroke-miterlimit:5.33330011" /></g></g><rect
       x="240.8"
       y="191.2"
       class="st3"
       width="133.2"
       height="229.60001"
       id="rect827" /><rect
       x="418"
       y="191.2"
       class="st3"
       width="133.2"
       height="229.60001"
       id="rect829" /></g></g><g
   inkscape:groupmode="layer"
   id="layer1"
   inkscape:label="draw"
   style="display:inline"
   transform="translate(0,204)"><g
     id="Layer_2"
     transform="matrix(1.3333334,0,0,1.3333334,0,-204.00002)"><path
       inkscape:connector-curvature="0"
       class="st4"
       d="M 117.1,449.2 C 99.7,449.2 85.5,435 85.5,417.6 V 390.7 H 59.6 C 42.2,390.7 28,376.5 28,359.1 V 253.2 c 0,-17.5 14.2,-31.7 31.6,-31.7 h 25.9 v -26.8 c 0,-17.3 14,-31.3 31.3,-31.3 h 558.1 c 17.4,0 31.6,14.2 31.6,31.6 v 26.8 h 25.9 c 17.4,0 31.6,14.2 31.6,31.6 v 105.9 c 0,17.4 -14.2,31.6 -31.6,31.6 h -25.9 v 26.8 c 0,17.4 -14.2,31.6 -31.6,31.6 H 117.1 Z"
       id="path832"
       style="fill:#ffffff;stroke:#000000;stroke-width:0.5;stroke-miterlimit:13.33329964" /><g
       id="g860"><path
         inkscape:connector-curvature="0"
         class="st5"
         d="m 109.2,285.2 c 2.7,-2 5.1,-4 7.6,-5.7 3.6,-2.4 6.8,-5.2 9.3,-8.8 1.5,-2.2 3.5,-4 6.1,-4.6 9.2,-2 16.2,-7.8 23.4,-13.3 0.7,-0.5 1.4,-1 2.1,-1.5 0.1,-0.1 0.3,-0.2 0.8,-0.5 0,3.2 0,6.3 0,9.3 0,0.3 -0.6,0.7 -1,0.9 -1,0.5 -2.1,0.8 -3.1,1.2 -1.4,0.5 -2.7,1.1 -3.5,2.6 -0.4,0.7 -1.5,1 -2.3,1.4 -1,0.5 -2,0.8 -3,1.2 0,0.2 0,0.4 -0.1,0.6 0.9,0.4 1.9,0.6 2.7,1.1 1.1,0.7 2.1,1.6 3.2,2.3 1.4,0.9 2.8,1.8 4.3,2.4 2.8,1.1 2.8,1 2.8,4 0,5.1 0,10.2 0,15.3 0,1.1 -0.4,1.8 -1.3,2.4 -1.1,0.8 -2.2,1.6 -3.2,2.5 -3.9,3.9 -8.7,5.2 -14.1,5.8 -4.1,0.5 -7.3,-0.4 -10.9,-2.6 -5.8,-3.6 -11.3,-7.3 -15.9,-12.4 -0.9,-1.2 -2.3,-2.2 -3.9,-3.6 z m 10.5,-0.1 c 1.7,-1.3 3.3,-2.7 5,-3.8 3.1,-2.1 5.8,-4.5 8.2,-7.5 1.3,-1.5 3.3,-2.5 5,-3.6 0.8,-0.5 1.8,-0.5 2.6,-0.9 0.3,-0.1 0.5,-0.6 0.7,-0.9 -0.4,-0.1 -0.8,-0.4 -1.1,-0.3 -3.3,0.9 -6.3,2.2 -8.6,5 -2.1,2.5 -4.7,4.5 -7.1,6.7 -1.8,1.6 -3.6,3 -5.5,4.4 -0.9,0.7 -0.9,1.3 0,2.1 1.9,1.6 3.6,3.4 5.4,5.1 0.4,0.4 0.9,0.8 1.3,1.1 0.2,-0.2 0.4,-0.3 0.5,-0.5 -1.3,-2.7 -4,-4.4 -6.4,-6.9 z"
         id="path834"
         style="fill:#ffffff;stroke:#000000;stroke-width:0.5;stroke-miterlimit:10" /><path
         inkscape:connector-curvature="0"
         class="st5"
         d="m 149.4,347.4 c 2.9,-0.5 5.7,0.8 8.4,-1 0.1,0.3 0.4,0.6 0.4,0.9 0,2.7 0,5.3 0,8 0,0.4 -0.4,0.7 -0.6,1.1 -0.2,-0.4 -0.6,-0.8 -0.6,-1.1 -0.1,-2 0,-4.1 0,-6.5 -1.1,0 -2,0 -3,0 -2.4,0 -4.7,-0.1 -7.1,0 -2.5,0.2 -4.7,-0.1 -6,-2.5 -0.2,-0.3 -0.9,-0.4 -1.3,-0.5 0.1,0.5 0.2,1 0.4,1.4 0.2,0.5 0.6,0.9 1.1,1.4 -1.2,0.2 -2.2,0.3 -3.2,0.4 0,0.2 0,0.5 0,0.7 2,0 4,0 6,0 0,0.5 0,0.7 -0.1,0.7 -0.4,0.6 -0.7,1.3 -1.1,1.9 0.7,-0.3 1.5,-0.5 2.1,-1 1.2,-1.3 2.6,-2 4.3,-1.2 0.9,0.4 0.5,3.1 -0.5,4.7 -0.4,0.6 -0.6,1.4 -0.4,2.1 0.4,2.1 -0.3,4.1 -1.9,5.3 -1.7,1.2 -3.9,1.1 -5.7,-0.2 -0.4,-0.3 -1,-0.6 -1.4,-0.5 -3.7,0.6 -5.1,-0.1 -6.6,-3.4 -4,-0.4 -4.8,-1 -5.8,-5.1 -0.1,-0.4 -0.5,-0.8 -0.9,-1.1 -2.9,-2.6 -2.2,-6.8 1.3,-8.3 0.3,-0.1 1,-0.3 1,-0.4 0.1,-2.9 3,-3.7 4.3,-5.7 1.4,-2.1 4.1,-2.6 6.5,-1.4 0.6,0.3 1.4,0.4 2,0.3 4.6,-1.2 9.4,3.3 8.5,7.9 -0.5,0.9 -0.2,1.9 -0.1,3.1 z"
         id="path836"
         style="fill:#ffffff;stroke:#000000;stroke-width:0.5;stroke-miterlimit:10" /><path
         inkscape:connector-curvature="0"
         class="st5"
         d="m 158.4,333.6 c -13.5,-8.3 -22,-15.6 -30.2,-26.1 3.4,-0.7 6.6,-1.9 9.8,-2.1 7,-0.3 13.2,-2.1 18.1,-7.3 0.5,-0.5 1.2,-0.9 1.8,-1.4 0.1,-0.1 0.3,-0.1 0.6,-0.2 0,9.6 0,19.1 0,29.1 -1.2,-2.1 -2.3,-3.8 -3.2,-5.5 -0.6,-1.1 -1.3,-1.6 -2.5,-1.3 -2,0.6 -3.7,0 -5.4,-1.2 -2.1,-1.5 -4.3,-2.9 -6.5,-4.3 -0.5,-0.3 -1.1,-0.6 -1.7,-0.9 -0.1,0.2 -0.3,0.3 -0.4,0.5 0.3,0.4 0.5,0.9 0.9,1.2 2.7,1.7 5.4,3.4 8.2,5.1 1.3,0.8 2.7,1.4 4.4,0.9 1,-0.3 1.7,0.2 2.2,1.1 0.6,1.2 1.2,2.5 2,3.5 2,2.7 2.5,5.6 1.9,8.9 z"
         id="path838"
         style="fill:#ffffff;stroke:#000000;stroke-width:0.5;stroke-miterlimit:10" /><path
         inkscape:connector-curvature="0"
         class="st5"
         d="m 131,264.9 c -2.2,1.8 -4.4,2.4 -7.2,2.2 -12.3,-1.2 -23.2,8.2 -24.3,20.5 -1.1,12.1 7.6,23 19.7,24.4 2.5,0.3 5.3,0.2 7.7,-0.4 2.5,-0.6 4,0.1 5.1,2.1 -6.9,3.8 -19.8,3.2 -28.6,-5.4 -8.9,-8.8 -10.3,-23 -3.3,-33.3 6.8,-10.2 20.2,-14.6 30.9,-10.1 z"
         id="path840"
         style="fill:#ffffff;stroke:#000000;stroke-width:0.5;stroke-miterlimit:10" /><path
         inkscape:connector-curvature="0"
         class="st5"
         d="m 135,317 c -9.4,5.3 -25.8,4.5 -36.3,-7.7 -9.7,-11.3 -9.6,-28.6 0.2,-39.8 10.5,-11.9 27.3,-13.1 37.9,-6.5 -1.9,0.8 -3.5,1.3 -5.6,0.5 -18.7,-6.7 -38.1,8 -36.8,27.8 1.2,18.3 19.2,30.3 36.6,24.4 2.5,-0.8 2.5,-0.8 4,1.3 z"
         id="path842"
         style="fill:#ffffff;stroke:#000000;stroke-width:0.5;stroke-miterlimit:10" /><path
         inkscape:connector-curvature="0"
         class="st5"
         d="m 132,305.1 c -1.4,0.4 -2.7,0.8 -4.1,1.2 -1.9,0.5 -2,0.9 -0.6,2.4 0.3,0.3 0.6,0.7 1,1.1 -7.2,3 -17.4,0 -22.8,-6.7 -6,-7.4 -6.4,-17.7 -1.2,-25.5 4.6,-6.8 13.4,-10.8 21.4,-8.9 -1.3,2.1 -2.3,3.7 -5.4,3.8 -7.9,0.3 -15,7.6 -15.5,15.5 -0.5,8.9 5.3,16.7 13.6,18.3 4.1,0.8 7.9,0.2 11.6,-1.6 0.5,-0.3 1.2,-0.3 1.9,-0.4 0.1,0.3 0.1,0.6 0.1,0.8 z"
         id="path844"
         style="fill:#ffffff;stroke:#000000;stroke-width:0.5;stroke-miterlimit:10" /><path
         inkscape:connector-curvature="0"
         class="st5"
         d="m 129.9,303.2 c -5,3.3 -12.3,2.9 -17.5,-1.1 -5.3,-4.1 -7.5,-11.1 -5.4,-17.5 2.1,-6.3 7.9,-10.7 14.8,-10.7 -1.3,1.1 -2.2,1.9 -3.3,2.7 -3.2,2.5 -6.4,4.9 -9.6,7.3 -1.3,1 -1.6,1.9 0.1,3 0.9,0.6 1.8,1.4 2.5,2.2 5,5.5 10.6,10.1 17.2,13.4 0.5,0.1 0.8,0.4 1.2,0.7 z"
         id="path846"
         style="fill:#ffffff;stroke:#000000;stroke-width:0.5;stroke-miterlimit:10" /><path
         inkscape:connector-curvature="0"
         class="st5"
         d="m 168.8,289.4 c -1.2,-0.1 -2.5,-0.2 -3.8,-0.2 0,-0.3 0,-0.6 0,-0.9 1.2,-0.1 2.5,-0.2 3.9,-0.4 0,-6.4 0,-12.8 0,-19.3 -1.2,0 -2.4,0 -4,0 0.5,2.1 1,4 1.4,6 -2.1,-0.5 -4.3,-1 -6.4,-1.4 -1.3,-0.3 -2.7,-0.4 -4,-0.7 -1.6,-0.5 -3,-1.1 -4,-2.7 -0.5,-0.9 -1.8,-1.4 -2.4,-1.8 1,-1.1 2,-2.5 3.3,-3.3 1.7,-1 3.7,-1.6 5.6,-2.3 0.7,-0.2 1.5,-0.1 2.2,-0.3 1.8,-0.3 3.6,-0.7 5.5,-1 -0.4,1.8 -0.9,3.7 -1.4,5.8 1.5,0 2.7,0 4.1,0 0,-4.2 0,-8.5 0,-12.9 -2.6,-0.5 -5.4,0.4 -8,-0.8 2.5,-1.2 5.3,-0.3 8.1,-0.9 0,-1.4 -0.1,-2.9 0,-4.4 0,-0.4 0.4,-0.9 0.7,-1.3 0.2,0.4 0.7,0.8 0.7,1.3 0.1,2.7 0,5.3 0,8 0,11.8 0,23.6 0,35.4 0,0.7 -0.2,1.5 -0.2,2.2 -0.3,0 -0.6,0 -0.8,0.1 -0.1,-1.3 -0.3,-2.7 -0.5,-4.2 z"
         id="path848"
         style="fill:#ffffff;stroke:#000000;stroke-width:0.5;stroke-miterlimit:10" /><path
         inkscape:connector-curvature="0"
         class="st5"
         d="m 164.1,306 c 0.1,0.6 0.3,1.2 0.3,1.8 0,14.5 0,29 0,43.5 0,0.5 -0.5,1.1 -0.7,1.6 -0.2,-0.6 -0.6,-1.1 -0.6,-1.7 0,-14.4 0,-28.9 0,-43.3 0,-0.6 0.2,-1.2 0.3,-1.9 0.2,0 0.5,0 0.7,0 z"
         id="path850"
         style="fill:#ffffff;stroke:#000000;stroke-width:0.5;stroke-miterlimit:10" /><path
         inkscape:connector-curvature="0"
         class="st5"
         d="m 172,356.2 c 0,2.6 0,5.2 0,7.8 0,0.5 -0.4,0.9 -0.6,1.3 -0.2,-0.4 -0.7,-0.8 -0.7,-1.3 0,-5.3 -0.1,-10.6 0,-15.9 0,-0.4 0.5,-0.8 0.7,-1.2 0.2,0.5 0.5,0.9 0.6,1.4 0,2.6 0,5.2 0,7.9 z"
         id="path852"
         style="fill:#ffffff;stroke:#000000;stroke-width:0.5;stroke-miterlimit:10" /><path
         inkscape:connector-curvature="0"
         class="st5"
         d="m 172,319.7 c 0,2 0,4.1 0,6.1 0,0.5 -0.4,1 -0.7,1.4 -0.2,-0.4 -0.6,-0.9 -0.6,-1.3 0,-4.2 0,-8.4 0,-12.6 0,-0.5 0.4,-0.9 0.6,-1.4 0.2,0.5 0.7,0.9 0.7,1.4 0,2.1 0,4.2 0,6.4 z"
         id="path854"
         style="fill:#ffffff;stroke:#000000;stroke-width:0.5;stroke-miterlimit:10" /><path
         inkscape:connector-curvature="0"
         class="st5"
         d="m 168.3,306 c 0,2.1 0,4.2 0,6.3 0,0.4 -0.4,0.8 -0.6,1.1 -0.3,-0.4 -0.7,-0.7 -0.7,-1.1 -0.1,-4.4 0,-8.9 0,-13.3 0,-0.3 0.4,-0.6 0.6,-1 0.2,0.4 0.7,0.7 0.7,1.1 0.1,2.3 0,4.6 0,6.9 z"
         id="path856"
         style="fill:#ffffff;stroke:#000000;stroke-width:0.5;stroke-miterlimit:10" /><path
         inkscape:connector-curvature="0"
         class="st5"
         d="m 159.9,343 c 0.7,2.3 0.7,4.6 0.2,7.1 -1.2,-1.1 -1.3,-5.6 -0.2,-7.1 z"
         id="path858"
         style="fill:#ffffff;stroke:#000000;stroke-width:0.5;stroke-miterlimit:10" /></g><g
       id="g878"><path
         inkscape:connector-curvature="0"
         class="st5"
         d="m 183.3,392.6 c 0.4,-2.2 0.5,-3.8 0.9,-5.3 0.5,-2.2 2.3,-3.1 4.4,-2.2 3.1,1.3 9.4,0.1 11.9,-2.2 0.8,-0.8 0.7,-1.5 -0.1,-2 -2.8,-2 -6,-2.9 -9.4,-2.9 -0.5,0 -1.1,0.5 -1.5,0.9 -1.8,1.6 -4.1,1.2 -5,-1 -1.2,-2.9 -1.3,-5.9 -0.1,-8.9 0.8,-2 3.1,-2.9 4.5,-1.3 3,3.5 7.2,4.1 11.2,5.4 5.7,1.9 11.5,3.5 17.2,5.3 2.5,0.8 3.7,2.6 3.9,5.1 0.2,2.4 -1.4,3.9 -3.3,4.7 -4.4,1.7 -8.9,3.2 -13.5,4.6 -4,1.3 -8.1,2.3 -12.1,3.6 -1,0.3 -2,1.2 -2.8,2 -1.5,1.7 -3.5,1.7 -4.5,-0.4 -0.9,-1.8 -1.2,-3.9 -1.7,-5.4 z"
         id="path862"
         style="fill:#ffffff;stroke:#000000;stroke-width:0.5;stroke-miterlimit:10" /><path
         inkscape:connector-curvature="0"
         class="st5"
         d="m 221.1,284.1 c 0,2.7 0.1,5.3 0,8 -0.2,4.7 -3.1,6.7 -7.2,4.6 -6.3,-3.1 -12.9,-3.3 -19.6,-3.1 -2,0.1 -3.9,0.4 -5.2,2.4 -0.9,1.4 -2.8,1.4 -3.8,-0.1 -0.9,-1.3 -1.5,-2.9 -1.6,-4.4 -0.1,-2.3 0.1,-4.7 0.6,-7 0.5,-2.5 2.7,-3.1 4.8,-1.7 1.3,0.9 2.9,1.6 4.4,1.7 4.1,0.1 8.1,-0.3 12.2,-0.5 0.8,0 1.6,-0.4 2.3,-0.8 1.6,-0.8 2,-1.9 1.1,-3.5 -0.8,-1.3 -1.7,-2.6 -2.4,-4 -0.9,-1.8 -0.1,-3.8 1.9,-4.2 3.5,-0.7 7,-0.3 10.4,1 1.5,0.6 2.3,1.8 2.2,3.5 0,2.7 0,5.3 0,8 0,0.1 -0.1,0.1 -0.1,0.1 z"
         id="path864"
         style="fill:#ffffff;stroke:#000000;stroke-width:0.5;stroke-miterlimit:10" /><path
         inkscape:connector-curvature="0"
         class="st5"
         d="m 196.4,331.6 c -0.5,-0.7 -0.8,-1.3 -1.2,-1.7 -2.4,-2.6 -2.4,-5.6 -1.6,-8.7 0.6,-2.1 1.8,-3.2 3.9,-3.1 6.7,0.4 13,-1.5 19.3,-3.3 1.5,-0.4 2.8,-0.2 3.4,1.3 1.2,2.9 1.5,5.9 0.2,8.9 -1,2.3 -2.7,2.5 -5.2,2.1 -4.2,-0.8 -8.4,-1.2 -12.7,-1.4 -1.4,-0.1 -3.1,0.5 -3.3,2.4 -0.1,1.3 1.3,2.3 3.5,2.2 3,-0.2 6,-0.5 9,-1.1 2.8,-0.5 5.4,-0.7 7.4,1.6 2.3,2.4 2.3,5.4 1.6,8.4 -0.5,2.3 -2.4,3.1 -4.8,2.4 -3.2,-0.9 -6.4,-1.9 -9.6,-2.7 -2.3,-0.5 -4.5,-0.3 -6.2,1.8 -1,1.3 -2.5,1.1 -3.6,0.1 -2,-1.8 -3.1,-4.2 -3.3,-6.9 0,-0.5 0.7,-1.2 1.2,-1.7 0.5,-0.3 1.2,-0.4 2,-0.6 z"
         id="path866"
         style="fill:#ffffff;stroke:#000000;stroke-width:0.5;stroke-miterlimit:10" /><path
         inkscape:connector-curvature="0"
         class="st5"
         d="m 213.2,366.3 c -4.8,0 -9.2,-4 -10.5,-9.5 -0.6,-2.5 -2.1,-3.2 -4.2,-2.2 -1.3,0.6 -1.6,1.6 -0.6,2.7 0.7,0.8 1.6,1.3 2.4,2 1.4,1.1 1.9,2.7 1.2,3.9 -0.7,1.2 -2.4,1.5 -4,0.6 -0.9,-0.5 -1.9,-1.3 -2.4,-2.2 -2,-3.6 -2.6,-7.5 -1.3,-11.5 0.5,-1.6 1.6,-2.6 3.3,-2.9 0.7,-0.1 1.5,-0.4 2.2,-0.4 5.3,0.4 10.3,-1.2 15.2,-3 2.1,-0.8 3.9,-0.1 5.1,1.8 1.6,2.7 2.2,5.4 0.9,8.5 -0.4,1.1 -0.5,2.4 -0.3,3.6 1,4.9 -2,8.6 -7,8.6 z M 208,354.5 c -0.3,0.1 -1,0.4 -1.7,0.7 0.5,0.7 1,1.4 1.7,2 0.3,0.3 1,0.4 1.4,0.2 0.8,-0.3 1.4,-0.9 2.1,-1.4 -0.7,-0.5 -1.3,-1 -2,-1.3 -0.3,-0.2 -0.7,-0.1 -1.5,-0.2 z"
         id="path868"
         style="fill:#ffffff;stroke:#000000;stroke-width:0.5;stroke-miterlimit:10" /><path
         inkscape:connector-curvature="0"
         class="st5"
         d="m 221.4,245 c -0.3,1.5 -0.4,3.2 -0.9,4.8 -1,3.3 -3.8,4.5 -6.7,2.6 -2.5,-1.6 -5.2,-2.3 -8,-2.7 -1.2,-0.2 -1.8,0 -1.7,1.3 0.1,1.7 -1,2.2 -2.4,2.1 -1.3,-0.1 -2.5,-0.2 -2.4,-2 0.1,-1.7 -0.7,-2 -2.3,-1.4 -1.2,0.5 -2.6,0.9 -3.9,1.3 -3.8,1.2 -7.8,-1.2 -9.2,-5.3 -1.3,-4 0.5,-8.5 4.1,-9.7 1,-0.3 2.4,-0.4 3.4,0 2.6,0.8 3.1,3.2 1.2,5.1 -0.9,0.9 -2,1.5 -2.9,2.4 -0.4,0.4 -0.7,1.2 -0.5,1.6 0.2,0.4 1,0.8 1.5,0.8 3.4,0.2 7.4,-3.1 7.9,-6.6 0.2,-1.1 0.6,-1.7 1.8,-1.7 1.2,0.1 2.7,-0.1 2.9,1.6 0.2,1.6 0.9,1.7 2.3,1.6 3.1,-0.3 5.8,-1.1 8.3,-3.1 3.2,-2.6 5.6,-1.5 6.5,2.6 0.5,1.4 0.7,3 1,4.7 z"
         id="path870"
         style="fill:#ffffff;stroke:#000000;stroke-width:0.5;stroke-miterlimit:10" /><path
         inkscape:connector-curvature="0"
         class="st5"
         d="m 206.5,233.6 c -4.4,-0.3 -9.4,-2.1 -12.3,-7.5 -2.1,-4 -1.2,-9.1 2.1,-11.7 1.1,-0.8 2.5,-1.5 3.8,-1.8 2.3,-0.5 3.5,0.2 4.2,2.5 0.8,2.4 0.5,4.7 -0.4,7.1 -0.2,0.6 -0.4,1.6 0,2 0.4,0.4 1.4,0.5 2,0.4 3.6,-0.7 5,-3.7 3.5,-7 -0.5,-1.1 -0.7,-2.7 -0.3,-3.8 0.5,-1.5 2.2,-1.6 3.7,-1.4 5.4,0.4 9.6,6.8 8.1,12.5 -1.5,5.5 -6.3,8.7 -14.4,8.7 z m -5.8,-11.5 c 0,-0.2 0.1,-0.5 0,-0.7 -0.3,-0.7 -0.6,-1.3 -0.9,-2 -0.6,0.6 -1.2,1.1 -1.7,1.8 -0.2,0.2 -0.1,0.6 -0.1,0.9 0.2,1.2 0.2,2.8 1.8,2.8 1.5,0 0.7,-1.6 0.9,-2.6 0,-0.1 0,-0.2 0,-0.2 z"
         id="path872"
         style="fill:#ffffff;stroke:#000000;stroke-width:0.5;stroke-miterlimit:10" /><path
         inkscape:connector-curvature="0"
         class="st5"
         d="m 221.5,262.2 c -0.5,2 -0.8,4 -1.6,5.8 -0.9,2.1 -2.5,2.5 -4.7,1.8 -3.3,-1 -6.6,-2.1 -9.9,-2.8 -1.9,-0.4 -3.8,0.1 -5.1,1.9 -0.9,1.2 -2.2,0.9 -3.1,0 -2.7,-2.5 -3.9,-5.7 -3.8,-9.3 0,-1.5 1.4,-2.3 2.9,-2.2 1.5,0.1 3,0.3 4.4,0.7 3.7,1.2 7.1,0.2 10.5,-1.1 1.5,-0.6 3,-1.2 4.5,-1.8 2.4,-0.9 4.2,0 5,2.5 0.2,0.7 0.4,1.4 0.5,2.2 0.1,0.7 0.1,1.5 0.2,2.2 0,0 0.1,0.1 0.2,0.1 z"
         id="path874"
         style="fill:#ffffff;stroke:#000000;stroke-width:0.5;stroke-miterlimit:10" /><path
         inkscape:connector-curvature="0"
         class="st5"
         d="m 183.2,263.1 c 0.6,-1.5 0.8,-2.7 1.4,-3.7 0.9,-1.4 2.4,-1.7 3.9,-0.9 2.8,1.5 4.1,5.7 2.6,8.6 -1.1,2.1 -3.6,2.7 -5.1,0.9 -1.2,-1.4 -1.9,-3.3 -2.8,-4.9 z"
         id="path876"
         style="fill:#ffffff;stroke:#000000;stroke-width:0.5;stroke-miterlimit:10" /></g><path
       inkscape:connector-curvature="0"
       class="st5"
       d="M 230.8,416.9 V 195.1 c 0,-7.7 6.2,-13.9 13.9,-13.9 h 125.4 c 7.7,0 13.9,6.2 13.9,13.9 v 221.8 c 0,7.7 -6.2,13.9 -13.9,13.9 H 244.7 c -7.7,0 -13.9,-6.2 -13.9,-13.9 z"
       id="path880"
       style="fill:#ffffff;stroke:#000000;stroke-width:0.5;stroke-miterlimit:10" /><path
       inkscape:connector-curvature="0"
       class="st5"
       d="M 408,416.9 V 195.1 c 0,-7.7 6.2,-13.9 13.9,-13.9 h 125.4 c 7.7,0 13.9,6.2 13.9,13.9 v 221.8 c 0,7.7 -6.2,13.9 -13.9,13.9 H 421.9 c -7.7,0 -13.9,-6.2 -13.9,-13.9 z"
       id="path882"
       style="fill:#ffffff;stroke:#000000;stroke-width:0.5;stroke-miterlimit:10" /><g
       id="g910"><path
         inkscape:connector-curvature="0"
         class="st5"
         d="m 678.7,287.8 c -4.6,5.1 -10.1,8.8 -15.9,12.4 -3.6,2.2 -6.7,3.1 -10.9,2.6 -5.4,-0.6 -10.2,-2 -14.1,-5.8 -1,-1 -2.1,-1.8 -3.2,-2.5 -0.9,-0.6 -1.3,-1.3 -1.3,-2.4 0.1,-5.1 0,-10.2 0,-15.3 0,-2.9 0,-2.8 2.8,-4 1.5,-0.6 2.9,-1.5 4.3,-2.4 1.1,-0.7 2.1,-1.6 3.2,-2.3 0.8,-0.5 1.8,-0.8 2.7,-1.1 0,-0.2 0,-0.4 -0.1,-0.6 -1,-0.4 -2,-0.7 -3,-1.2 -0.8,-0.4 -1.9,-0.7 -2.3,-1.4 -0.8,-1.5 -2.1,-2.1 -3.5,-2.6 -1,-0.4 -2.1,-0.7 -3.1,-1.2 -0.4,-0.2 -1,-0.6 -1,-0.9 -0.1,-3 0,-6.1 0,-9.3 0.5,0.3 0.7,0.4 0.8,0.5 0.7,0.5 1.4,1 2.1,1.5 7.2,5.5 14.2,11.2 23.4,13.3 2.6,0.6 4.6,2.4 6.1,4.6 2.5,3.6 5.7,6.3 9.3,8.8 2.6,1.7 5,3.7 7.6,5.7 -1.4,1.4 -2.8,2.4 -3.9,3.6 z m -13,3.3 c 0.2,0.2 0.4,0.3 0.5,0.5 0.4,-0.4 0.9,-0.7 1.3,-1.1 1.8,-1.7 3.6,-3.4 5.4,-5.1 0.9,-0.8 0.9,-1.3 0,-2.1 -1.8,-1.5 -3.7,-2.9 -5.5,-4.4 -2.4,-2.2 -5,-4.2 -7.1,-6.7 -2.3,-2.8 -5.3,-4.1 -8.6,-5 -0.3,-0.1 -0.7,0.2 -1.1,0.3 0.2,0.3 0.4,0.8 0.7,0.9 0.8,0.4 1.9,0.4 2.6,0.9 1.8,1.1 3.8,2 5,3.6 2.4,2.9 5.1,5.4 8.2,7.5 1.7,1.1 3.2,2.5 5,3.8 -2.2,2.4 -4.9,4.1 -6.4,6.9 z"
         id="path884"
         style="fill:#ffffff;stroke:#000000;stroke-width:0.5;stroke-miterlimit:10" /><path
         inkscape:connector-curvature="0"
         class="st5"
         d="m 642.6,346.4 c -2.9,-0.5 -5.7,0.8 -8.4,-1 -0.1,0.3 -0.4,0.6 -0.4,0.9 0,2.7 0,5.3 0,8 0,0.4 0.4,0.7 0.6,1.1 0.2,-0.4 0.6,-0.8 0.6,-1.1 0.1,-2 0,-4.1 0,-6.5 1.1,0 2,0 3,0 2.4,0 4.7,-0.1 7.1,0 2.5,0.2 4.7,-0.1 6,-2.5 0.2,-0.3 0.9,-0.4 1.3,-0.5 -0.1,0.5 -0.2,1 -0.4,1.4 -0.2,0.5 -0.6,0.9 -1.1,1.4 1.2,0.2 2.2,0.3 3.2,0.4 0,0.2 0,0.5 0,0.7 -2,0 -4,0 -6,0 0,0.5 0,0.7 0.1,0.7 0.4,0.6 0.7,1.3 1.1,1.9 -0.7,-0.3 -1.5,-0.5 -2.1,-1 -1.2,-1.3 -2.6,-2 -4.3,-1.2 -0.9,0.4 -0.5,3.1 0.5,4.7 0.4,0.6 0.6,1.4 0.4,2.1 -0.4,2.1 0.3,4.1 1.9,5.3 1.7,1.2 3.9,1.1 5.7,-0.2 0.4,-0.3 1,-0.6 1.4,-0.5 3.7,0.6 5.1,-0.1 6.6,-3.4 4,-0.4 4.8,-1 5.8,-5.1 0.1,-0.4 0.5,-0.8 0.9,-1.1 2.9,-2.6 2.2,-6.8 -1.3,-8.3 -0.3,-0.1 -1,-0.3 -1,-0.4 -0.1,-2.9 -3,-3.7 -4.3,-5.7 -1.4,-2.1 -4.1,-2.6 -6.5,-1.4 -0.6,0.3 -1.4,0.4 -2,0.3 -4.6,-1.2 -9.4,3.3 -8.5,7.9 0.5,0.9 0.2,1.9 0.1,3.1 z"
         id="path886"
         style="fill:#ffffff;stroke:#000000;stroke-width:0.5;stroke-miterlimit:10" /><path
         inkscape:connector-curvature="0"
         class="st5"
         d="m 633.6,332.6 c 13.5,-8.3 22,-15.6 30.2,-26.1 -3.4,-0.7 -6.6,-1.9 -9.8,-2.1 -7,-0.3 -13.2,-2.1 -18.1,-7.3 -0.5,-0.5 -1.2,-0.9 -1.8,-1.4 -0.1,-0.1 -0.3,-0.1 -0.6,-0.2 0,9.6 0,19.1 0,29.1 1.2,-2.1 2.3,-3.8 3.2,-5.5 0.6,-1.1 1.3,-1.6 2.5,-1.3 2,0.6 3.7,0 5.4,-1.2 2.1,-1.5 4.3,-2.9 6.5,-4.3 0.5,-0.3 1.1,-0.6 1.7,-0.9 0.1,0.2 0.3,0.3 0.4,0.5 -0.3,0.4 -0.5,0.9 -0.9,1.2 -2.7,1.7 -5.4,3.4 -8.2,5.1 -1.3,0.8 -2.7,1.4 -4.4,0.9 -1,-0.3 -1.7,0.2 -2.2,1.1 -0.6,1.2 -1.2,2.5 -2,3.5 -2,2.7 -2.5,5.6 -1.9,8.9 z"
         id="path888"
         style="fill:#ffffff;stroke:#000000;stroke-width:0.5;stroke-miterlimit:10" /><path
         inkscape:connector-curvature="0"
         class="st5"
         d="m 661,263.9 c 2.2,1.8 4.4,2.4 7.2,2.2 12.3,-1.2 23.2,8.2 24.3,20.5 1.1,12.1 -7.6,23 -19.7,24.4 -2.5,0.3 -5.3,0.2 -7.7,-0.4 -2.5,-0.6 -4,0.1 -5.1,2.1 6.9,3.8 19.8,3.2 28.6,-5.4 8.9,-8.8 10.3,-23 3.3,-33.3 -6.8,-10.2 -20.2,-14.6 -30.9,-10.1 z"
         id="path890"
         style="fill:#ffffff;stroke:#000000;stroke-width:0.5;stroke-miterlimit:10" /><path
         inkscape:connector-curvature="0"
         class="st5"
         d="m 657,316 c 9.4,5.3 25.8,4.5 36.3,-7.7 9.7,-11.3 9.6,-28.6 -0.2,-39.8 -10.5,-11.9 -27.3,-13.1 -37.9,-6.5 1.9,0.8 3.5,1.3 5.6,0.5 18.7,-6.7 38.1,8 36.8,27.8 -1.2,18.3 -19.2,30.3 -36.6,24.4 -2.5,-0.8 -2.5,-0.8 -4,1.3 z"
         id="path892"
         style="fill:#ffffff;stroke:#000000;stroke-width:0.5;stroke-miterlimit:10" /><path
         inkscape:connector-curvature="0"
         class="st5"
         d="m 660,304.1 c 1.4,0.4 2.7,0.8 4.1,1.2 1.9,0.5 2,0.9 0.6,2.4 -0.3,0.3 -0.6,0.7 -1,1.1 7.2,3 17.4,0 22.8,-6.7 6,-7.4 6.4,-17.7 1.2,-25.5 -4.6,-6.8 -13.4,-10.8 -21.4,-8.9 1.3,2.1 2.3,3.7 5.4,3.8 7.9,0.3 15,7.6 15.5,15.5 0.5,8.9 -5.3,16.7 -13.6,18.3 -4.1,0.8 -7.9,0.2 -11.6,-1.6 -0.5,-0.3 -1.2,-0.3 -1.9,-0.4 -0.1,0.3 -0.1,0.6 -0.1,0.8 z"
         id="path894"
         style="fill:#ffffff;stroke:#000000;stroke-width:0.5;stroke-miterlimit:10" /><path
         inkscape:connector-curvature="0"
         class="st5"
         d="m 662.1,302.2 c 5,3.3 12.3,2.9 17.5,-1.1 5.3,-4.1 7.5,-11.1 5.4,-17.5 -2.1,-6.3 -7.9,-10.7 -14.8,-10.7 1.3,1.1 2.2,1.9 3.3,2.7 3.2,2.5 6.4,4.9 9.6,7.3 1.3,1 1.6,1.9 -0.1,3 -0.9,0.6 -1.8,1.4 -2.5,2.2 -5,5.5 -10.6,10.1 -17.2,13.4 -0.5,0.1 -0.8,0.4 -1.2,0.7 z"
         id="path896"
         style="fill:#ffffff;stroke:#000000;stroke-width:0.5;stroke-miterlimit:10" /><path
         inkscape:connector-curvature="0"
         class="st5"
         d="m 623.2,288.4 c 1.2,-0.1 2.5,-0.2 3.8,-0.2 0,-0.3 0,-0.6 0,-0.9 -1.2,-0.1 -2.5,-0.2 -3.9,-0.4 0,-6.4 0,-12.8 0,-19.3 1.2,0 2.4,0 4,0 -0.5,2.1 -1,4 -1.4,6 2.1,-0.5 4.3,-1 6.4,-1.4 1.3,-0.3 2.7,-0.4 4,-0.7 1.6,-0.5 3,-1.1 4,-2.7 0.5,-0.9 1.8,-1.4 2.4,-1.8 -1,-1.1 -2,-2.5 -3.3,-3.3 -1.7,-1 -3.7,-1.6 -5.6,-2.3 -0.7,-0.2 -1.5,-0.1 -2.2,-0.3 -1.8,-0.3 -3.6,-0.7 -5.5,-1 0.4,1.8 0.9,3.7 1.4,5.8 -1.5,0 -2.7,0 -4.1,0 0,-4.2 0,-8.5 0,-12.9 2.6,-0.5 5.4,0.4 8,-0.8 -2.5,-1.2 -5.3,-0.3 -8.1,-0.9 0,-1.4 0.1,-2.9 0,-4.4 0,-0.4 -0.4,-0.9 -0.7,-1.3 -0.2,0.4 -0.7,0.8 -0.7,1.3 -0.1,2.7 0,5.3 0,8 0,11.8 0,23.6 0,35.4 0,0.7 0.2,1.5 0.2,2.2 0.3,0 0.6,0 0.8,0.1 0.1,-1.3 0.3,-2.7 0.5,-4.2 z"
         id="path898"
         style="fill:#ffffff;stroke:#000000;stroke-width:0.5;stroke-miterlimit:10" /><path
         inkscape:connector-curvature="0"
         class="st5"
         d="m 627.9,305 c -0.1,0.6 -0.3,1.2 -0.3,1.8 0,14.5 0,29 0,43.5 0,0.5 0.5,1.1 0.7,1.6 0.2,-0.6 0.6,-1.1 0.6,-1.7 0,-14.4 0,-28.9 0,-43.3 0,-0.6 -0.2,-1.2 -0.3,-1.9 -0.2,0 -0.5,0 -0.7,0 z"
         id="path900"
         style="fill:#ffffff;stroke:#000000;stroke-width:0.5;stroke-miterlimit:10" /><path
         inkscape:connector-curvature="0"
         class="st5"
         d="m 620,355.2 c 0,2.6 0,5.2 0,7.8 0,0.5 0.4,0.9 0.6,1.3 0.2,-0.4 0.7,-0.8 0.7,-1.3 0,-5.3 0.1,-10.6 0,-15.9 0,-0.4 -0.5,-0.8 -0.7,-1.2 -0.2,0.5 -0.5,0.9 -0.6,1.4 0,2.6 0,5.2 0,7.9 z"
         id="path902"
         style="fill:#ffffff;stroke:#000000;stroke-width:0.5;stroke-miterlimit:10" /><path
         inkscape:connector-curvature="0"
         class="st5"
         d="m 620,318.7 c 0,2 0,4.1 0,6.1 0,0.5 0.4,1 0.7,1.4 0.2,-0.4 0.6,-0.9 0.6,-1.3 0,-4.2 0,-8.4 0,-12.6 0,-0.5 -0.4,-0.9 -0.6,-1.4 -0.2,0.5 -0.7,0.9 -0.7,1.4 0,2.1 0,4.2 0,6.4 z"
         id="path904"
         style="fill:#ffffff;stroke:#000000;stroke-width:0.5;stroke-miterlimit:10" /><path
         inkscape:connector-curvature="0"
         class="st5"
         d="m 623.7,305 c 0,2.1 0,4.2 0,6.3 0,0.4 0.4,0.8 0.6,1.1 0.3,-0.4 0.7,-0.7 0.7,-1.1 0.1,-4.4 0,-8.9 0,-13.3 0,-0.3 -0.4,-0.6 -0.6,-1 -0.2,0.4 -0.7,0.7 -0.7,1.1 -0.1,2.3 0,4.6 0,6.9 z"
         id="path906"
         style="fill:#ffffff;stroke:#000000;stroke-width:0.5;stroke-miterlimit:10" /><path
         inkscape:connector-curvature="0"
         class="st5"
         d="m 632,342 c -0.7,2.3 -0.7,4.6 -0.2,7.1 1.3,-1.1 1.4,-5.6 0.2,-7.1 z"
         id="path908"
         style="fill:#ffffff;stroke:#000000;stroke-width:0.5;stroke-miterlimit:10" /></g><g
       id="g946"><path
         inkscape:connector-curvature="0"
         class="st5"
         d="m 584,208.5 2.3,1.5 3.8,2.3 1.5,0.7 2.3,0.8 h 1.5 l 0.8,-0.8 -0.8,-1.5 -1.5,-0.8 -3,-0.8 -4.5,-0.8 -6,-0.8 m -0.2,0.2 2.3,0.8 1.5,0.8 2.3,1.5 0.8,1.5 v 1.5 l -0.8,0.7 h -1.5 l -2.3,-0.7 H 581 l -0.8,0.7 v 0.7 l 0.8,1.5 0.8,0.7 2.3,1.5"
         id="path912"
         style="fill:#ffffff;stroke:#000000;stroke-width:0.5;stroke-miterlimit:10" /><path
         inkscape:connector-curvature="0"
         class="st5"
         d="m 584.7,226.6 1.5,-0.7 0.8,-1.5 v -1.5 l -0.8,-1.5 -0.8,-0.8 -1.5,-0.8 h -1.5 l -1.5,0.8 -0.8,1.5 v 1.5 l 0.8,1.5 1.5,0.8 4.5,1.5 -3.8,-0.7 H 581 l -0.8,0.7 v 0.8 l 0.8,1.5 0.8,0.7 2.3,1.5"
         id="path914"
         style="fill:#ffffff;stroke:#000000;stroke-width:0.5;stroke-miterlimit:10" /><path
         inkscape:connector-curvature="0"
         class="st5"
         d="m 584,231.9 2.3,1.5 0.8,1.5 -0.8,0.7 h -0.8 l -3,-0.7 -2.3,-0.8 m 2.3,0.8 1.5,0.7 2.3,1.5 0.8,1.5 v 1.5 l -0.8,0.8 h -1.5 l -2.3,-0.8 H 581 l -0.8,0.8 v 0.7 l 0.8,1.5 0.8,0.8 2.3,1.5"
         id="path916"
         style="fill:#ffffff;stroke:#000000;stroke-width:0.5;stroke-miterlimit:10" /><path
         inkscape:connector-curvature="0"
         class="st5"
         d="m 584.7,252.3 1.5,-0.7 0.8,-1.5 v -1.5 l -0.8,-1.5 -0.8,-0.8 -1.5,-0.8 h -1.5 l -1.5,0.8 -0.8,1.5 v 1.5 l 0.8,1.5 1.5,0.8 13.6,4.5 m -9,-3 -3.8,-0.7 H 581 l -0.8,0.7 v 0.8 l 0.8,1.5 0.8,0.7 2.3,1.5"
         id="path918"
         style="fill:#ffffff;stroke:#000000;stroke-width:0.5;stroke-miterlimit:10" /><path
         inkscape:connector-curvature="0"
         class="st5"
         d="m 584,257.6 2.3,1.5 0.8,1.5 -0.8,0.7 h -0.8 l -3,-0.7 -2.3,-0.8 m 2.3,0.8 1.5,0.7 2.3,1.5 0.8,1.5 v 1.5 l -0.8,0.8 h -0.8 l -3,-0.8 -2.3,-0.8 m 2.3,0.9 1.5,0.8 2.3,1.5 0.8,1.5 v 1.5 l -0.8,0.8 h -1.5 l -2.3,-0.8 H 581 l -0.8,0.8 v 0.8 l 0.8,1.5 0.8,0.8 2.3,1.5"
         id="path920"
         style="fill:#ffffff;stroke:#000000;stroke-width:0.5;stroke-miterlimit:10" /><path
         inkscape:connector-curvature="0"
         class="st5"
         d="m 584.7,283.3 1.5,-0.7 0.8,-1.5 v -1.5 l -0.8,-1.5 -0.8,-0.8 -1.5,-0.8 h -1.5 l -1.5,0.8 -0.8,1.5 v 1.5 l 0.8,1.5 1.5,0.8 4.5,1.5 -3.8,-0.7 H 581 l -0.8,0.7 v 0.8 l 0.8,1.5 0.8,0.7 2.3,1.5"
         id="path922"
         style="fill:#ffffff;stroke:#000000;stroke-width:0.5;stroke-miterlimit:10" /><path
         inkscape:connector-curvature="0"
         class="st5"
         d="m 584.7,295.4 1.5,-0.7 0.8,-1.5 v -1.5 l -0.8,-1.5 -0.8,-0.8 -1.5,-0.8 h -1.5 l -1.5,0.8 -0.8,1.5 v 1.5 l 0.8,1.5 1.5,0.8 13.6,4.5 m -9,-3 -3.8,-0.7 H 581 l -0.8,0.7 v 0.8 l 0.8,1.5 0.8,0.7 2.3,1.5"
         id="path924"
         style="fill:#ffffff;stroke:#000000;stroke-width:0.5;stroke-miterlimit:10" /><path
         inkscape:connector-curvature="0"
         class="st5"
         d="m 581.7,301.5 0.8,1.5 0.8,0.8 1.5,0.7 h 1.5 l 0.8,-0.7 V 303 l -0.8,-1.5 -1.5,-0.8 h -2.3 l -1.5,0.8 -0.8,1.5 v 1.5 l 0.8,1.5 0.8,0.8 2.3,1.5"
         id="path926"
         style="fill:#ffffff;stroke:#000000;stroke-width:0.5;stroke-miterlimit:10" /><path
         inkscape:connector-curvature="0"
         class="st5"
         d="m 584,317.3 2.3,1.5 3.8,2.3 1.5,0.7 2.3,0.8 h 1.5 l 0.8,-0.8 -0.8,-1.5 -1.5,-0.8 -3,-0.8 -5.3,-0.8 H 581 l -0.8,0.8 v 0.8 l 0.8,1.5 1.5,1.5 2.3,0.8 h 2.3 l -3,0.7 -0.8,0.7 v 1.5 l 0.8,1.5"
         id="path928"
         style="fill:#ffffff;stroke:#000000;stroke-width:0.5;stroke-miterlimit:10" /><path
         inkscape:connector-curvature="0"
         class="st5"
         d="m 584,327.9 3,1.5 -4.5,-1.5 H 581 l -0.8,0.8 v 1.5 l 0.8,1.5 1.5,1.5 2.3,1.5 m 2.2,0.8 -13.6,-4.5 -1.5,-0.8 -0.8,-1.5 0.8,-0.8 h 1.5 l 2.3,0.8 2.3,2.3 1.5,2.3 0.8,1.5 1.5,2.3 2.3,2.3"
         id="path930"
         style="fill:#ffffff;stroke:#000000;stroke-width:0.5;stroke-miterlimit:10" /><path
         inkscape:connector-curvature="0"
         class="st5"
         d="m 581.7,349.1 0.8,1.5 0.8,0.8 1.5,0.7 h 1.5 l 0.8,-0.7 v -0.8 l -0.8,-1.5 -1.5,-0.8 h -2.3 l -1.5,0.8 -0.8,1.5 v 1.5 l 0.8,1.5 0.8,0.8 2.3,1.5"
         id="path932"
         style="fill:#ffffff;stroke:#000000;stroke-width:0.5;stroke-miterlimit:10" /><path
         inkscape:connector-curvature="0"
         class="st5"
         d="m 581.7,359.7 -0.8,-0.7 -0.8,0.7 0.8,0.7 0.8,-0.7"
         id="path934"
         style="fill:#ffffff;stroke:#000000;stroke-width:0.5;stroke-miterlimit:10" /><path
         inkscape:connector-curvature="0"
         class="st5"
         d="m 584,363.5 2.3,1.5 1.5,0.8 h -1.5 v 2.3 l -0.8,0.8 H 584 l -2.3,-0.8 H 581 l -0.8,0.8 v 0.8 l 0.8,1.5 0.8,0.8 2.3,1.5"
         id="path936"
         style="fill:#ffffff;stroke:#000000;stroke-width:0.5;stroke-miterlimit:10" /><path
         inkscape:connector-curvature="0"
         class="st5"
         d="M 590.8,375.6 H 590 v 0.8 h 0.7 v -0.8 m -6.7,-2.3 3,1.5 -4.5,-1.5 H 581 l -0.8,0.8 v 0.8 l 0.8,1.5 0.8,0.7 2.3,1.5"
         id="path938"
         style="fill:#ffffff;stroke:#000000;stroke-width:0.5;stroke-miterlimit:10" /><path
         inkscape:connector-curvature="0"
         class="st5"
         d="m 584,378.6 2.3,1.5 3.8,2.3 1.5,0.7 2.3,0.8 h 1.5 l 0.8,-0.8 -0.8,-1.5 -1.5,-0.8 -3,-0.8 -5.3,-0.8 H 581 l -0.8,0.8 v 0.8 l 0.8,1.5 0.8,0.7 2.3,1.5"
         id="path940"
         style="fill:#ffffff;stroke:#000000;stroke-width:0.5;stroke-miterlimit:10" /><path
         inkscape:connector-curvature="0"
         class="st5"
         d="m 581.7,385.4 0.8,1.5 0.8,0.8 1.5,0.7 h 1.5 l 0.8,-0.7 v -0.8 l -0.8,-1.5 -1.5,-0.8 h -2.3 l -1.5,0.8 -0.8,1.5 v 1.5 l 0.8,1.5 0.8,0.8 2.3,1.5"
         id="path942"
         style="fill:#ffffff;stroke:#000000;stroke-width:0.5;stroke-miterlimit:10" /><path
         inkscape:connector-curvature="0"
         class="st5"
         d="m 584,392.2 3,1.5 -4.5,-1.5 H 581 l -0.8,0.8 v 1.5 l 0.8,1.5 1.5,1.5 2.3,1.5 m 2.2,0.7 -13.6,-4.5 -1.5,-0.8 -0.8,-1.5 0.8,-0.8 h 1.5 l 2.3,0.8 2.3,2.3 1.5,2.3 0.8,1.5 1.5,2.3 2.3,2.3"
         id="path944"
         style="fill:#ffffff;stroke:#000000;stroke-width:0.5;stroke-miterlimit:10" /></g></g></g></svg>