<?xml version="1.0" encoding="UTF-8" standalone="no"?>
<!-- Generator: Adobe Illustrator 24.2.0, SVG Export Plug-In . SVG Version: 6.00 Build 0)  -->

<svg
   xmlns:dc="http://purl.org/dc/elements/1.1/"
   xmlns:cc="http://creativecommons.org/ns#"
   xmlns:rdf="http://www.w3.org/1999/02/22-rdf-syntax-ns#"
   xmlns:svg="http://www.w3.org/2000/svg"
   xmlns="http://www.w3.org/2000/svg"
   xmlns:sodipodi="http://sodipodi.sourceforge.net/DTD/sodipodi-0.dtd"
   xmlns:inkscape="http://www.inkscape.org/namespaces/inkscape"
   version="1.1"
   x="0px"
   y="0px"
   viewBox="0 0 1056 816"
   xml:space="preserve"
   id="svg949"
   sodipodi:docname="Bubble Pack er cut2.svg"
   width="11in"
   height="8.5in"
   inkscape:version="0.92.4 (5da689c313, 2019-01-14)"><metadata
   id="metadata955"><rdf:RDF><cc:Work
       rdf:about=""><dc:format>image/svg+xml</dc:format><dc:type
         rdf:resource="http://purl.org/dc/dcmitype/StillImage" /><dc:title></dc:title></cc:Work></rdf:RDF></metadata><defs
   id="defs953" /><sodipodi:namedview
   pagecolor="#ffffff"
   bordercolor="#666666"
   borderopacity="1"
   objecttolerance="10"
   gridtolerance="10"
   guidetolerance="10"
   inkscape:pageopacity="0"
   inkscape:pageshadow="2"
   inkscape:window-width="1243"
   inkscape:window-height="725"
   id="namedview951"
   showgrid="false"
   units="in"
   inkscape:document-units="in"
   inkscape:zoom="0.43385392"
   inkscape:cx="330.80692"
   inkscape:cy="103.19313"
   inkscape:window-x="564"
   inkscape:window-y="109"
   inkscape:window-maximized="0"
   inkscape:current-layer="layer2" />
<style
   type="text/css"
   id="style815">
	.st0{fill:#FFFFFF;}
	.st1{fill:#FFFFFF;stroke:#FF0000;stroke-width:1.3333;stroke-miterlimit:13.3333;}
	.st2{fill:#FFFFFF;stroke:#FF0000;stroke-width:1.3333;stroke-miterlimit:5.3333;}
	.st3{fill:#FFFFFF;stroke:#FF0000;stroke-width:1.000000e-03;stroke-miterlimit:10;}
	.st4{fill:#FFFFFF;stroke:#000000;stroke-width:0.5;stroke-miterlimit:13.3333;}
	.st5{fill:#FFFFFF;stroke:#000000;stroke-width:0.5;stroke-miterlimit:10;}
</style>


<g
   inkscape:groupmode="layer"
   id="layer2"
   inkscape:label="cut"
   transform="translate(0,204)"
   style="display:inline"><g
     id="Layer_1"
     inkscape:version="0.92.4 (5da689c313, 2019-01-14)"
     sodipodi:docname="Bubble Pack templatev2.svg"
     transform="matrix(1.3333334,0,0,1.3333334,0,-204.00002)"><g
       id="Layer_2_1_"
       transform="scale(1.3333333)"><rect
         x="0"
         id="rect4"
         y="0"
         class="st0"
         width="594"
         height="459"
         style="fill:#ffffff" /></g><g
       id="svg15158"
       transform="scale(1.3333333)"
       inkscape:version="0.91 r13725"
       sodipodi:docname="AxiDraw_First.svg"><path
         id="path11"
         inkscape:connector-curvature="0"
         class="st1"
         d="m 56.6,146 v 12.6 H 44.7 c -17.2,0 -31.2,14.1 -31.2,31.3 v 79.4 c 0,17.2 14,31.2 31.2,31.2 h 11.9 v 12.7 c 0,17.2 14,31.2 31.2,31.2 h 130.8 12.1 275.4 c 17.2,0 31.2,-14 31.2,-31.2 v -12.6 h 11.9 c 17.2,0 31.2,-14 31.2,-31.2 V 190 c 0,-17.2 -14,-31.2 -31.2,-31.2 H 537.3 V 146.2 C 537.3,129 523.3,115 506.1,115 H 230.7 218.6 87.9 c -17.2,-0.2 -31.3,13.9 -31.3,31 z"
         style="fill:#ffffff;stroke:#ff0000;stroke-width:1.33329999;stroke-miterlimit:13.33329964" /><path
         id="path7"
         inkscape:connector-curvature="0"
         class="st1"
         d="m 43.4,204 v 15.9 c -0.1,0 -0.1,0 -0.1,0 -5.3,0 -9.7,4.3 -9.7,9.7 0,5.3 4.4,9.7 9.7,9.7 0.1,0 0.1,0 0.2,0 v 15.9 c 0,2.8 2.3,5 5,5 h 1.9 c 2.8,0 5,-2.3 5,-5 V 204 c 0,-2.8 -2.3,-5 -5,-5 h -1.9 c -2.8,0 -5.1,2.2 -5.1,5 z"
         style="fill:#ffffff;stroke:#ff0000;stroke-width:1.33329999;stroke-miterlimit:13.33329964" /><path
         id="path9"
         inkscape:connector-curvature="0"
         class="st1"
         d="m 550.6,255.2 v -15.9 c 0.1,0 0.1,0 0.2,0 5.3,0 9.7,-4.3 9.7,-9.7 0,-5.3 -4.3,-9.7 -9.7,-9.7 -0.1,0 -0.1,0 -0.2,0 V 204 c 0,-2.8 -2.3,-5 -5,-5 h -1.9 c -2.8,0 -5,2.3 -5,5 v 51.2 c 0,2.8 2.3,5 5,5 h 1.9 c 2.7,0 5,-2.3 5,-5 z"
         style="fill:#ffffff;stroke:#ff0000;stroke-width:1.33329999;stroke-miterlimit:13.33329964" /><g
         id="g19"><line
           id="line13"
           class="st2"
           x1="297"
           y1="343.70001"
           x2="297"
           y2="341.5"
           style="fill:#ffffff;stroke:#ff0000;stroke-width:1.33329999;stroke-miterlimit:5.33330011" /><line
           id="line15"
           class="st2"
           x1="297"
           y1="336.79999"
           x2="297"
           y2="119.3"
           style="fill:#ffffff;stroke:#ff0000;stroke-width:1.33329999;stroke-miterlimit:5.33330011" /><line
           id="line17"
           class="st2"
           x1="297"
           y1="116.9"
           x2="297"
           y2="114.7"
           style="fill:#ffffff;stroke:#ff0000;stroke-width:1.33329999;stroke-miterlimit:5.33330011" /></g></g><rect
       x="240.8"
       y="191.2"
       class="st3"
       width="133.2"
       height="229.60001"
       id="rect827" /><rect
       x="418"
       y="191.2"
       class="st3"
       width="133.2"
       height="229.60001"
       id="rect829" /></g></g></svg>