<?xml version="1.0" encoding="utf-8"?>
<!-- Generator: Adobe Illustrator 16.2.1, SVG Export Plug-In . SVG Version: 6.00 Build 0)  -->
<!DOCTYPE svg PUBLIC "-//W3C//DTD SVG 1.1//EN" "http://www.w3.org/Graphics/SVG/1.1/DTD/svg11.dtd">
<svg version="1.1" id="Layer_1" xmlns="http://www.w3.org/2000/svg" xmlns:xlink="http://www.w3.org/1999/xlink" x="0px" y="0px"
	 width="792px" height="612px" viewBox="0 0 792 612" enable-background="new 0 0 792 612" xml:space="preserve">
<g id="Layer_1_2_">
	<g id="Layer_2_2_">
	</g>
	
		<g id="Layer_1_1_" xmlns:rdf="http://www.w3.org/1999/02/22-rdf-syntax-ns#" xmlns:dc="http://purl.org/dc/elements/1.1/" xmlns:sodipodi="http://sodipodi.sourceforge.net/DTD/sodipodi-0.dtd" xmlns:svg="http://www.w3.org/2000/svg" xmlns:cc="http://creativecommons.org/ns#" xmlns:osb="http://www.openswatchbook.org/uri/2009/osb" xmlns:inkscape="http://www.inkscape.org/namespaces/inkscape" sodipodi:docname="Bubble Pack templatev2.svg" inkscape:version="0.92.4 (5da689c313, 2019-01-14)">
		<g id="Layer_2_1_" transform="scale(1.3333333)">
			<rect id="rect4" fill="#FFFFFF" width="594" height="459"/>
		</g>
	</g>
</g>
<g id="pen">
	<g>
		<path fill="none" stroke="#000000" stroke-miterlimit="10" d="M379.5,369.9v-8.2h-0.9l-0.9,0.7l-0.5,0.699l-0.5,1.4v2.1l0.5,1.301
			l1,1.399L379.5,369.9h0.9l1.4-0.7l0.9-1.4l0.5-1.3v-2.1l-0.5-1.4l-0.9-1.4"/>
		<path fill="none" stroke="#000000" stroke-miterlimit="10" d="M380.9,356.9l0.5,0.699l0.5-0.699l-0.5-0.7L380.9,356.9"/>
		<path fill="none" stroke="#000000" stroke-miterlimit="10" d="M376.7,343.3h6.5 M379.5,343.3l-1.4-0.7l-1-1.399l-0.5-1.4v-2"/>
		<path fill="none" stroke="#000000" stroke-miterlimit="10" d="M373.4,335l0.5-0.7l-0.5-0.7l-0.5,0.7L373.4,335 M376.7,334.4h6.5"
			/>
		<path fill="none" stroke="#000000" stroke-miterlimit="10" d="M373.4,328.9h9.8"/>
		<path fill="none" stroke="#000000" stroke-miterlimit="10" d="M379.5,324.1V315.9h-0.9l-0.9,0.699l-0.5,0.7l-0.5,1.4v2.1l0.5,1.3
			l1,1.4L379.5,324.1h0.9l1.4-0.699l0.9-1.4l0.5-1.3V318.6l-0.5-1.399l-0.9-1.4"/>
		<path fill="none" stroke="#000000" stroke-miterlimit="10" d="M376.7,312.5l6.5-4.1 M376.7,304.3l6.5,4.101l1.9,1.3l0.9,1.399
			l0.5,1.301v0.699"/>
		<path fill="none" stroke="#000000" stroke-miterlimit="10" d="M375.7,292h-0.5l-0.9-0.7l-0.5-0.7l-0.5-1.3v-2.7l0.5-1.4l0.5-0.7
			l0.9-0.7h1l0.9,0.7l1.4,1.4l4.7,6.8v-9.6"/>
		<path fill="none" stroke="#000000" stroke-miterlimit="10" d="M373.4,274.9l0.5,2l1.4,1.4l2.3,0.7h1.4l2.3-0.7l1.4-1.4l0.5-2v-1.4
			l-0.5-2.1l-1.4-1.3l-2.3-0.7h-1.4l-2.3,0.7l-1.4,1.3l-0.5,2.1V274.9"/>
		<path fill="none" stroke="#000000" stroke-miterlimit="10" d="M375.7,264.7h-0.5l-0.9-0.7l-0.5-0.7l-0.5-1.3v-2.7l0.5-1.4l0.5-0.7
			l0.9-0.7h1l0.9,0.7l1.4,1.4l4.7,6.8v-9.6"/>
		<path fill="none" stroke="#000000" stroke-miterlimit="10" d="M375.7,251h-0.5l-0.9-0.7l-0.5-0.7l-0.5-1.3v-2.7l0.5-1.4l0.5-0.7
			l0.9-0.7h1l0.9,0.7l1.4,1.4l4.7,6.8v-9.6"/>
	</g>
	<path fill="none" stroke="#000000" stroke-miterlimit="10" d="M22.6,252.8c0-20.5,16.6-37.1,37.1-37.1h20.4v-21.3
		c0-20.5,16.6-37.1,37.1-37.1h557.7c20.5,0,37.1,16.6,37.1,37.1v21.4h20.4c20.5,0,37.1,16.6,37.1,37.1v105.9
		c0,20.5-16.6,37.2-37.1,37.2H712v21.3c0,9.9-3.9,19.2-11,26.2s-16.4,10.8-26.2,10.6H117.2c-20.5,0-37.1-16.6-37.1-37.1v-21.3H59.7
		c-20.5,0-37.1-16.601-37.1-37.101V252.8z"/>
</g>
</svg>
