<?xml version="1.0" encoding="utf-8"?>
<!-- Generator: Adobe Illustrator 24.3.0, SVG Export Plug-In . SVG Version: 6.00 Build 0)  -->
<svg version="1.1" xmlns="http://www.w3.org/2000/svg" xmlns:xlink="http://www.w3.org/1999/xlink" x="0px" y="0px"
	 viewBox="0 0 792 612" style="enable-background:new 0 0 792 612;" xml:space="preserve">
<style type="text/css">
	.st0{fill:#FFFFFF;}
	.st1{fill:#FFFFFF;stroke:#FF0000;stroke-width:1.7777;stroke-miterlimit:17.7777;}
	.st2{fill:none;stroke:#FF0000;stroke-width:1.7777;stroke-miterlimit:7.1111;}
	.st3{fill:none;stroke:#FF0000;stroke-miterlimit:10;}
	.st4{fill:none;stroke:#000000;stroke-miterlimit:10;}
</style>
<g id="Layer_1">
	<g id="Layer_2_2_">
	</g>
	
		<g id="Layer_1_1_" inkscape:version="0.92.4 (5da689c313, 2019-01-14)" sodipodi:docname="Bubble Pack templatev2.svg" xmlns:cc="http://creativecommons.org/ns#" xmlns:dc="http://purl.org/dc/elements/1.1/" xmlns:inkscape="http://www.inkscape.org/namespaces/inkscape" xmlns:osb="http://www.openswatchbook.org/uri/2009/osb" xmlns:rdf="http://www.w3.org/1999/02/22-rdf-syntax-ns#" xmlns:sodipodi="http://sodipodi.sourceforge.net/DTD/sodipodi-0.dtd" xmlns:svg="http://www.w3.org/2000/svg">
		<g id="Layer_2_1_" transform="scale(1.3333333)">
			<rect id="rect4" y="0" class="st0" width="594" height="459"/>
		</g>
		<g id="svg15158" transform="scale(1.3333333)" inkscape:version="0.91 r13725" sodipodi:docname="AxiDraw_First.svg">
			<path id="path11" inkscape:connector-curvature="0" class="st1" d="M537.4,313v-12.6h11.9c17.2,0,31.2-14.1,31.2-31.3v-79.4
				c0-17.2-14-31.2-31.2-31.2h-11.9v-12.7c0-17.2-14-31.2-31.2-31.2H375.4h-12.1H87.9c-17.2,0-31.2,14-31.2,31.2v12.6H44.8
				c-17.2,0-31.2,14-31.2,31.2V269c0,17.2,14,31.2,31.2,31.2h11.9v12.6c0,17.2,14,31.2,31.2,31.2h275.4h12.1h130.7
				C523.3,344.2,537.4,330.1,537.4,313L537.4,313z"/>
			<path id="path7" inkscape:connector-curvature="0" class="st1" d="M550.6,255v-15.9c0.1,0,0.1,0,0.1,0c5.3,0,9.7-4.3,9.7-9.7
				c0-5.3-4.4-9.7-9.7-9.7c-0.1,0-0.1,0-0.2,0v-15.9c0-2.8-2.3-5-5-5h-1.9c-2.8,0-5,2.3-5,5V255c0,2.8,2.3,5,5,5h1.9
				C548.3,260,550.6,257.8,550.6,255z"/>
			<path id="path9" inkscape:connector-curvature="0" class="st1" d="M43.4,203.8v15.9c-0.1,0-0.1,0-0.2,0c-5.3,0-9.7,4.3-9.7,9.7
				c0,5.3,4.3,9.7,9.7,9.7c0.1,0,0.1,0,0.2,0V255c0,2.8,2.3,5,5,5h1.9c2.8,0,5-2.3,5-5v-51.2c0-2.8-2.3-5-5-5h-1.9
				C45.7,198.8,43.4,201.1,43.4,203.8z"/>
			<g id="g19">
				<line id="line13" class="st2" x1="297" y1="115.3" x2="297" y2="117.5"/>
				<line id="line15" class="st2" x1="297" y1="122.2" x2="297" y2="339.7"/>
				<line id="line17" class="st2" x1="297" y1="342.1" x2="297" y2="344.3"/>
			</g>
		</g>
	</g>
	<path class="st3" d="M427.5,205.6c0-10.4,8.5-18.9,18.9-18.9h104.4c10.4,0,18.9,8.5,18.9,18.9v200.8c0,10.4-8.5,18.9-18.9,18.9
		H446.4c-10.4,0-18.9-8.5-18.9-18.9V205.6z"/>
	<path class="st3" d="M222.3,205.6c0-10.4,8.5-18.9,18.9-18.9h104.4c10.4,0,18.9,8.5,18.9,18.9v200.8c0,10.4-8.5,18.9-18.9,18.9
		H241.2c-10.4,0-18.9-8.5-18.9-18.9V205.6z"/>
</g>
<g id="vinyl">
	
		<rect x="467.2" y="254.6" transform="matrix(-1.836970e-16 1 -1 -1.836970e-16 940.2802 -328.2802)" class="st4" width="334.1" height="102.8"/>
	
		<image style="overflow:visible;" width="453" height="310" xlink:href="../Desktop/unnamed-1.jpg"  transform="matrix(0 7.560484e-04 -7.560484e-04 0 595.7009 305.8288)">
	</image>
	<g>
		<path d="M621.4,230c-0.3,1.9-0.5,3.4-0.8,4.8c-0.4,1.8-2.1,2.6-3.8,1.8c-3.9-1.8-7.2,0.2-10.4,1.9c-0.8,0.4-0.7,1.2,0,1.7
			c2.5,1.8,5.3,2.7,8.4,2.6c0.4,0,0.9-0.5,1.3-0.9c1.6-1.3,3.5-1,4.3,0.9c1.1,2.6,1.2,5.3,0.1,7.9c-0.7,1.7-2.7,2.4-3.8,1.1
			c-2.7-3.1-6.4-3.7-9.9-4.8c-5-1.6-10.1-3-15.1-4.7c-1.1-0.4-2.2-1.4-2.8-2.5c-1.3-2.4-0.8-4.3,1.6-5.5c3.2-1.6,6.7-2.8,10.1-3.9
			c4.2-1.4,8.6-2.4,12.8-3.7c1-0.3,1.9-1,2.6-1.8c1.4-1.5,3.1-1.6,4,0.3C620.8,226.9,621,228.7,621.4,230z"/>
		<path d="M588.3,325.3c0-2.4-0.1-4.8,0-7.2c0.2-4,2.7-5.7,6.3-3.9c5.4,2.7,11.2,2.9,17,2.8c1.9,0,3.6-0.4,4.8-2.2
			c0.7-1.1,2.1-1.1,2.8-0.1c0.8,1.1,1.7,2.4,1.8,3.7c0.2,2.3-0.1,4.7-0.5,6.9c-0.4,1.9-2.4,2.3-4,1.3c-1.2-0.7-2.5-1.5-3.8-1.6
			c-3.7-0.1-7.3,0.3-11,0.5c-0.5,0-0.9,0.3-1.4,0.4c-2,0.8-2.4,1.8-1.2,3.7c0.6,1,1.4,2,1.9,3c0.8,1.6,0.1,3.3-1.7,3.7
			c-3.1,0.6-6.2,0.3-9.1-0.9c-1.4-0.6-2-1.7-2-3.2c0-2.3,0-4.6,0-6.9C588.2,325.3,588.3,325.3,588.3,325.3z"/>
		<path d="M609.9,283.5c0.5,0.7,0.7,1.2,1,1.5c2.1,2.3,2.1,5,1.4,7.8c-0.4,1.7-1.7,2.7-3.3,2.6c-6-0.4-11.5,1.4-17.1,2.9
			c-1.3,0.3-2.4,0.1-2.9-1.1c-1.1-2.5-1.4-5.1-0.3-7.6c0.9-2.3,2.4-2.5,4.7-2c3.6,0.7,7.3,1,11,1.2c1.8,0.1,3.1-1.2,2.9-2.2
			c-0.3-1.7-1.8-2-3.2-1.9c-2.6,0.2-5.3,0.5-7.9,1c-2.4,0.4-4.7,0.5-6.5-1.5c-1.9-2.1-1.9-4.8-1.3-7.4c0.5-1.9,2.1-2.6,4.2-2
			c2.8,0.8,5.5,1.7,8.3,2.3c2.1,0.5,4.2,0.4,5.7-1.7c0.8-1.1,2.1-0.9,3,0c1.8,1.6,2.8,3.8,3,6.2c0,0.4-0.6,1-1,1.3
			C611.3,283.3,610.7,283.3,609.9,283.5z"/>
		<path d="M587.9,266.6c1.6-2.8,1-5.7,1.1-8.6c0-3.3,4.4-5.7,7.9-4.7c4.2,1.2,6.5,4.1,7.5,8.2c0.5,2.1,1.9,2.8,3.8,1.8
			c1.1-0.5,1.3-1.4,0.5-2.2c-0.6-0.7-1.5-1.3-2.2-1.9c-1.2-1-1.6-2.5-0.9-3.4c0.9-1.2,2.2-1.1,3.4-0.5c0.9,0.5,1.8,1.2,2.2,2
			c1.7,3.1,2.2,6.4,1.1,9.9c-0.5,1.4-1.4,2.4-3,2.7c-0.6,0.1-1.2,0.4-1.8,0.3c-4.7-0.3-9,1-13.3,2.6c-2,0.7-3.7,0.1-4.7-1.8
			C588.8,269.7,588.5,268.1,587.9,266.6z M599.3,263.4c0,0.1,0.1,0.2,0.1,0.2c0.6-0.3,1.3-0.6,1.9-0.9c-0.6-0.6-1.1-1.2-1.7-1.7
			c-0.1-0.1-0.5-0.2-0.6-0.1c-0.8,0.3-1.5,0.8-2.3,1.1c0.7,0.4,1.3,0.9,2,1.3C598.8,263.4,599.1,263.4,599.3,263.4z"/>
		<path d="M588,359.7c0.3-1.4,0.4-2.9,0.8-4.4c0.9-2.9,3.4-3.9,5.9-2.3c2.2,1.4,4.5,2,7,2.4c1.1,0.2,1.6-0.1,1.5-1.2
			c-0.1-1.5,0.9-1.9,2.1-1.8c1.1,0.1,2.2,0.2,2.1,1.8c-0.1,1.3,0.5,1.8,1.8,1.2c1.1-0.5,2.3-0.9,3.5-1.2c3.3-1,6.9,1.1,8,4.6
			c1.2,3.5-0.4,7.5-3.6,8.6c-0.7,0.2-1.6,0.5-2.2,0.2c-1-0.5-2.1-1.1-2.7-2c-0.7-1.1,0.3-2.2,1.1-2.9c0.7-0.6,1.5-1.1,2.2-1.7
			c0.3-0.3,0.6-1,0.5-1.4c-0.1-0.4-0.8-0.7-1.3-0.7c-3-0.2-6.6,2.7-7,5.7c-0.1,0.9-0.5,1.6-1.5,1.5c-1-0.1-2.4,0.2-2.6-1.3
			c-0.2-1.6-1-1.5-2.3-1.5c-2.7,0.1-4.9,1.1-7.1,2.8c-2.8,2.1-4.9,1.2-5.7-2.2C588.5,362.5,588.3,361.1,588,359.7z"/>
		<path d="M601.1,369.5c3.3,0.2,7.2,1.6,9.9,5.2c2.7,3.6,2.2,9-1.1,11.6c-0.9,0.7-2.1,1.2-3.2,1.5c-2.1,0.5-3.2-0.2-3.8-2.3
			c-0.7-2.2-0.5-4.3,0.4-6.4c0.6-1.4,0-2.1-1.4-2c-3.2,0.2-5,3.3-3.5,6.1c0.6,1.2,1.1,2.3,0.3,3.5c-0.8,1.3-2.2,1.3-3.5,1.2
			c-4.7-0.5-8.2-6.1-6.8-11C589.8,372.2,594,369.5,601.1,369.5z M605.8,379.2c0.1,0.1,0.2,0.1,0.4,0.2c0,0.3-0.1,0.7,0,1
			c0.2,0.6,0.5,1.1,0.7,1.6c0.5-0.4,1-0.8,1.4-1.3c0.2-0.3,0.3-0.8,0.1-1.1c-0.4-0.8-1-1.6-1.5-2.4
			C606.7,377.8,606.2,378.5,605.8,379.2z"/>
		<path d="M588,344c0.4-1.4,0.6-3.1,1.3-4.7c0.8-1.9,2.2-2.2,4.1-1.6c2.8,0.9,5.7,1.8,8.5,2.5c1.7,0.4,3.4-0.1,4.6-1.7
			c0.9-1.2,2.2-0.7,3,0.1c2,2.2,3.1,4.9,3.1,7.8c0,1.2-1.2,2.2-2.6,2.1c-1.3-0.1-2.7-0.3-4-0.7c-3.1-1-6-0.1-8.9,0.9
			c-1.4,0.5-2.8,1-4,1.7c-1.9,1.1-3.8-0.3-4.4-2.2C588.5,347,588.3,345.7,588,344z"/>
		<path d="M613.9,342.2c0.2-0.5,0.3-1.4,0.8-2.2c0.8-1.5,2.6-1.9,4.1-0.9c2.2,1.5,3.1,5.1,1.8,7.4c-0.9,1.7-2.6,2.1-4.1,0.9
			C614.9,346.2,614.1,344.6,613.9,342.2z"/>
	</g>
	<g>
		<path d="M690.7,326.3c-2.5,1.9-4.7,3.7-7.2,5.4c-3.5,2.4-6.8,5.1-9.2,8.6c-1.5,2.2-3.4,3.9-6,4.5c-9,2-15.8,7.6-22.8,12.9
			c-0.8,0.6-1.7,1.2-2.8,2.1c0-3.3,0-6.2,0-9.2c0-0.3,0.6-0.7,1-0.9c1-0.4,2-0.8,3-1.2c1.4-0.5,2.5-1.2,3.4-2.5
			c0.6-0.9,2-1.2,3.1-1.7c0.7-0.3,1.4-0.6,2.1-0.9c0-0.2,0-0.3-0.1-0.5c-0.5-0.2-1-0.5-1.6-0.7c-1.8-0.6-3.3-1.3-4.5-3
			c-0.7-1.1-2.5-1.6-3.9-1.9c-2.1-0.5-2.7-1.5-2.6-3.6c0.2-5,0.1-10,0-15c0-1.1,0.4-1.8,1.2-2.4c1.2-0.8,2.4-1.7,3.4-2.7
			c3.7-3.6,8.1-5.1,13.1-5.3c1.8-0.1,3.6-0.4,5.4-0.6c0.5,0,1,0.1,1.4,0.4c2.5,1.5,4.8,3.2,7.3,4.6c3.8,2.2,7.2,4.8,10.2,8
			C686.5,322.6,688.5,324.3,690.7,326.3z M659.4,342.1c0,0.2,0,0.3,0.1,0.5c0.3,0.1,0.7,0.4,1,0.3c3.2-0.9,6.4-2,8.4-4.9
			c1.9-2.7,4.4-4.8,7.1-6.6c1.9-1.3,3.6-2.9,5.4-4.3c0.8-0.7,0.7-1.2,0-1.9c-1.9-1.7-3.7-3.5-5.6-5.2c-0.4-0.3-0.8-0.6-1.2-0.9
			c-0.2,0.2-0.3,0.3-0.5,0.5c1.6,2.6,4.1,4.5,6.5,6.7c-1.5,1.2-2.9,2.2-4.2,3.3c-2.6,2.2-5.4,4.3-7.7,6.8c-2,2.3-4.1,4-7,4.8
			C660.9,341.4,660.2,341.8,659.4,342.1z"/>
		<path d="M668.3,255.2c3.7,0.1,4.9,1.2,5.6,4.7c0.1,0.4,0.4,0.8,0.7,1.1c3,2.8,2.4,6.7-1.3,8.3c-0.3,0.1-0.9,0.3-0.9,0.5
			c-0.2,3.1-3.3,3.8-4.6,5.9c-1.1,1.8-3.8,1.9-5.8,0.9c-0.6-0.3-1.4-0.4-2.1-0.2c-1.6,0.4-3,0.1-4.3-0.8c-0.6-0.4-1.2-0.8-1.8-1.2
			c-1.7-1.1-2.5-3-2.2-5c0.2-1.1,0-2.3,0-3.7c-2.9,0.4-5.7-0.7-8.5,1c-0.1-0.7-0.2-1.2-0.2-1.8c0-2.3,0-4.6,0-6.9
			c0-0.4,0.4-0.7,0.6-1.1c0.2,0.4,0.6,0.7,0.6,1.1c0.1,2,0,4,0,6.3c1.3,0,2.5,0,3.7,0c2.1,0,4.2,0.1,6.3,0c2.4-0.2,4.4,0.2,5.7,2.5
			c0.2,0.3,0.8,0.4,1.3,0.5c-0.1-0.5-0.2-1-0.4-1.4c-0.2-0.5-0.6-0.8-1.1-1.4c1.2-0.2,2.1-0.3,3.1-0.4c0-0.2,0-0.5,0-0.7
			c-1.9,0-3.9,0-6.1,0c0.7-1.1,1.2-1.8,1.6-2.5c-0.2-0.2-0.3-0.3-0.5-0.5c-0.6,0.4-1.2,0.8-1.7,1.2c-1.5,1.3-3.5,2-4.3,1.3
			c-0.8-0.7-0.4-3.2,0.7-4.7c0.3-0.5,0.4-1.3,0.3-1.9c-0.4-2.1,0.3-4,1.9-5.1c1.6-1.1,3.7-1,5.5,0c0.6,0.3,1.4,0.5,2,0.4
			C665.1,251.1,666.9,252.2,668.3,255.2z"/>
		<path d="M642.8,315.6c0-9.7,0-18.9,0-28.7c1.2,2.1,2.2,3.7,3.1,5.4c0.6,1.1,1.3,1.6,2.5,1.2c2.1-0.6,3.8,0.1,5.4,1.2
			c2.1,1.5,4.3,2.9,6.5,4.2c0.4,0.3,1,0.2,1.5,0.3c-0.3-0.5-0.5-1.1-0.9-1.3c-2.6-1.7-5.2-3.3-7.8-4.9c-1.3-0.8-2.7-1.4-4.3-0.9
			c-1,0.3-1.7-0.2-2.2-1.1c-1.1-2-2.6-3.9-3.4-6c-0.7-1.8-0.6-3.8-0.9-5.8c11.9,6.2,21.4,14.8,29.4,25.1c-4.1,1.7-8.5,2.4-13,2.6
			c-4.6,0.3-8.5,1.9-11.9,5.1C645.7,313.3,644.4,314.3,642.8,315.6z"/>
		<path d="M668.5,298.4c9.1-4.6,22-1.5,29.2,6.8c7.6,8.9,8.3,21.9,1.6,31.4c-6.7,9.6-19.2,13.5-29.8,9.4c2-1.5,3.8-2.6,6.7-2.2
			c9.2,1.3,18.5-4.3,22.3-13.1c3.8-8.6,1.5-19.1-5.4-25.2c-5.6-4.9-12.1-6.8-19.3-5.1C671.2,301.1,669.7,300.6,668.5,298.4z"/>
		<path d="M665.7,295.3c9-5.1,24.9-4.4,35.2,7.3c9.4,10.8,9.6,27.7,0.2,38.6c-10,11.7-26.3,13.2-37.2,6.7c1.8-0.8,3.4-1.2,5.5-0.5
			c16.8,6.1,34.7-5.8,35.9-23.6c1.2-19.2-17.4-33.5-35.6-27.2C667.6,297.2,666.5,297,665.7,295.3z"/>
		<path d="M668.5,306.9c1.3-0.4,2.6-0.8,4-1.2c1.8-0.5,2-0.9,0.6-2.3c-0.3-0.3-0.6-0.7-0.9-1.1c6.9-2.9,16.8,0,22.1,6.4
			c5.9,7.2,6.4,17.4,1.2,25c-4.5,6.6-13.1,10.5-20.9,8.6c1.3-2.1,2.4-3.6,5.4-3.8c7.8-0.3,14.5-7.5,14.9-15.2
			c0.4-8.7-5.2-16.1-13.2-17.7c-4-0.8-7.8-0.2-11.4,1.7c-0.5,0.3-1.1,0.2-1.7,0.3C668.6,307.4,668.6,307.1,668.5,306.9z"/>
		<path d="M678.7,336.9c2-1.5,4.1-2.9,6-4.5c2.2-1.6,4.2-3.4,6.4-5.1c1.1-0.9,1.3-1.7,0-2.6c-1.3-0.9-2.5-2.1-3.6-3.3
			c-4.3-4.6-9.1-8.6-14.8-11.4c-0.7-0.3-1.3-0.8-2-1.3c4.9-3.3,12.1-2.8,17.1,1c5.2,4,7.3,10.9,5.2,17.2
			C690.8,333,685.1,337.2,678.7,336.9z"/>
		<path d="M632.7,322.2c1.2,0.1,2.5,0.2,3.7,0.3c0,0.3,0,0.6,0,0.8c-1.2,0.1-2.4,0.3-3.8,0.4c0,6.2,0,12.5,0,18.8c1.2,0,2.4,0,3.9,0
			c-0.5-2-0.9-3.9-1.4-5.9c2.1,0.5,4.2,1,6.2,1.4c1.1,0.2,2.2,0.2,3.2,0.5c1.8,0.5,3.6,1.1,4.7,3c0.5,0.8,1.6,1.2,2.5,1.8
			c-2.7,1-4,4.4-7.3,4.8c-2.1,0.2-4.2,0.5-6.3,0.9c-1,0.2-1.9,0.6-3,1c0.5-2,0.9-3.8,1.4-5.8c-1.5,0-2.7,0-4,0c0,4.1,0,8.3,0,12.7
			c2.1,0,4.3,0,6.4,0c0.4,0,0.9,0.4,1.3,0.6c-0.4,0.2-0.9,0.6-1.3,0.7c-2.1,0.1-4.2,0-6.5,0c0,1.5,0.1,2.9,0,4.2
			c0,0.5-0.4,1-0.7,1.4c-0.2-0.5-0.7-1-0.7-1.4c0-6.7,0-13.4,0-20.1c0-7.4,0-14.7,0-22.1c0-0.7,0.2-1.3,0.3-2c0.3,0,0.5,0,0.8-0.1
			C632.4,319.4,632.5,320.7,632.7,322.2z"/>
		<path d="M637.3,306c-0.1-0.6-0.3-1.2-0.3-1.7c0-14.1,0-28.3,0-42.4c0-0.5,0.4-1.1,0.7-1.6c0.2,0.6,0.6,1.1,0.6,1.7
			c0,14.1,0,28.3,0,42.4c0,0.5-0.2,1.1-0.3,1.6C637.8,306,637.5,306,637.3,306z"/>
		<path d="M629.6,257.1c0-2.5,0-5.1,0-7.6c0-0.4,0.4-0.8,0.6-1.2c0.2,0.4,0.6,0.9,0.6,1.3c0,5.1,0,10.3,0,15.4
			c0,0.4-0.4,0.8-0.6,1.3c-0.2-0.4-0.6-0.9-0.6-1.3C629.6,262.3,629.6,259.7,629.6,257.1z"/>
		<path d="M629.6,292.6c0-2,0-4.1,0-6.1c0-0.4,0.3-0.8,0.5-1.2c0.2,0.4,0.7,0.8,0.7,1.2c0.1,4.2,0.1,8.4,0,12.7
			c0,0.4-0.4,0.7-0.6,1.1c-0.2-0.4-0.6-0.7-0.6-1.1C629.6,297,629.6,294.8,629.6,292.6z"/>
		<path d="M633.2,306.2c0-2,0-4.1,0-6.1c0-0.4,0.4-0.8,0.6-1.3c0.2,0.4,0.6,0.9,0.7,1.3c0.1,4.2,0.1,8.3,0,12.5
			c0,0.4-0.5,0.8-0.8,1.2c-0.2-0.4-0.5-0.8-0.5-1.2C633.2,310.4,633.2,308.3,633.2,306.2C633.2,306.2,633.2,306.2,633.2,306.2z"/>
		<path d="M641.6,270c-0.2-0.2-0.7-0.4-0.7-0.7c-0.1-1.8-0.1-3.6,0-5.4c0-0.2,0.4-0.5,0.6-0.7c0.2,0.2,0.6,0.4,0.6,0.6
			c0,2,0,4.1,0,6.1C641.9,270,641.8,270,641.6,270z"/>
	</g>
	<g>
		<path d="M118.4,281.4c3-2.3,5.8-4.5,8.7-6.5c4.3-2.9,8.2-6.1,11.1-10.5c1.8-2.6,4.2-4.8,7.2-5.4c10.8-2.4,19.1-9.2,27.6-15.7
			c1-0.7,2-1.5,3.4-2.5c0,3.9,0,7.5-0.1,11.1c0,0.4-0.7,0.8-1.2,1.1c-1.2,0.5-2.4,1-3.7,1.4c-1.7,0.6-3,1.4-4.1,3
			c-0.7,1-2.4,1.4-3.7,2.1c-0.8,0.4-1.7,0.8-2.6,1.1c0,0.2,0,0.4,0.1,0.6c0.6,0.3,1.3,0.6,1.9,0.8c2.2,0.7,4,1.6,5.5,3.7
			c0.9,1.3,3.1,1.9,4.8,2.4c3.2,0.8,3.6,2.5,2.9,7c-0.7,4.8-0.6,9.6,0.1,14.4c0.4,2.3-0.1,3.3-1.8,4.3c-1.2,0.7-2.2,1.5-3.2,2.4
			c-4.5,4.7-10.1,6.7-16.4,7c-2.2,0.1-4.4,0.5-6.5,0.7c-0.6,0.1-1.2-0.1-1.8-0.4c-2.9-1.8-5.6-3.8-8.6-5.4
			c-4.6-2.6-8.8-5.8-12.4-9.6C123.6,286.1,121.1,284,118.4,281.4z M156.2,262.3c0-0.2-0.1-0.4-0.1-0.6c-0.4-0.1-0.9-0.4-1.3-0.3
			c-3.9,1.1-7.7,2.4-10.2,6c-2.3,3.3-5.3,5.8-8.6,8c-2.3,1.6-4.3,3.5-6.5,5.2c-1.2,1-0.8,1.7,0.8,2.8c2.2,1.6,4,3.5,5.8,5.5
			c0.5,0.5,1.1,0.9,1.7,1.3c0.2-0.2,0.4-0.4,0.6-0.6c-1.9-3.2-5-5.4-7.8-8.1c1.8-1.4,3.5-2.7,5.1-4c3.2-2.7,6.6-5.2,9.3-8.3
			c2.4-2.7,5.3-4.8,8.8-5.9C154.7,263,155.5,262.6,156.2,262.3z"/>
		<path d="M145.5,367.6c-4.5-0.2-6-1.5-6.8-5.7c-0.1-0.5-0.5-1-0.9-1.4c-3.7-3.4-2.9-8.1,1.6-10.1c0.4-0.2,1-0.4,1.1-0.6
			c0.2-3.7,4-4.6,5.6-7.2c1.4-2.2,4.6-2.3,7-1c0.8,0.4,1.6,0.5,2.5,0.3c1.9-0.5,3.6-0.2,5.1,0.9c0.7,0.5,1.4,1,2.1,1.4
			c2.3,1.3,3.3,3.6,2.9,6.1c-0.2,1.4,0,2.8,0,4.4c3.6-0.5,6.9,0.9,10.3-1.3c0.1,0.8,0.2,1.5,0.2,2.2c0,2.8,0,5.6,0,8.3
			c0,0.4-0.5,0.9-0.7,1.3c-0.3-0.4-0.7-0.9-0.8-1.3c-0.1-2.4,0-4.8,0-7.6c-3.2,0-5.8,0-9,0c-1.2,0-2.4,0-3.6,0.1
			c-2.7,0.1-4.9-0.4-6.4-3c-0.2-0.4-1-0.4-1.6-0.6c0.2,0.6,0.2,1.2,0.5,1.7c0.3,0.6,0.8,1,1.3,1.7c-1.4,0.2-2.6,0.4-3.8,0.5
			c0,0.3,0,0.6,0,0.9c2.3,0,4.7,0,7.4,0c-0.9,1.3-1.4,2.2-2,3c0.2,0.2,0.4,0.4,0.6,0.6c0.7-0.5,1.4-0.9,2-1.5
			c1.8-1.6,4.3-2.4,5.2-1.6c1,0.8,0.4,3.9-0.8,5.7c-0.4,0.6-0.5,1.6-0.4,2.3c0.5,2.5-0.3,4.9-2.2,6.2c-2,1.4-4.5,1.3-6.6,0
			c-0.6-0.4-1.7-0.6-2.5-0.5C149.4,372.5,147.2,371.2,145.5,367.6z"/>
		<path d="M176.4,294.4v34.7c-1.5-2.5-2.7-4.4-3.8-6.4c-0.6-1.2-1.9-1.8-3.2-1.5c-2.4,0.6-4.4-0.2-6.4-1.6c-2.6-1.8-5.2-3.5-7.9-5.1
			c-0.5-0.3-1.2-0.2-1.9-0.3c0.4,0.5,0.6,1.3,1.1,1.6c3.1,2,6.3,4,9.5,5.9c1.6,1,3.2,1.7,5.2,1.1c1.2-0.4,2,0.2,2.6,1.3
			c1.3,2.4,3.1,4.7,4.1,7.3c0.8,2.2,0.7,4.7,1.1,7c-14.4-7.5-25.9-17.9-35.6-30.4c4.9-2,10.2-2.9,15.6-3.2
			c5.4-0.3,10.6-2.5,14.6-6.2C172.8,297.2,174.5,296,176.4,294.4z"/>
		<path d="M145.2,315.2c-11.1,5.5-26.6,1.9-35.4-8.3c-9.3-10.7-10.1-26.5-2-38.1c8.2-11.6,23.2-16.4,36.1-11.4
			c-2.5,1.8-4.6,3.1-8.1,2.6c-11.1-1.6-22.4,5.2-27.1,15.9c-4.6,10.5-1.9,23.2,6.6,30.5c6.8,5.9,14.6,8.3,23.4,6.2
			C141.9,312,143.8,312.5,145.2,315.2z"/>
		<path d="M148.7,319c-10.9,6.2-30.2,5.3-42.6-8.9c-11.4-13.1-11.6-33.5-0.2-46.8c12.1-14.2,31.9-16,45-8.1
			c-2.2,0.9-4.2,1.5-6.6,0.6c-20.4-7.3-42,7-43.4,28.6c-1.5,23.3,21,40.6,43.1,32.9C146.3,316.6,147.7,316.8,148.7,319z"/>
		<path d="M145.2,304.9c-1.6,0.5-3.2,1-4.8,1.4c-2.2,0.6-2.4,1.1-0.7,2.8c0.4,0.4,0.7,0.8,1.1,1.3c-8.4,3.6-20.4,0-26.8-7.8
			c-7.2-8.7-7.7-21.1-1.5-30.2c5.5-8,15.8-12.7,25.3-10.4c-1.5,2.6-2.9,4.4-6.6,4.6c-9.4,0.4-17.6,9.1-18,18.4
			c-0.5,10.5,6.3,19.5,16,21.4c4.9,1,9.4,0.2,13.8-2c0.6-0.3,1.4-0.3,2-0.4C145.1,304.3,145.2,304.6,145.2,304.9z"/>
		<path d="M132.9,268.6c-2.4,1.8-4.9,3.5-7.3,5.4c-2.6,2-5.1,4.1-7.7,6.1c-1.3,1-1.6,1.9-0.2,3c1.6,1.3,3.2,2.6,4.6,4.1
			c5.2,5.6,11,10.5,18,13.9c0.8,0.4,1.6,1,2.4,1.5c-5.9,4-14.6,3.4-20.7-1.2c-6.4-4.9-8.9-13.2-6.3-20.8
			C118.3,273.3,125.1,268.2,132.9,268.6z"/>
		<path d="M188.6,286.4c-1.5-0.1-3-0.2-4.5-0.3c0-0.3,0-0.7,0-1c1.5-0.2,3-0.3,4.6-0.5v-22.8H184l1.7,7.1c-2.5-0.6-5-1.2-7.6-1.7
			c-1.3-0.3-2.7-0.2-3.9-0.6c-2.2-0.7-4.4-1.4-5.7-3.7c-0.6-1-1.9-1.4-3-2.2c3.3-1.2,4.8-5.3,8.8-5.8c2.5-0.3,5.1-0.6,7.6-1.1
			c1.2-0.2,2.3-0.8,3.7-1.2l-1.7,7.1h4.8v-15.3c-2.6,0-5.2,0-7.8,0c-0.5,0-1-0.5-1.6-0.7c0.5-0.3,1-0.8,1.6-0.8c2.5-0.1,5.1,0,7.9,0
			c0-1.8-0.1-3.5,0-5.1c0-0.6,0.5-1.2,0.8-1.7c0.3,0.6,0.8,1.2,0.8,1.7c0.1,8.1,0,16.2,0,24.4c0,8.9,0,17.9,0,26.8
			c0,0.8-0.2,1.6-0.3,2.4c-0.3,0-0.6,0.1-0.9,0.1C189,289.8,188.8,288.2,188.6,286.4z"/>
		<path d="M183.1,306c0.1,0.7,0.4,1.4,0.4,2.1c0,17.1,0,34.2,0,51.3c0,0.6-0.5,1.3-0.8,1.9c-0.3-0.7-0.7-1.3-0.7-2
			c0-17.1,0-34.2,0-51.3c0-0.7,0.2-1.3,0.3-2C182.5,306,182.8,306,183.1,306z"/>
		<path d="M192.3,365.2c0,3.1,0,6.1,0,9.2c0,0.5-0.5,1-0.7,1.5c-0.3-0.7-1.1-1.4-0.6-2c3.7-5.3,3.9-12.5,0-17.6
			c-0.5-0.7,0.3-1.3,0.6-2c0.2,0.5,0.7,1,0.7,1.6C192.4,359,192.4,362.1,192.3,365.2z"/>
		<path d="M192.3,322.2c0,2.5,0,5,0,7.4c0,0.5-0.4,1-0.6,1.4c-0.5-0.8-1.8-1.7,0.4-2.6c6-2.3,5.8-10.8-0.2-13.2
			c-1.9-0.8-0.8-1.5-0.3-2.3c0.3,0.4,0.7,0.9,0.7,1.3C192.4,316.9,192.3,319.6,192.3,322.2z"/>
		<path d="M188,305.8c0,2.5,0,5,0,7.4c0,0.5-0.5,1-0.8,1.5c-0.4-0.7-1.2-1.4-0.6-2.1c3.7-4.1,3.4-9.9-0.1-14.1
			c-0.5-0.6,0.4-1.2,0.8-1.8c0.2,0.5,0.6,1,0.6,1.4C188.1,300.7,188,303.3,188,305.8C188,305.8,188,305.8,188,305.8z"/>
		<path d="M177.9,349.6c0.3,0.3,0.8,0.5,0.8,0.8c0.1,2.2,0.1,4.3,0,6.5c0,0.3-0.5,0.6-0.7,0.9c-0.2-0.2-0.7-0.4-0.7-0.7
			c0-2.5,0-5,0-7.4C177.4,349.7,177.6,349.6,177.9,349.6z"/>
	</g>
	
		<rect x="467.2" y="254.6" transform="matrix(-1.836970e-16 1 -1 -1.836970e-16 940.2787 -328.2787)" class="st4" width="334.1" height="102.8"/>
	
		<rect x="-9.3" y="254.6" transform="matrix(-1.836970e-16 1 -1 -1.836970e-16 463.7212 148.2788)" class="st4" width="334.1" height="102.8"/>
</g>
<g id="pen">
	<g>
		<path class="st4" d="M379.5,369.9v-8.2h-0.9l-0.9,0.7l-0.5,0.7l-0.5,1.4v2.1l0.5,1.3l1,1.4L379.5,369.9h0.9l1.4-0.7l0.9-1.4
			l0.5-1.3v-2.1l-0.5-1.4l-0.9-1.4"/>
		<path class="st4" d="M380.9,356.9l0.5,0.7l0.5-0.7l-0.5-0.7L380.9,356.9"/>
		<path class="st4" d="M376.7,343.3h6.5 M379.5,343.3l-1.4-0.7l-1-1.4l-0.5-1.4v-2"/>
		<path class="st4" d="M373.4,335l0.5-0.7l-0.5-0.7l-0.5,0.7L373.4,335 M376.7,334.4h6.5"/>
		<path class="st4" d="M373.4,328.9h9.8"/>
		<path class="st4" d="M379.5,324.1v-8.2h-0.9l-0.9,0.7l-0.5,0.7l-0.5,1.4v2.1l0.5,1.3l1,1.4L379.5,324.1h0.9l1.4-0.7l0.9-1.4
			l0.5-1.3v-2.1l-0.5-1.4l-0.9-1.4"/>
		<path class="st4" d="M376.7,312.5l6.5-4.1 M376.7,304.3l6.5,4.1l1.9,1.3l0.9,1.4l0.5,1.3v0.7"/>
		<path class="st4" d="M375.7,292h-0.5l-0.9-0.7l-0.5-0.7l-0.5-1.3v-2.7l0.5-1.4l0.5-0.7l0.9-0.7h1l0.9,0.7l1.4,1.4l4.7,6.8v-9.6"/>
		<path class="st4" d="M373.4,274.9l0.5,2l1.4,1.4l2.3,0.7h1.4l2.3-0.7l1.4-1.4l0.5-2v-1.4l-0.5-2.1l-1.4-1.3l-2.3-0.7h-1.4
			l-2.3,0.7l-1.4,1.3l-0.5,2.1V274.9"/>
		<path class="st4" d="M375.7,264.7h-0.5l-0.9-0.7l-0.5-0.7l-0.5-1.3v-2.7l0.5-1.4l0.5-0.7l0.9-0.7h1l0.9,0.7l1.4,1.4l4.7,6.8v-9.6"
			/>
		<path class="st4" d="M375.7,251h-0.5l-0.9-0.7l-0.5-0.7l-0.5-1.3v-2.7l0.5-1.4l0.5-0.7l0.9-0.7h1l0.9,0.7l1.4,1.4l4.7,6.8v-9.6"/>
	</g>
	<path class="st4" d="M22.6,252.8c0-20.5,16.6-37.1,37.1-37.1h20.4v-21.3c0-20.5,16.6-37.1,37.1-37.1h557.7
		c20.5,0,37.1,16.6,37.1,37.1v21.4h20.4c20.5,0,37.1,16.6,37.1,37.1v105.9c0,20.5-16.6,37.2-37.1,37.2H712v21.3
		c0,9.9-3.9,19.2-11,26.2c-7.1,7-16.4,10.8-26.2,10.6H117.2c-20.5,0-37.1-16.6-37.1-37.1v-21.3H59.7c-20.5,0-37.1-16.6-37.1-37.1
		V252.8z"/>
</g>
</svg>
