<?xml version="1.0" encoding="utf-8"?>
<!-- Generator: Adobe Illustrator 16.2.1, SVG Export Plug-In . SVG Version: 6.00 Build 0)  -->
<!DOCTYPE svg PUBLIC "-//W3C//DTD SVG 1.1//EN" "http://www.w3.org/Graphics/SVG/1.1/DTD/svg11.dtd">
<svg version="1.1" id="Layer_1" xmlns="http://www.w3.org/2000/svg" xmlns:xlink="http://www.w3.org/1999/xlink" x="0px" y="0px"
	 width="792px" height="612px" viewBox="0 0 792 612" enable-background="new 0 0 792 612" xml:space="preserve">
<g id="Layer_1_2_">
	<g id="Layer_2_2_">
	</g>
	
		<g id="Layer_1_1_" xmlns:rdf="http://www.w3.org/1999/02/22-rdf-syntax-ns#" xmlns:dc="http://purl.org/dc/elements/1.1/" xmlns:sodipodi="http://sodipodi.sourceforge.net/DTD/sodipodi-0.dtd" xmlns:svg="http://www.w3.org/2000/svg" xmlns:cc="http://creativecommons.org/ns#" xmlns:osb="http://www.openswatchbook.org/uri/2009/osb" xmlns:inkscape="http://www.inkscape.org/namespaces/inkscape" sodipodi:docname="Bubble Pack templatev2.svg" inkscape:version="0.92.4 (5da689c313, 2019-01-14)">
		<g id="Layer_2_1_" transform="scale(1.3333333)">
			<rect id="rect4" fill="#FFFFFF" width="594" height="459"/>
		</g>
		<g id="svg15158" transform="scale(1.3333333)" sodipodi:docname="AxiDraw_First.svg" inkscape:version="0.91 r13725">
			
				<path id="path11" inkscape:connector-curvature="0" fill="#FFFFFF" stroke="#FF0000" stroke-width="1.7777" stroke-miterlimit="17.7777" d="
				M537.4,313v-12.6h11.9c17.199,0,31.2-14.1,31.2-31.3v-79.4c0-17.2-14-31.2-31.2-31.2h-11.9v-12.7c0-17.2-14-31.2-31.2-31.2H375.4
				h-12.1H87.9c-17.2,0-31.2,14-31.2,31.2v12.6H44.8c-17.2,0-31.2,14-31.2,31.2V269c0,17.199,14,31.2,31.2,31.2h11.9v12.6
				c0,17.2,14,31.2,31.2,31.2h275.4h12.1h130.7C523.3,344.2,537.4,330.1,537.4,313L537.4,313z"/>
			
				<path id="path7" inkscape:connector-curvature="0" fill="#FFFFFF" stroke="#FF0000" stroke-width="1.7777" stroke-miterlimit="17.7777" d="
				M550.6,255v-15.9c0.1,0,0.1,0,0.1,0c5.3,0,9.7-4.3,9.7-9.7c0-5.3-4.4-9.7-9.7-9.7c-0.1,0-0.1,0-0.2,0v-15.9c0-2.8-2.3-5-5-5h-1.9
				c-2.8,0-5,2.3-5,5V255c0,2.8,2.301,5,5,5h1.9C548.3,260,550.6,257.8,550.6,255z"/>
			
				<path id="path9" inkscape:connector-curvature="0" fill="#FFFFFF" stroke="#FF0000" stroke-width="1.7777" stroke-miterlimit="17.7777" d="
				M43.4,203.8v15.9c-0.1,0-0.1,0-0.2,0c-5.3,0-9.7,4.3-9.7,9.7c0,5.3,4.3,9.7,9.7,9.7c0.1,0,0.1,0,0.2,0V255c0,2.8,2.3,5,5,5h1.9
				c2.8,0,5-2.301,5-5v-51.2c0-2.8-2.3-5-5-5h-1.9C45.7,198.8,43.4,201.1,43.4,203.8z"/>
			<g id="g19">
				
					<line id="line13" fill="none" stroke="#FF0000" stroke-width="1.7777" stroke-miterlimit="7.1111" x1="297" y1="115.3" x2="297" y2="117.5"/>
				
					<line id="line17" fill="none" stroke="#FF0000" stroke-width="1.7777" stroke-miterlimit="7.1111" x1="297" y1="342.1" x2="297" y2="344.3"/>
			</g>
		</g>
	</g>
	<path fill="none" stroke="#FF0000" stroke-miterlimit="10" d="M427.5,205.6c0-10.4,8.5-18.9,18.9-18.9H550.8
		c10.4,0,18.9,8.5,18.9,18.9v200.8c0,10.399-8.5,18.899-18.9,18.899H446.4c-10.4,0-18.9-8.5-18.9-18.899V205.6z"/>
	<path fill="none" stroke="#FF0000" stroke-miterlimit="10" d="M222.3,205.6c0-10.4,8.5-18.9,18.9-18.9h104.4
		c10.4,0,18.9,8.5,18.9,18.9v200.8c0,10.399-8.5,18.899-18.9,18.899H241.2c-10.4,0-18.9-8.5-18.9-18.899V205.6z"/>
</g>
</svg>
